# Blender 4.4.3
# www.blender.org
mtllib cloth_shaped.mtl
o bottom_M
v 0.000000 -0.233785 2.473276
v 0.042025 -0.234677 2.472286
v 0.000000 -0.201307 2.401526
v 0.039883 -0.223793 2.413149
v 0.000000 -0.154033 2.344469
v 0.002343 -0.165328 2.352226
v 0.000000 -0.089463 2.324164
v 0.000000 -0.101027 2.332738
v 0.000000 -0.023469 2.322888
v 0.000000 -0.031486 2.328802
v 0.000000 0.045825 2.325264
v 0.000000 0.052524 2.333655
v 0.000000 0.136299 2.358881
v 0.011425 0.131328 2.358523
v 0.000000 0.192909 2.419533
v 0.141144 -0.255019 2.524393
v 0.145190 -0.240991 2.468015
v 0.239328 -0.258018 2.597075
v 0.251798 -0.265440 2.547237
v 0.344281 -0.188916 2.669861
v 0.353710 -0.178111 2.622231
v 0.368254 -0.083461 2.746408
v 0.383975 -0.070315 2.694065
v 0.354770 0.018762 2.737246
v 0.371785 0.031076 2.685206
v 0.312486 0.176136 2.708915
v 0.325033 0.183814 2.652039
v 0.222568 0.245672 2.639651
v 0.229826 0.259075 2.575678
v 0.125132 0.248558 2.567420
v 0.126877 0.251497 2.492851
v 0.029577 0.186687 2.422086
v 0.000000 0.238367 2.510346
v 0.034050 0.236747 2.511460
v 0.000000 -0.315008 2.878999
v 0.000000 -0.304534 2.795627
v 0.000000 -0.285075 2.721015
v 0.000000 -0.272139 2.644023
v 0.000000 -0.252034 2.558902
v 0.037573 -0.252813 2.556844
v 0.042702 -0.264707 2.645567
v 0.050469 -0.286707 2.722892
v 0.061378 -0.303436 2.807854
v 0.061607 -0.317527 2.885069
v 0.031439 0.066302 2.923513
v 0.025964 0.103995 2.857314
v 0.024206 0.162052 2.796504
v 0.029106 0.201703 2.699558
v 0.030644 0.220762 2.611326
v 0.000000 0.067427 2.923262
v 0.000000 0.107537 2.856195
v 0.000000 0.170657 2.793178
v 0.000000 0.207001 2.699312
v 0.000000 0.222329 2.611369
v 0.137296 -0.310769 2.904736
v 0.141195 -0.303051 2.826124
v 0.143219 -0.293272 2.742787
v 0.135053 -0.279513 2.664975
v 0.132497 -0.264030 2.592785
v 0.209508 -0.296067 2.927788
v 0.220636 -0.290213 2.862342
v 0.228852 -0.284189 2.789483
v 0.231089 -0.274516 2.719089
v 0.231018 -0.260232 2.654080
v 0.266512 -0.255199 2.957011
v 0.283250 -0.241800 2.897317
v 0.301227 -0.229977 2.837944
v 0.317093 -0.216768 2.779545
v 0.331923 -0.200626 2.724675
v 0.293737 -0.156929 2.977031
v 0.308028 -0.137993 2.927410
v 0.321692 -0.124827 2.881645
v 0.337217 -0.112196 2.835466
v 0.352233 -0.098571 2.792208
v 0.288480 -0.042492 2.972981
v 0.298844 -0.027830 2.924856
v 0.307162 -0.004548 2.880810
v 0.326127 0.005610 2.833328
v 0.342807 0.011508 2.782813
v 0.262369 0.028778 2.963375
v 0.269934 0.053038 2.916785
v 0.276626 0.079277 2.869617
v 0.289326 0.111596 2.815775
v 0.306114 0.151844 2.756004
v 0.201283 0.056134 2.949925
v 0.187328 0.091480 2.892693
v 0.193375 0.124758 2.838553
v 0.203307 0.183671 2.777574
v 0.213371 0.222791 2.704969
v 0.082226 0.070113 2.930826
v 0.088193 0.108110 2.870435
v 0.099355 0.160577 2.812881
v 0.114451 0.216389 2.740239
v 0.126448 0.238700 2.658228
v 0.060732 -0.197064 2.351886
v 0.000000 -0.135783 2.332963
v 0.000000 -0.081715 2.331204
v 0.000000 -0.032036 2.332709
v 0.000000 0.035744 2.331569
v 0.012825 0.093687 2.331510
v 0.140602 -0.243870 2.403136
v 0.261486 -0.269979 2.486774
v 0.364839 -0.178843 2.550177
v 0.405531 -0.067751 2.624055
v 0.391162 0.038993 2.614659
v 0.333733 0.191231 2.583146
v 0.237474 0.258787 2.517847
v 0.129209 0.244796 2.426854
v 0.039579 0.155896 2.360570
v 0.063576 -0.196282 2.270952
v 0.009208 -0.140988 2.266000
v 0.000000 -0.085584 2.260426
v 0.000000 -0.033708 2.261503
v 0.000000 0.022228 2.262280
v 0.015168 0.088671 2.263112
v 0.140353 -0.242939 2.272540
v 0.267935 -0.280688 2.284916
v 0.382627 -0.191693 2.294499
v 0.453517 -0.073462 2.306517
v 0.443354 0.044523 2.307963
v 0.371343 0.144946 2.297398
v 0.277907 0.177775 2.286415
v 0.150550 0.175286 2.273011
v 0.056510 0.143852 2.261485
v 0.000000 -0.084535 2.316513
v 0.000000 -0.085337 2.304458
v 0.000000 -0.140413 2.307278
v 0.000000 -0.139728 2.320973
v 0.426867 -0.066777 2.523340
v 0.447881 -0.068029 2.401844
v 0.434057 0.041535 2.397742
v 0.416599 0.044133 2.515444
v 0.000000 -0.032876 2.315614
v 0.000000 -0.033135 2.304115
v 0.371241 0.152666 2.379866
v 0.351604 0.177873 2.486310
v 0.000000 0.023168 2.315378
v 0.000000 0.023158 2.304543
v 0.270486 0.184944 2.357145
v 0.250009 0.224228 2.428462
v 0.013682 0.092932 2.318464
v 0.015027 0.091338 2.306936
v 0.152356 0.182265 2.326574
v 0.134488 0.215212 2.370276
v 0.060830 -0.196453 2.336978
v 0.062756 -0.196258 2.317588
v 0.141029 -0.242559 2.333203
v 0.138398 -0.242954 2.366757
v 0.048832 0.153184 2.325697
v 0.053976 0.148308 2.311526
v 0.267615 -0.280996 2.355996
v 0.268476 -0.277195 2.426551
v 0.385055 -0.195616 2.384633
v 0.375325 -0.190263 2.474548
v 0.068629 -0.191126 2.145944
v 0.026405 -0.136331 2.146911
v 0.008187 -0.082896 2.145756
v 0.007393 -0.032488 2.145980
v 0.010023 0.025431 2.146829
v 0.020351 0.086103 2.148018
v 0.134850 -0.229023 2.145798
v 0.260332 -0.273300 2.149443
v 0.374223 -0.187724 2.152895
v 0.448809 -0.073183 2.159676
v 0.437256 0.047804 2.159171
v 0.357496 0.143214 2.150551
v 0.270548 0.177247 2.146845
v 0.152032 0.174827 2.146408
v 0.062746 0.141341 2.149620
v 0.088512 -0.070044 1.393133
v 0.067288 -0.020534 1.393807
v 0.057531 0.011577 1.393968
v 0.056089 0.043228 1.395142
v 0.057153 0.077393 1.396261
v 0.063614 0.125388 1.398623
v 0.124833 -0.097052 1.393908
v 0.203087 -0.126770 1.395001
v 0.284575 -0.063900 1.396789
v 0.332034 0.026780 1.400340
v 0.316396 0.113593 1.404261
v 0.265463 0.169968 1.406783
v 0.202422 0.192746 1.409331
v 0.144781 0.190905 1.408195
v 0.087918 0.163584 1.402996
v 0.421700 0.051910 2.041473
v 0.398530 0.056406 1.934754
v 0.374157 0.062338 1.816934
v 0.358561 0.074305 1.713880
v 0.342049 0.086981 1.606123
v 0.327734 0.097889 1.517860
v 0.271763 0.158974 1.526514
v 0.281376 0.147920 1.613403
v 0.293990 0.148647 1.720801
v 0.304456 0.146645 1.824642
v 0.322056 0.144160 1.935380
v 0.339181 0.142398 2.041790
v 0.022900 0.027942 2.038923
v 0.028737 0.031514 1.933708
v 0.037499 0.032973 1.822708
v 0.043442 0.044153 1.719885
v 0.044553 0.055793 1.613217
v 0.040784 0.027581 1.521988
v 0.042778 0.016656 1.612202
v 0.041552 0.002500 1.718846
v 0.035655 -0.011641 1.821633
v 0.026897 -0.018056 1.932906
v 0.021241 -0.025941 2.038119
v 0.206514 0.177104 1.527532
v 0.211770 0.167292 1.614850
v 0.219838 0.169369 1.721868
v 0.224939 0.168795 1.826261
v 0.234818 0.168765 1.937021
v 0.251400 0.173335 2.042892
v 0.033291 0.086125 2.039768
v 0.038541 0.084955 1.934596
v 0.046361 0.080836 1.823698
v 0.052045 0.089332 1.720896
v 0.052971 0.099275 1.614323
v 0.050597 0.109716 1.524591
v 0.144378 0.175071 1.527609
v 0.149336 0.165289 1.615209
v 0.153575 0.167299 1.722083
v 0.153967 0.166519 1.826385
v 0.156101 0.166321 1.937104
v 0.159297 0.170843 2.042526
v 0.077835 -0.177359 2.035927
v 0.077848 -0.157885 1.928947
v 0.081260 -0.138642 1.818295
v 0.084206 -0.116935 1.715330
v 0.083897 -0.096717 1.608478
v 0.080885 -0.085294 1.519207
v 0.120040 -0.113055 1.517877
v 0.123315 -0.130730 1.606652
v 0.126122 -0.152515 1.713965
v 0.126157 -0.175959 1.817116
v 0.127772 -0.198265 1.928199
v 0.132210 -0.213935 2.035798
v 0.074323 0.139569 2.041198
v 0.076782 0.136785 1.936074
v 0.081766 0.139032 1.825389
v 0.086218 0.141494 1.721827
v 0.086336 0.141046 1.615197
v 0.082049 0.151193 1.526611
v 0.206708 -0.145048 1.516813
v 0.211354 -0.163017 1.605060
v 0.220166 -0.186387 1.712447
v 0.226134 -0.211976 1.815894
v 0.237909 -0.236962 1.927593
v 0.250220 -0.255300 2.035378
v 0.286549 -0.083780 1.517161
v 0.291464 -0.095494 1.605384
v 0.304472 -0.115799 1.712729
v 0.316132 -0.137470 1.816365
v 0.335863 -0.156018 1.927964
v 0.355407 -0.174403 2.035331
v 0.039693 -0.124749 2.037390
v 0.043473 -0.109685 1.930881
v 0.050520 -0.095114 1.820152
v 0.055140 -0.075974 1.717279
v 0.055420 -0.057595 1.610638
v 0.053417 -0.045696 1.520842
v 0.339136 0.002237 1.518612
v 0.352969 -0.009227 1.607029
v 0.369859 -0.024740 1.714790
v 0.386019 -0.040499 1.817975
v 0.409882 -0.054514 1.929271
v 0.431727 -0.068109 2.037700
v 0.023235 -0.073587 2.037363
v 0.028486 -0.062066 1.931742
v 0.036997 -0.051619 1.820627
v 0.042641 -0.034927 1.717956
v 0.043741 -0.018649 1.611356
v 0.041904 -0.007477 1.521123
v 0.100368 -0.050081 1.331177
v 0.080405 -0.001988 1.332759
v 0.070567 0.029954 1.333166
v 0.069044 0.061344 1.334316
v 0.069930 0.095359 1.335674
v 0.075818 0.143300 1.338980
v 0.133574 -0.084563 1.331124
v 0.202642 -0.115411 1.333124
v 0.292754 -0.052231 1.338025
v 0.339594 0.044884 1.344141
v 0.323720 0.123434 1.347996
v 0.272738 0.186385 1.351958
v 0.211444 0.208071 1.353002
v 0.154110 0.206718 1.350808
v 0.099949 0.181541 1.345246
v 0.109942 -0.044933 1.292640
v 0.088835 0.004094 1.295417
v 0.079105 0.035896 1.295983
v 0.077664 0.067592 1.297393
v 0.078413 0.114570 1.299053
v 0.084487 0.162935 1.302940
v 0.143458 -0.071305 1.290598
v 0.206481 -0.101742 1.291884
v 0.300610 -0.040120 1.298017
v 0.343541 0.054085 1.305261
v 0.330426 0.134382 1.308198
v 0.275259 0.207325 1.315340
v 0.218270 0.224028 1.313526
v 0.163552 0.222647 1.311959
v 0.110097 0.201083 1.308902
v 0.047547 0.071916 1.458954
v 0.107181 -0.016491 1.213449
v 0.086287 0.031694 1.216431
v 0.076694 0.063203 1.217621
v 0.075354 0.093932 1.219369
v 0.076111 0.150753 1.221093
v 0.082707 0.198192 1.223747
v 0.140661 -0.043511 1.210890
v 0.218922 -0.072332 1.211948
v 0.316434 -0.017716 1.218483
v 0.345902 0.164563 1.230145
v 0.292901 0.244870 1.234496
v 0.220354 0.259435 1.231592
v 0.159170 0.257596 1.229809
v 0.107385 0.235946 1.227467
v 0.320665 0.105732 1.459380
v 0.055086 0.117807 1.460915
v 0.082742 -0.078205 1.456688
v 0.082982 0.157645 1.464025
v 0.058029 -0.033071 1.457203
v 0.047468 0.002137 1.457075
v 0.268530 0.165760 1.464595
v 0.046220 0.035440 1.457937
v 0.205013 0.185089 1.467241
v 0.145059 0.183159 1.467080
v 0.123261 -0.105625 1.456679
v 0.205387 -0.136184 1.456241
v 0.285475 -0.073718 1.456419
v 0.334191 0.014781 1.458255
v 0.358234 0.073976 1.226711
v 0.107147 -0.002528 1.149877
v 0.086251 0.045735 1.151653
v 0.076564 0.077741 1.151843
v 0.075253 0.108398 1.152284
v 0.075917 0.165242 1.152785
v 0.082653 0.213481 1.153515
v 0.141024 -0.029968 1.148522
v 0.227889 -0.058743 1.150861
v 0.322927 -0.003788 1.152776
v 0.368570 0.088457 1.155932
v 0.356657 0.179264 1.157483
v 0.303249 0.258727 1.158406
v 0.219958 0.275165 1.156584
v 0.158380 0.273114 1.155783
v 0.107397 0.251591 1.154559
v 0.162666 0.241596 0.726366
v 0.219311 0.250613 0.725765
v 0.292061 0.227719 0.725754
v 0.341613 0.173365 0.725514
v 0.351829 0.093817 0.726095
v 0.302350 0.016651 0.727361
v 0.216661 -0.038353 0.728287
v 0.148044 -0.002713 0.728875
v 0.097233 0.192947 0.727426
v 0.091936 0.159039 0.728060
v 0.091947 0.112689 0.728240
v 0.093663 0.087956 0.728800
v 0.102452 0.061922 0.729902
v 0.119221 0.223105 0.726783
v 0.121529 0.021759 0.729259
v 0.080858 0.211197 1.068382
v 0.084003 0.209007 0.983939
v 0.091301 0.206481 0.898754
v 0.094485 0.203472 0.813178
v 0.074127 0.163839 1.068543
v 0.077226 0.163090 0.984153
v 0.079702 0.162413 0.898631
v 0.088264 0.160669 0.813283
v 0.375018 0.088915 1.071719
v 0.377428 0.090101 0.985724
v 0.370351 0.091284 0.898605
v 0.363680 0.092542 0.811590
v 0.143950 -0.009879 0.813955
v 0.143348 -0.014874 0.899600
v 0.143425 -0.020053 0.984420
v 0.142689 -0.025229 1.066594
v 0.073472 0.109145 1.068134
v 0.076528 0.109932 0.984211
v 0.079234 0.110723 0.898537
v 0.087578 0.111562 0.813003
v 0.097374 0.056192 0.814407
v 0.095018 0.052179 0.899940
v 0.092679 0.049247 0.984416
v 0.084532 0.047453 1.067825
v 0.314066 0.012127 0.812195
v 0.325581 0.007906 0.898947
v 0.329513 0.003848 0.985620
v 0.327183 -0.000245 1.069805
v 0.219761 -0.042493 0.813191
v 0.223266 -0.050780 0.898370
v 0.230996 -0.051472 0.985098
v 0.229188 -0.053035 1.070127
v 0.110814 0.248388 1.068180
v 0.113303 0.244864 0.984276
v 0.114275 0.241291 0.898917
v 0.116502 0.233562 0.812598
v 0.353986 0.173887 0.811492
v 0.361049 0.174692 0.898479
v 0.367491 0.175686 0.985798
v 0.364548 0.177305 1.072715
v 0.109832 0.001113 1.066792
v 0.111735 0.005666 0.983993
v 0.113164 0.010128 0.899571
v 0.114982 0.014235 0.814072
v 0.304934 0.237796 0.812072
v 0.317522 0.245291 0.898881
v 0.324979 0.248234 0.986029
v 0.318716 0.252212 1.072561
v 0.219485 0.261675 0.812245
v 0.214957 0.270179 0.898628
v 0.216355 0.279231 0.984798
v 0.218188 0.280485 1.070154
v 0.088937 0.083817 0.813308
v 0.081013 0.080648 0.898816
v 0.078263 0.078981 0.983997
v 0.074907 0.078617 1.067769
v 0.160610 0.252369 0.812448
v 0.159184 0.260688 0.898931
v 0.158231 0.264274 0.984715
v 0.158030 0.268628 1.069041
v 0.176404 0.197775 0.331980
v 0.213770 0.201673 0.332310
v 0.261572 0.189286 0.331193
v 0.292232 0.133312 0.328667
v 0.300359 0.077224 0.328271
v 0.275193 0.019832 0.330857
v 0.211518 -0.023530 0.335198
v 0.166497 0.002863 0.335498
v 0.130326 0.147891 0.329921
v 0.130188 0.112973 0.330551
v 0.133816 0.083201 0.331423
v 0.135771 0.066207 0.331692
v 0.140837 0.049368 0.332388
v 0.143743 0.178786 0.330873
v 0.149791 0.020768 0.333588
v 0.333150 0.156832 0.646706
v 0.324662 0.154632 0.566450
v 0.313357 0.140324 0.486301
v 0.302483 0.137385 0.406890
v 0.269947 0.190838 0.408031
v 0.275420 0.196784 0.486547
v 0.280197 0.208753 0.566177
v 0.286694 0.219208 0.646211
v 0.101373 0.181307 0.647227
v 0.106251 0.172470 0.566990
v 0.110711 0.162476 0.487479
v 0.122001 0.152415 0.409466
v 0.121086 0.120204 0.410400
v 0.110333 0.129666 0.487152
v 0.103154 0.142356 0.567129
v 0.096818 0.143657 0.647945
v 0.218323 -0.032692 0.649176
v 0.215503 -0.028462 0.569072
v 0.213559 -0.025519 0.489617
v 0.212597 -0.024180 0.409947
v 0.278861 0.020318 0.408956
v 0.285551 0.021302 0.489064
v 0.290476 0.021222 0.568982
v 0.297229 0.020236 0.648613
v 0.130226 0.034532 0.647816
v 0.138068 0.027058 0.568428
v 0.143548 0.027936 0.488908
v 0.146256 0.021764 0.411288
v 0.162072 0.003577 0.411005
v 0.159732 0.007058 0.489756
v 0.157429 0.004939 0.569186
v 0.151545 0.008704 0.648109
v 0.099897 0.103090 0.647732
v 0.109263 0.103913 0.566437
v 0.119099 0.095159 0.486678
v 0.125787 0.087314 0.411379
v 0.128645 0.068699 0.411553
v 0.124876 0.075227 0.487028
v 0.114350 0.082969 0.566632
v 0.104712 0.082956 0.647810
v 0.113458 0.061224 0.648275
v 0.125226 0.058379 0.567667
v 0.132425 0.051398 0.488243
v 0.135283 0.047945 0.411784
v 0.309824 0.079168 0.407246
v 0.321403 0.082686 0.487333
v 0.333662 0.088721 0.567622
v 0.342591 0.095208 0.647605
v 0.213378 0.204606 0.408801
v 0.214783 0.210834 0.486808
v 0.216429 0.223009 0.565842
v 0.218252 0.234217 0.645717
v 0.118092 0.213829 0.646458
v 0.125960 0.203451 0.565925
v 0.128537 0.192227 0.486989
v 0.138066 0.183359 0.409027
v 0.171949 0.201959 0.408916
v 0.163254 0.209307 0.486770
v 0.164451 0.221453 0.565737
v 0.158153 0.232497 0.646088
v -0.042025 -0.234677 2.472286
v -0.039883 -0.223793 2.413149
v -0.002343 -0.165328 2.352226
v -0.011425 0.131328 2.358523
v -0.141144 -0.255019 2.524393
v -0.145190 -0.240991 2.468015
v -0.239328 -0.258018 2.597075
v -0.251798 -0.265440 2.547237
v -0.344281 -0.188916 2.669861
v -0.353710 -0.178111 2.622231
v -0.368254 -0.083461 2.746408
v -0.383975 -0.070315 2.694065
v -0.354770 0.018762 2.737246
v -0.371785 0.031076 2.685206
v -0.312486 0.176136 2.708915
v -0.325033 0.183814 2.652039
v -0.222568 0.245672 2.639651
v -0.229826 0.259075 2.575678
v -0.125132 0.248558 2.567420
v -0.126877 0.251497 2.492851
v -0.029577 0.186687 2.422086
v -0.034050 0.236747 2.511460
v -0.037573 -0.252813 2.556844
v -0.042702 -0.264707 2.645567
v -0.050469 -0.286707 2.722892
v -0.061378 -0.303436 2.807854
v -0.061607 -0.317527 2.885069
v -0.031439 0.066302 2.923513
v -0.025964 0.103995 2.857314
v -0.024206 0.162052 2.796504
v -0.029106 0.201703 2.699558
v -0.030644 0.220762 2.611326
v -0.137296 -0.310769 2.904736
v -0.141195 -0.303051 2.826124
v -0.143219 -0.293272 2.742787
v -0.135053 -0.279513 2.664975
v -0.132497 -0.264030 2.592785
v -0.209508 -0.296067 2.927788
v -0.220636 -0.290213 2.862342
v -0.228852 -0.284189 2.789483
v -0.231089 -0.274516 2.719089
v -0.231018 -0.260232 2.654080
v -0.266512 -0.255199 2.957011
v -0.283250 -0.241800 2.897317
v -0.301227 -0.229977 2.837944
v -0.317093 -0.216768 2.779545
v -0.331923 -0.200626 2.724675
v -0.293737 -0.156929 2.977031
v -0.308028 -0.137993 2.927410
v -0.321692 -0.124827 2.881645
v -0.337217 -0.112196 2.835466
v -0.352233 -0.098571 2.792208
v -0.288480 -0.042492 2.972981
v -0.298844 -0.027830 2.924856
v -0.307162 -0.004548 2.880810
v -0.326127 0.005610 2.833328
v -0.342807 0.011508 2.782813
v -0.262369 0.028778 2.963375
v -0.269934 0.053038 2.916785
v -0.276626 0.079277 2.869617
v -0.289326 0.111596 2.815775
v -0.306114 0.151844 2.756004
v -0.201283 0.056134 2.949925
v -0.187328 0.091480 2.892693
v -0.193375 0.124758 2.838553
v -0.203307 0.183671 2.777574
v -0.213371 0.222791 2.704969
v -0.082226 0.070113 2.930826
v -0.088193 0.108110 2.870435
v -0.099355 0.160577 2.812881
v -0.114451 0.216389 2.740239
v -0.126448 0.238700 2.658228
v -0.060732 -0.197064 2.351886
v -0.012825 0.093687 2.331510
v -0.140602 -0.243870 2.403136
v -0.261486 -0.269979 2.486774
v -0.364839 -0.178843 2.550177
v -0.405531 -0.067751 2.624055
v -0.391162 0.038993 2.614659
v -0.333733 0.191231 2.583146
v -0.237474 0.258787 2.517847
v -0.129209 0.244796 2.426854
v -0.039579 0.155896 2.360570
v -0.063576 -0.196282 2.270952
v -0.009208 -0.140988 2.266000
v -0.015168 0.088671 2.263112
v -0.140353 -0.242939 2.272540
v -0.267935 -0.280688 2.284916
v -0.382627 -0.191693 2.294499
v -0.453517 -0.073462 2.306517
v -0.443354 0.044523 2.307963
v -0.371343 0.144946 2.297398
v -0.277907 0.177775 2.286415
v -0.150550 0.175286 2.273011
v -0.056510 0.143852 2.261485
v -0.426867 -0.066777 2.523340
v -0.447881 -0.068029 2.401844
v -0.434057 0.041535 2.397742
v -0.416599 0.044133 2.515444
v -0.371241 0.152666 2.379866
v -0.351604 0.177873 2.486310
v -0.270486 0.184944 2.357145
v -0.250009 0.224228 2.428462
v -0.013682 0.092932 2.318464
v -0.015027 0.091338 2.306936
v -0.152356 0.182265 2.326574
v -0.134488 0.215212 2.370276
v -0.060830 -0.196453 2.336978
v -0.062756 -0.196258 2.317588
v -0.141029 -0.242559 2.333203
v -0.138398 -0.242954 2.366757
v -0.048832 0.153184 2.325697
v -0.053976 0.148308 2.311526
v -0.267615 -0.280996 2.355996
v -0.268476 -0.277195 2.426551
v -0.385055 -0.195616 2.384633
v -0.375325 -0.190263 2.474548
v -0.068629 -0.191126 2.145944
v -0.026405 -0.136331 2.146911
v -0.008187 -0.082896 2.145756
v -0.007393 -0.032488 2.145980
v -0.010023 0.025431 2.146829
v -0.020351 0.086103 2.148018
v -0.134850 -0.229023 2.145798
v -0.260332 -0.273300 2.149443
v -0.374223 -0.187724 2.152895
v -0.448809 -0.073183 2.159676
v -0.437256 0.047804 2.159171
v -0.357496 0.143214 2.150551
v -0.270548 0.177247 2.146845
v -0.152032 0.174827 2.146408
v -0.062746 0.141341 2.149620
v -0.088512 -0.070044 1.393133
v -0.067288 -0.020534 1.393807
v -0.057531 0.011577 1.393968
v -0.056089 0.043228 1.395142
v -0.057153 0.077393 1.396261
v -0.063614 0.125388 1.398623
v -0.124833 -0.097052 1.393908
v -0.203087 -0.126770 1.395001
v -0.284575 -0.063900 1.396789
v -0.332034 0.026780 1.400340
v -0.316396 0.113593 1.404261
v -0.265463 0.169968 1.406783
v -0.202422 0.192746 1.409331
v -0.144781 0.190905 1.408195
v -0.087918 0.163584 1.402996
v -0.421700 0.051910 2.041473
v -0.398530 0.056406 1.934754
v -0.374157 0.062338 1.816934
v -0.358561 0.074305 1.713880
v -0.342049 0.086981 1.606123
v -0.327734 0.097889 1.517860
v -0.271763 0.158974 1.526514
v -0.281376 0.147920 1.613403
v -0.293990 0.148647 1.720801
v -0.304456 0.146645 1.824642
v -0.322056 0.144160 1.935380
v -0.339181 0.142398 2.041790
v -0.022900 0.027942 2.038923
v -0.028737 0.031514 1.933708
v -0.037499 0.032973 1.822708
v -0.043442 0.044153 1.719885
v -0.044553 0.055793 1.613217
v -0.040784 0.027581 1.521988
v -0.042778 0.016656 1.612202
v -0.041552 0.002500 1.718846
v -0.035655 -0.011641 1.821633
v -0.026897 -0.018056 1.932906
v -0.021241 -0.025941 2.038119
v -0.206514 0.177104 1.527532
v -0.211770 0.167292 1.614850
v -0.219838 0.169369 1.721868
v -0.224939 0.168795 1.826261
v -0.234818 0.168765 1.937021
v -0.251400 0.173335 2.042892
v -0.033291 0.086125 2.039768
v -0.038541 0.084955 1.934596
v -0.046361 0.080836 1.823698
v -0.052045 0.089332 1.720896
v -0.052971 0.099275 1.614323
v -0.050597 0.109716 1.524591
v -0.144378 0.175071 1.527609
v -0.149336 0.165289 1.615209
v -0.153575 0.167299 1.722083
v -0.153967 0.166519 1.826385
v -0.156101 0.166321 1.937104
v -0.159297 0.170843 2.042526
v -0.077835 -0.177359 2.035927
v -0.077848 -0.157885 1.928947
v -0.081260 -0.138642 1.818295
v -0.084206 -0.116935 1.715330
v -0.083897 -0.096717 1.608478
v -0.080885 -0.085294 1.519207
v -0.120040 -0.113055 1.517877
v -0.123315 -0.130730 1.606652
v -0.126122 -0.152515 1.713965
v -0.126157 -0.175959 1.817116
v -0.127772 -0.198265 1.928199
v -0.132210 -0.213935 2.035798
v -0.074323 0.139569 2.041198
v -0.076782 0.136785 1.936074
v -0.081766 0.139032 1.825389
v -0.086218 0.141494 1.721827
v -0.086336 0.141046 1.615197
v -0.082049 0.151193 1.526611
v -0.206708 -0.145048 1.516813
v -0.211354 -0.163017 1.605060
v -0.220166 -0.186387 1.712447
v -0.226134 -0.211976 1.815894
v -0.237909 -0.236962 1.927593
v -0.250220 -0.255300 2.035378
v -0.286549 -0.083780 1.517161
v -0.291464 -0.095494 1.605384
v -0.304472 -0.115799 1.712729
v -0.316132 -0.137470 1.816365
v -0.335863 -0.156018 1.927964
v -0.355407 -0.174403 2.035331
v -0.039693 -0.124749 2.037390
v -0.043473 -0.109685 1.930881
v -0.050520 -0.095114 1.820152
v -0.055140 -0.075974 1.717279
v -0.055420 -0.057595 1.610638
v -0.053417 -0.045696 1.520842
v -0.339136 0.002237 1.518612
v -0.352969 -0.009227 1.607029
v -0.369859 -0.024740 1.714790
v -0.386019 -0.040499 1.817975
v -0.409882 -0.054514 1.929271
v -0.431727 -0.068109 2.037700
v -0.023235 -0.073587 2.037363
v -0.028486 -0.062066 1.931742
v -0.036997 -0.051619 1.820627
v -0.042641 -0.034927 1.717956
v -0.043741 -0.018649 1.611356
v -0.041904 -0.007477 1.521123
v -0.100368 -0.050081 1.331177
v -0.080405 -0.001988 1.332759
v -0.070567 0.029954 1.333166
v -0.069044 0.061344 1.334316
v -0.069930 0.095359 1.335674
v -0.075818 0.143300 1.338980
v -0.133574 -0.084563 1.331124
v -0.202642 -0.115411 1.333124
v -0.292754 -0.052231 1.338025
v -0.339594 0.044884 1.344141
v -0.323720 0.123434 1.347996
v -0.272738 0.186385 1.351958
v -0.211444 0.208071 1.353002
v -0.154110 0.206718 1.350808
v -0.099949 0.181541 1.345246
v -0.109942 -0.044933 1.292640
v -0.088835 0.004094 1.295417
v -0.079105 0.035896 1.295983
v -0.077664 0.067592 1.297393
v -0.078413 0.114570 1.299053
v -0.084487 0.162935 1.302940
v -0.143458 -0.071305 1.290598
v -0.206481 -0.101742 1.291884
v -0.300610 -0.040120 1.298017
v -0.343541 0.054085 1.305261
v -0.330426 0.134382 1.308198
v -0.275259 0.207325 1.315340
v -0.218270 0.224028 1.313526
v -0.163552 0.222647 1.311959
v -0.110097 0.201083 1.308902
v -0.047547 0.071916 1.458954
v -0.107181 -0.016491 1.213449
v -0.086287 0.031694 1.216431
v -0.076694 0.063203 1.217621
v -0.075354 0.093932 1.219369
v -0.076111 0.150753 1.221093
v -0.082707 0.198192 1.223747
v -0.140661 -0.043511 1.210890
v -0.218922 -0.072332 1.211948
v -0.316434 -0.017716 1.218483
v -0.345902 0.164563 1.230145
v -0.292901 0.244870 1.234496
v -0.220354 0.259435 1.231592
v -0.159170 0.257596 1.229809
v -0.107385 0.235946 1.227467
v -0.320665 0.105732 1.459380
v -0.055086 0.117807 1.460915
v -0.082742 -0.078205 1.456688
v -0.082982 0.157645 1.464025
v -0.058029 -0.033071 1.457203
v -0.047468 0.002137 1.457075
v -0.268530 0.165760 1.464595
v -0.046220 0.035440 1.457937
v -0.205013 0.185089 1.467241
v -0.145059 0.183159 1.467080
v -0.123261 -0.105625 1.456679
v -0.205387 -0.136184 1.456241
v -0.285475 -0.073718 1.456419
v -0.334191 0.014781 1.458255
v -0.358234 0.073976 1.226711
v -0.107147 -0.002528 1.149877
v -0.086251 0.045735 1.151653
v -0.076564 0.077741 1.151843
v -0.075253 0.108398 1.152284
v -0.075917 0.165242 1.152785
v -0.082653 0.213481 1.153515
v -0.141024 -0.029968 1.148522
v -0.227889 -0.058743 1.150861
v -0.322927 -0.003788 1.152776
v -0.368570 0.088457 1.155932
v -0.356657 0.179264 1.157483
v -0.303249 0.258727 1.158406
v -0.219958 0.275165 1.156584
v -0.158380 0.273114 1.155783
v -0.107397 0.251591 1.154559
v -0.162666 0.241596 0.726366
v -0.219311 0.250613 0.725765
v -0.292061 0.227719 0.725754
v -0.341613 0.173365 0.725514
v -0.351829 0.093817 0.726095
v -0.302350 0.016651 0.727361
v -0.216661 -0.038353 0.728287
v -0.148044 -0.002713 0.728875
v -0.097233 0.192947 0.727426
v -0.091936 0.159039 0.728060
v -0.091947 0.112689 0.728240
v -0.093663 0.087956 0.728800
v -0.102452 0.061922 0.729902
v -0.119221 0.223105 0.726783
v -0.121529 0.021759 0.729259
v -0.080858 0.211197 1.068382
v -0.084003 0.209007 0.983939
v -0.091301 0.206481 0.898754
v -0.094485 0.203472 0.813178
v -0.074127 0.163839 1.068543
v -0.077226 0.163090 0.984153
v -0.079702 0.162413 0.898631
v -0.088264 0.160669 0.813283
v -0.375018 0.088915 1.071719
v -0.377428 0.090101 0.985724
v -0.370351 0.091284 0.898605
v -0.363680 0.092542 0.811590
v -0.143950 -0.009879 0.813955
v -0.143348 -0.014874 0.899600
v -0.143425 -0.020053 0.984420
v -0.142689 -0.025229 1.066594
v -0.073472 0.109145 1.068134
v -0.076528 0.109932 0.984211
v -0.079234 0.110723 0.898537
v -0.087578 0.111562 0.813003
v -0.097374 0.056192 0.814407
v -0.095018 0.052179 0.899940
v -0.092679 0.049247 0.984416
v -0.084532 0.047453 1.067825
v -0.314066 0.012127 0.812195
v -0.325581 0.007906 0.898947
v -0.329513 0.003848 0.985620
v -0.327183 -0.000245 1.069805
v -0.219761 -0.042493 0.813191
v -0.223266 -0.050780 0.898370
v -0.230996 -0.051472 0.985098
v -0.229188 -0.053035 1.070127
v -0.110814 0.248388 1.068180
v -0.113303 0.244864 0.984276
v -0.114275 0.241291 0.898917
v -0.116502 0.233562 0.812598
v -0.353986 0.173887 0.811492
v -0.361049 0.174692 0.898479
v -0.367491 0.175686 0.985798
v -0.364548 0.177305 1.072715
v -0.109832 0.001113 1.066792
v -0.111735 0.005666 0.983993
v -0.113164 0.010128 0.899571
v -0.114982 0.014235 0.814072
v -0.304934 0.237796 0.812072
v -0.317522 0.245291 0.898881
v -0.324979 0.248234 0.986029
v -0.318716 0.252212 1.072561
v -0.219485 0.261675 0.812245
v -0.214957 0.270179 0.898628
v -0.216355 0.279231 0.984798
v -0.218188 0.280485 1.070154
v -0.088937 0.083817 0.813308
v -0.081013 0.080648 0.898816
v -0.078263 0.078981 0.983997
v -0.074907 0.078617 1.067769
v -0.160610 0.252369 0.812448
v -0.159184 0.260688 0.898931
v -0.158231 0.264274 0.984715
v -0.158030 0.268628 1.069041
v -0.176404 0.197775 0.331980
v -0.213770 0.201673 0.332310
v -0.261572 0.189286 0.331193
v -0.292232 0.133312 0.328667
v -0.300359 0.077224 0.328271
v -0.275193 0.019832 0.330857
v -0.211518 -0.023530 0.335198
v -0.166497 0.002863 0.335498
v -0.130326 0.147891 0.329921
v -0.130188 0.112973 0.330551
v -0.133816 0.083201 0.331423
v -0.135771 0.066207 0.331692
v -0.140837 0.049368 0.332388
v -0.143743 0.178786 0.330873
v -0.149791 0.020768 0.333588
v -0.333150 0.156832 0.646706
v -0.324662 0.154632 0.566450
v -0.313357 0.140324 0.486301
v -0.302483 0.137385 0.406890
v -0.269947 0.190838 0.408031
v -0.275420 0.196784 0.486547
v -0.280197 0.208753 0.566177
v -0.286694 0.219208 0.646211
v -0.101373 0.181307 0.647227
v -0.106251 0.172470 0.566990
v -0.110711 0.162476 0.487479
v -0.122001 0.152415 0.409466
v -0.121086 0.120204 0.410400
v -0.110333 0.129666 0.487152
v -0.103154 0.142356 0.567129
v -0.096818 0.143657 0.647945
v -0.218323 -0.032692 0.649176
v -0.215503 -0.028462 0.569072
v -0.213559 -0.025519 0.489617
v -0.212597 -0.024180 0.409947
v -0.278861 0.020318 0.408956
v -0.285551 0.021302 0.489064
v -0.290476 0.021222 0.568982
v -0.297229 0.020236 0.648613
v -0.130226 0.034532 0.647816
v -0.138068 0.027058 0.568428
v -0.143548 0.027936 0.488908
v -0.146256 0.021764 0.411288
v -0.162072 0.003577 0.411005
v -0.159732 0.007058 0.489756
v -0.157429 0.004939 0.569186
v -0.151545 0.008704 0.648109
v -0.099897 0.103090 0.647732
v -0.109263 0.103913 0.566437
v -0.119099 0.095159 0.486678
v -0.125787 0.087314 0.411379
v -0.128645 0.068699 0.411553
v -0.124876 0.075227 0.487028
v -0.114350 0.082969 0.566632
v -0.104712 0.082956 0.647810
v -0.113458 0.061224 0.648275
v -0.125226 0.058379 0.567667
v -0.132425 0.051398 0.488243
v -0.135283 0.047945 0.411784
v -0.309824 0.079168 0.407246
v -0.321403 0.082686 0.487333
v -0.333662 0.088721 0.567622
v -0.342591 0.095208 0.647605
v -0.213378 0.204606 0.408801
v -0.214783 0.210834 0.486808
v -0.216429 0.223009 0.565842
v -0.218252 0.234217 0.645717
v -0.118092 0.213829 0.646458
v -0.125960 0.203451 0.565925
v -0.128537 0.192227 0.486989
v -0.138066 0.183359 0.409027
v -0.171949 0.201959 0.408916
v -0.163254 0.209307 0.486770
v -0.164451 0.221453 0.565737
v -0.158153 0.232497 0.646088
vn -0.0000 -0.9657 -0.2596
vn -0.0996 -0.9683 -0.2291
vn -0.0000 -0.8646 -0.5024
vn -0.2325 -0.9148 -0.3303
vn -0.0000 -0.4406 -0.8977
vn -0.3567 -0.7323 -0.5802
vn 0.9985 -0.0119 -0.0536
vn 0.7497 -0.3070 -0.5863
vn 1.0000 -0.0000 -0.0000
vn 0.9278 0.1076 -0.3572
vn 0.1213 0.3510 -0.9285
vn -0.0000 0.5888 -0.8083
vn -0.0814 0.6222 -0.7786
vn -0.0000 0.8142 -0.5805
vn -0.0531 -0.9896 -0.1336
vn -0.1600 -0.9823 -0.0974
vn 0.2865 -0.9580 -0.0123
vn 0.2489 -0.9673 0.0479
vn 0.7785 -0.6188 0.1050
vn 0.7775 -0.6101 0.1524
vn 0.9625 -0.0945 0.2541
vn 0.9621 -0.1005 0.2534
vn 0.9251 0.2211 0.3086
vn 0.9260 0.2445 0.2877
vn 0.6831 0.6434 0.3455
vn 0.7459 0.6230 0.2356
vn 0.2046 0.9500 0.2360
vn 0.2209 0.9693 0.1081
vn -0.1542 0.9857 0.0675
vn -0.1826 0.9725 -0.1447
vn -0.1450 0.8729 -0.4659
vn -0.0000 0.9857 -0.1688
vn -0.0666 0.9867 -0.1484
vn -0.0000 -0.9885 -0.1512
vn -0.0000 -0.9815 -0.1914
vn -0.0000 -0.9747 -0.2234
vn -0.0000 -0.9790 -0.2038
vn -0.0000 -0.9806 -0.1962
vn -0.0270 -0.9822 -0.1861
vn -0.0019 -0.9808 -0.1952
vn 0.0020 -0.9780 -0.2086
vn 0.0244 -0.9862 -0.1638
vn 0.0484 -0.9885 -0.1431
vn -0.0551 0.8601 0.5072
vn -0.0345 0.7991 0.6002
vn -0.0190 0.8208 0.5709
vn -0.0503 0.9520 0.3020
vn -0.0822 0.9822 0.1687
vn -0.0000 0.8646 0.5024
vn -0.0000 0.7908 0.6121
vn -0.0000 0.8560 0.5170
vn -0.0000 0.9597 0.2809
vn -0.0000 0.9845 0.1753
vn 0.1506 -0.9836 -0.0993
vn 0.1157 -0.9868 -0.1132
vn 0.0742 -0.9846 -0.1585
vn 0.0440 -0.9794 -0.1971
vn 0.0016 -0.9888 -0.1495
vn 0.4299 -0.9025 -0.0275
vn 0.4093 -0.9118 -0.0339
vn 0.4013 -0.9129 -0.0741
vn 0.3915 -0.9087 -0.1446
vn 0.3479 -0.9307 -0.1135
vn 0.8088 -0.5796 0.0997
vn 0.8124 -0.5726 0.1106
vn 0.8141 -0.5716 0.1024
vn 0.8114 -0.5817 0.0574
vn 0.8018 -0.5945 0.0604
vn 0.9646 -0.1466 0.2194
vn 0.9659 -0.0970 0.2401
vn 0.9588 -0.0896 0.2695
vn 0.9538 -0.0976 0.2842
vn 0.9590 -0.1015 0.2647
vn 0.9395 0.1855 0.2880
vn 0.9296 0.2165 0.2982
vn 0.9026 0.2450 0.3539
vn 0.8955 0.2286 0.3820
vn 0.9158 0.2148 0.3395
vn 0.6947 0.5938 0.4059
vn 0.6208 0.6465 0.4435
vn 0.5897 0.6231 0.5138
vn 0.6119 0.5817 0.5360
vn 0.6791 0.5915 0.4347
vn 0.1790 0.8516 0.4927
vn 0.1346 0.8323 0.5377
vn 0.1553 0.7739 0.6139
vn 0.1915 0.8013 0.5668
vn 0.2038 0.8994 0.3866
vn -0.0634 0.8520 0.5197
vn -0.0587 0.8083 0.5859
vn -0.0699 0.7902 0.6089
vn -0.0901 0.8987 0.4292
vn -0.1171 0.9668 0.2272
vn -0.4873 -0.8502 -0.1994
vn -0.4984 -0.8669 -0.0021
vn -0.9981 0.0004 0.0615
vn -1.0000 -0.0000 -0.0000
vn 0.8496 0.4193 -0.3200
vn -0.8783 0.3463 -0.3296
vn -0.2852 -0.9573 -0.0468
vn 0.1916 -0.9744 0.1172
vn 0.7622 -0.6235 0.1738
vn 0.9602 -0.1479 0.2368
vn 0.9362 0.2648 0.2310
vn 0.7446 0.6583 0.1106
vn 0.2863 0.9526 -0.1030
vn -0.1924 0.9296 -0.3144
vn -0.5747 0.7102 -0.4066
vn -0.6176 -0.7844 -0.0576
vn -0.8831 -0.4582 -0.1005
vn -0.7304 -0.5332 -0.4270
vn -0.9900 0.0171 -0.1403
vn -0.7460 0.6297 -0.2166
vn -0.9122 0.4067 -0.0494
vn -0.4042 -0.9141 -0.0315
vn 0.1821 -0.9823 -0.0434
vn 0.7500 -0.6607 -0.0317
vn 0.9764 -0.2159 0.0044
vn 0.9389 0.3441 0.0074
vn 0.6149 0.7878 -0.0345
vn 0.1772 0.9825 -0.0581
vn -0.1702 0.9834 -0.0622
vn -0.5922 0.8033 -0.0643
vn -0.9954 -0.0625 -0.0731
vn -0.3153 -0.9406 -0.1263
vn -0.5125 -0.8581 0.0310
vn 0.9682 -0.1646 0.1887
vn 0.9786 -0.1764 0.1060
vn 0.9460 0.3110 0.0910
vn 0.9427 0.2894 0.1659
vn 0.6755 0.7362 -0.0417
vn 0.7263 0.6871 -0.0191
vn -0.9591 0.2589 -0.1140
vn -0.9156 0.3948 -0.0765
vn 0.2448 0.9414 -0.2319
vn 0.3193 0.8938 -0.3151
vn -0.9093 0.3682 -0.1939
vn -0.9115 0.3936 -0.1195
vn -0.0830 0.9363 -0.3412
vn -0.1378 0.8747 -0.4647
vn -0.6045 -0.7966 0.0015
vn -0.5934 -0.8041 -0.0361
vn -0.3957 -0.9184 -0.0069
vn -0.3971 -0.9178 0.0043
vn -0.5940 0.6932 -0.4082
vn -0.5626 0.7696 -0.3020
vn 0.1723 -0.9849 0.0183
vn 0.1918 -0.9772 0.0907
vn 0.7596 -0.6480 0.0551
vn 0.7518 -0.6412 0.1538
vn -0.6514 -0.7507 -0.1100
vn -0.8755 -0.4657 -0.1289
vn -0.9812 -0.1527 -0.1177
vn -0.9950 0.0070 -0.0997
vn -0.9896 0.1089 -0.0939
vn -0.9114 0.4030 -0.0838
vn -0.4183 -0.9034 -0.0937
vn 0.1648 -0.9789 -0.1206
vn 0.7297 -0.6738 -0.1163
vn 0.9662 -0.2387 -0.0979
vn 0.9246 0.3718 -0.0829
vn 0.5838 0.8089 -0.0697
vn 0.1741 0.9839 -0.0407
vn -0.1862 0.9820 -0.0304
vn -0.5932 0.8029 -0.0588
vn -0.7631 -0.6039 -0.2301
vn -0.9101 -0.3402 -0.2367
vn -0.9621 -0.1652 -0.2171
vn -0.9832 -0.0020 -0.1826
vn -0.9832 0.0872 -0.1604
vn -0.9351 0.3430 -0.0894
vn -0.4888 -0.8509 -0.1924
vn 0.1330 -0.9770 -0.1668
vn 0.7557 -0.6479 -0.0957
vn 0.9862 -0.1655 0.0059
vn 0.8969 0.4286 0.1089
vn 0.5550 0.8137 0.1731
vn 0.1379 0.9705 0.1980
vn -0.2449 0.9553 0.1657
vn -0.6708 0.7398 0.0521
vn 0.9091 0.3905 -0.1447
vn 0.9028 0.3974 -0.1645
vn 0.9100 0.3933 -0.1310
vn 0.9080 0.4064 -0.1016
vn 0.9024 0.4204 -0.0943
vn 0.9045 0.4228 -0.0551
vn 0.5202 0.8524 0.0532
vn 0.5208 0.8537 -0.0075
vn 0.5278 0.8484 -0.0411
vn 0.5329 0.8446 -0.0510
vn 0.5388 0.8383 -0.0836
vn 0.5551 0.8263 -0.0955
vn -0.9907 0.1066 -0.0850
vn -0.9919 0.1096 -0.0638
vn -0.9919 0.1113 -0.0610
vn -0.9930 0.1163 -0.0215
vn -0.7185 0.1053 -0.6875
vn -0.7355 0.6751 0.0561
vn -0.9996 0.0269 -0.0113
vn -0.9994 0.0081 -0.0333
vn -0.9977 0.0047 -0.0676
vn -0.9978 0.0013 -0.0661
vn -0.9959 0.0022 -0.0909
vn 0.1212 0.9863 0.1119
vn 0.1198 0.9921 0.0378
vn 0.1208 0.9926 -0.0143
vn 0.1182 0.9930 -0.0050
vn 0.1258 0.9916 -0.0306
vn 0.1494 0.9872 -0.0550
vn -0.9114 0.4042 -0.0772
vn -0.9191 0.3900 -0.0558
vn -0.9297 0.3655 -0.0461
vn -0.9248 0.3803 -0.0048
vn -0.9250 0.3793 0.0223
vn -0.9317 0.3614 0.0364
vn -0.2042 0.9716 0.1199
vn -0.1983 0.9786 0.0550
vn -0.1953 0.9807 -0.0016
vn -0.1965 0.9805 0.0060
vn -0.1933 0.9810 -0.0161
vn -0.1842 0.9820 -0.0416
vn -0.6853 -0.7169 -0.1278
vn -0.7187 -0.6837 -0.1264
vn -0.7274 -0.6699 -0.1489
vn -0.7319 -0.6667 -0.1408
vn -0.7293 -0.6767 -0.1011
vn -0.7243 -0.6821 -0.1010
vn -0.4779 -0.8685 -0.1316
vn -0.4938 -0.8565 -0.1503
vn -0.4962 -0.8500 -0.1771
vn -0.4897 -0.8532 -0.1793
vn -0.4751 -0.8682 -0.1435
vn -0.4441 -0.8875 -0.1229
vn -0.5886 0.8063 -0.0577
vn -0.6117 0.7905 -0.0314
vn -0.6273 0.7787 -0.0137
vn -0.6185 0.7858 0.0033
vn -0.6049 0.7938 0.0631
vn -0.6067 0.7895 0.0930
vn 0.1507 -0.9735 -0.1718
vn 0.1587 -0.9650 -0.2088
vn 0.1706 -0.9563 -0.2373
vn 0.1581 -0.9578 -0.2401
vn 0.1594 -0.9640 -0.2129
vn 0.1589 -0.9703 -0.1825
vn 0.7358 -0.6604 -0.1501
vn 0.7243 -0.6634 -0.1877
vn 0.7176 -0.6623 -0.2154
vn 0.7105 -0.6656 -0.2282
vn 0.7073 -0.6672 -0.2334
vn 0.7101 -0.6745 -0.2022
vn -0.8820 -0.4546 -0.1245
vn -0.8914 -0.4411 -0.1039
vn -0.8905 -0.4392 -0.1185
vn -0.8936 -0.4372 -0.1014
vn -0.8976 -0.4372 -0.0572
vn -0.9032 -0.4218 -0.0791
vn 0.9658 -0.2194 -0.1383
vn 0.9568 -0.2347 -0.1714
vn 0.9524 -0.2430 -0.1842
vn 0.9454 -0.2489 -0.2103
vn 0.9412 -0.2471 -0.2305
vn 0.9479 -0.2540 -0.1924
vn -0.9792 -0.1730 -0.1064
vn -0.9827 -0.1678 -0.0789
vn -0.9822 -0.1669 -0.0860
vn -0.9853 -0.1607 -0.0573
vn -0.9872 -0.1588 -0.0166
vn -0.9855 -0.1607 -0.0542
vn -0.7875 -0.5388 -0.2993
vn -0.9064 -0.3210 -0.2745
vn -0.9566 -0.1544 -0.2472
vn -0.9764 -0.0012 -0.2158
vn -0.9791 0.0797 -0.1872
vn -0.9401 0.3320 -0.0770
vn -0.5158 -0.8054 -0.2921
vn 0.0968 -0.9666 -0.2374
vn 0.7560 -0.6503 -0.0741
vn 0.9863 -0.1303 0.1009
vn 0.8898 0.3909 0.2354
vn 0.5607 0.7534 0.3435
vn 0.1367 0.9259 0.3522
vn -0.2353 0.9294 0.2844
vn -0.6707 0.7293 0.1352
vn -0.7731 -0.5834 -0.2490
vn -0.9245 -0.3366 -0.1789
vn -0.9746 -0.1735 -0.1417
vn -0.9947 -0.0116 -0.1018
vn -0.9951 0.0761 -0.0628
vn -0.9348 0.3475 0.0734
vn -0.4980 -0.8068 -0.3178
vn 0.0862 -0.9518 -0.2944
vn 0.7547 -0.6520 -0.0729
vn 0.9816 -0.1424 0.1269
vn 0.8922 0.3502 0.2852
vn 0.5140 0.7485 0.4189
vn 0.1064 0.9042 0.4136
vn -0.1981 0.9072 0.3712
vn -0.6177 0.7365 0.2756
vn -0.9932 0.0933 -0.0699
vn -0.7972 -0.5841 -0.1527
vn -0.9375 -0.3386 -0.0804
vn -0.9861 -0.1633 -0.0293
vn -0.9998 -0.0144 0.0124
vn -0.9963 0.0758 0.0405
vn -0.9286 0.3483 0.1278
vn -0.4894 -0.8369 -0.2450
vn 0.0965 -0.9657 -0.2411
vn 0.7481 -0.6616 -0.0517
vn 0.9021 0.3452 0.2588
vn 0.5237 0.7882 0.3233
vn 0.0792 0.9486 0.3063
vn -0.2107 0.9317 0.2959
vn -0.6256 0.7406 0.2452
vn 0.9052 0.4247 -0.0160
vn -0.9327 0.3591 -0.0325
vn -0.7382 -0.6593 -0.1430
vn -0.6328 0.7727 0.0498
vn -0.9125 -0.3787 -0.1545
vn -0.9767 -0.1600 -0.1433
vn 0.5421 0.8383 0.0587
vn -0.9949 0.0265 -0.0975
vn 0.1364 0.9841 0.1137
vn -0.2140 0.9699 0.1159
vn -0.4605 -0.8779 -0.1313
vn 0.1508 -0.9766 -0.1532
vn 0.7521 -0.6455 -0.1331
vn 0.9797 -0.1776 -0.0934
vn 0.9805 -0.1493 0.1278
vn -0.7958 -0.5999 -0.0831
vn -0.9356 -0.3511 -0.0378
vn -0.9870 -0.1608 -0.0070
vn -0.9998 -0.0142 0.0100
vn -0.9966 0.0797 0.0196
vn -0.9260 0.3757 0.0375
vn -0.4824 -0.8662 -0.1306
vn 0.1160 -0.9854 -0.1242
vn 0.7362 -0.6764 -0.0200
vn 0.9848 -0.1496 0.0881
vn 0.9249 0.3520 0.1434
vn 0.5450 0.8272 0.1365
vn 0.0701 0.9918 0.1066
vn -0.2336 0.9681 0.0907
vn -0.6240 0.7790 0.0620
vn -0.2600 0.9575 -0.1252
vn 0.0740 0.9864 -0.1466
vn 0.5336 0.8305 -0.1598
vn 0.8996 0.4097 -0.1512
vn 0.9683 -0.2132 -0.1304
vn 0.7019 -0.7057 -0.0967
vn 0.0330 -0.9952 -0.0923
vn -0.5775 -0.8091 -0.1087
vn -0.9308 0.3570 -0.0781
vn -0.9957 0.0684 -0.0620
vn -0.9960 -0.0562 -0.0695
vn -0.9736 -0.2114 -0.0866
vn -0.9191 -0.3799 -0.1048
vn -0.6350 0.7656 -0.1028
vn -0.8009 -0.5854 -0.1256
vn -0.9222 0.3860 -0.0243
vn -0.9140 0.4023 -0.0531
vn -0.9138 0.4009 -0.0648
vn -0.9176 0.3910 -0.0722
vn -0.9970 0.0766 -0.0090
vn -0.9949 0.0919 -0.0415
vn -0.9922 0.1063 -0.0655
vn -0.9935 0.0922 -0.0669
vn 0.9821 -0.1832 0.0441
vn 0.9815 -0.1893 -0.0276
vn 0.9766 -0.1967 -0.0866
vn 0.9709 -0.2074 -0.1200
vn -0.5368 -0.8407 -0.0711
vn -0.5176 -0.8545 -0.0450
vn -0.4950 -0.8679 -0.0412
vn -0.4778 -0.8767 -0.0561
vn -0.9998 -0.0180 -0.0084
vn -0.9992 -0.0212 -0.0345
vn -0.9977 -0.0224 -0.0644
vn -0.9970 -0.0239 -0.0742
vn -0.9262 -0.3705 -0.0701
vn -0.9149 -0.4010 -0.0469
vn -0.9098 -0.4114 -0.0542
vn -0.9224 -0.3846 -0.0357
vn 0.6991 -0.7061 -0.1123
vn 0.7106 -0.6981 -0.0874
vn 0.7134 -0.6999 -0.0346
vn 0.7142 -0.7000 0.0018
vn 0.0519 -0.9945 -0.0906
vn 0.0526 -0.9964 -0.0668
vn 0.0926 -0.9950 -0.0370
vn 0.0931 -0.9947 -0.0439
vn -0.6116 0.7900 -0.0441
vn -0.6104 0.7904 -0.0514
vn -0.6244 0.7783 -0.0669
vn -0.6244 0.7750 -0.0973
vn 0.9211 0.3685 -0.1255
vn 0.9381 0.3343 -0.0906
vn 0.9474 0.3192 -0.0247
vn 0.9425 0.3289 0.0588
vn -0.7799 -0.6238 -0.0517
vn -0.7880 -0.6132 -0.0550
vn -0.7995 -0.5989 -0.0457
vn -0.8015 -0.5933 -0.0743
vn 0.5542 0.8217 -0.1332
vn 0.5854 0.8044 -0.1014
vn 0.6164 0.7864 -0.0399
vn 0.6035 0.7968 0.0303
vn 0.0577 0.9913 -0.1187
vn 0.0298 0.9955 -0.0902
vn 0.0247 0.9983 -0.0522
vn 0.0455 0.9989 -0.0088
vn -0.9767 -0.2010 -0.0750
vn -0.9701 -0.2349 -0.0605
vn -0.9713 -0.2336 -0.0454
vn -0.9815 -0.1904 -0.0184
vn -0.2771 0.9544 -0.1116
vn -0.2915 0.9534 -0.0774
vn -0.3068 0.9505 -0.0486
vn -0.2825 0.9588 -0.0307
vn -0.2903 0.9546 -0.0662
vn 0.0824 0.9956 -0.0454
vn 0.5896 0.8030 -0.0870
vn 0.9393 0.3187 -0.1272
vn 0.9814 -0.1622 -0.1023
vn 0.7562 -0.6528 -0.0451
vn 0.0464 -0.9988 -0.0170
vn -0.6244 -0.7808 -0.0210
vn -0.9691 0.2209 -0.1096
vn -0.9926 -0.0640 -0.1029
vn -0.9867 -0.1342 -0.0920
vn -0.9725 -0.2182 -0.0811
vn -0.9453 -0.3196 -0.0647
vn -0.7301 0.6764 -0.0974
vn -0.8575 -0.5127 -0.0442
vn 0.9154 0.3792 -0.1354
vn 0.9093 0.3891 -0.1476
vn 0.9250 0.3475 -0.1536
vn 0.9340 0.3327 -0.1302
vn 0.5915 0.8002 -0.0995
vn 0.5594 0.8163 -0.1442
vn 0.5304 0.8330 -0.1575
vn 0.5318 0.8325 -0.1556
vn -0.9430 0.3192 -0.0936
vn -0.9473 0.3043 -0.1001
vn -0.9527 0.2754 -0.1289
vn -0.9620 0.2368 -0.1362
vn -0.9910 -0.0769 -0.1095
vn -0.9916 -0.0827 -0.0995
vn -0.9961 -0.0304 -0.0832
vn -0.9965 0.0198 -0.0812
vn 0.0376 -0.9967 -0.0721
vn 0.0220 -0.9989 -0.0414
vn 0.0247 -0.9993 -0.0263
vn 0.0347 -0.9993 -0.0147
vn 0.7415 -0.6690 -0.0515
vn 0.7250 -0.6863 -0.0581
vn 0.7159 -0.6955 -0.0607
vn 0.7161 -0.6944 -0.0718
vn -0.8218 -0.5608 -0.1007
vn -0.8383 -0.5427 -0.0512
vn -0.8521 -0.5227 -0.0256
vn -0.8531 -0.5213 -0.0201
vn -0.6364 -0.7713 -0.0054
vn -0.6500 -0.7598 -0.0147
vn -0.6441 -0.7645 -0.0279
vn -0.6350 -0.7687 -0.0760
vn -0.9861 -0.1343 -0.0974
vn -0.9751 -0.2001 -0.0956
vn -0.9727 -0.2183 -0.0787
vn -0.9820 -0.1715 -0.0796
vn -0.9692 -0.2397 -0.0574
vn -0.9566 -0.2853 -0.0585
vn -0.9458 -0.3091 -0.0994
vn -0.9528 -0.2822 -0.1120
vn -0.9028 -0.4148 -0.1132
vn -0.9124 -0.4013 -0.0804
vn -0.9289 -0.3682 -0.0395
vn -0.9399 -0.3392 -0.0392
vn 0.9781 -0.1758 -0.1116
vn 0.9719 -0.2016 -0.1212
vn 0.9723 -0.2066 -0.1096
vn 0.9746 -0.1972 -0.1065
vn 0.0862 0.9940 -0.0670
vn 0.0948 0.9880 -0.1218
vn 0.0945 0.9845 -0.1479
vn 0.0892 0.9847 -0.1500
vn -0.6689 0.7338 -0.1190
vn -0.6642 0.7347 -0.1380
vn -0.6815 0.7172 -0.1456
vn -0.7077 0.6940 -0.1324
vn -0.2722 0.9578 -0.0929
vn -0.2541 0.9578 -0.1341
vn -0.2254 0.9629 -0.1486
vn -0.2475 0.9593 -0.1359
vn 0.0996 -0.9683 -0.2291
vn 0.2325 -0.9148 -0.3303
vn 0.3567 -0.7323 -0.5802
vn 0.0814 0.6222 -0.7786
vn 0.0531 -0.9896 -0.1336
vn 0.1600 -0.9823 -0.0974
vn -0.2864 -0.9580 -0.0123
vn -0.2489 -0.9673 0.0479
vn -0.7785 -0.6188 0.1050
vn -0.7775 -0.6101 0.1524
vn -0.9625 -0.0945 0.2541
vn -0.9621 -0.1005 0.2534
vn -0.9251 0.2211 0.3086
vn -0.9260 0.2445 0.2877
vn -0.6831 0.6434 0.3455
vn -0.7459 0.6230 0.2356
vn -0.2046 0.9500 0.2360
vn -0.2209 0.9693 0.1081
vn 0.1542 0.9857 0.0675
vn 0.1826 0.9725 -0.1447
vn 0.1450 0.8729 -0.4659
vn 0.0666 0.9867 -0.1484
vn 0.0270 -0.9822 -0.1861
vn 0.0019 -0.9808 -0.1952
vn -0.0020 -0.9780 -0.2086
vn -0.0244 -0.9862 -0.1638
vn -0.0484 -0.9885 -0.1431
vn 0.0551 0.8601 0.5072
vn 0.0345 0.7991 0.6002
vn 0.0190 0.8208 0.5709
vn 0.0503 0.9520 0.3020
vn 0.0822 0.9822 0.1687
vn -0.1506 -0.9836 -0.0993
vn -0.1157 -0.9868 -0.1132
vn -0.0742 -0.9846 -0.1585
vn -0.0440 -0.9794 -0.1971
vn -0.0016 -0.9888 -0.1495
vn -0.4299 -0.9025 -0.0275
vn -0.4093 -0.9118 -0.0339
vn -0.4013 -0.9129 -0.0741
vn -0.3915 -0.9087 -0.1446
vn -0.3479 -0.9307 -0.1135
vn -0.8088 -0.5796 0.0997
vn -0.8124 -0.5726 0.1106
vn -0.8141 -0.5716 0.1024
vn -0.8114 -0.5817 0.0574
vn -0.8018 -0.5945 0.0604
vn -0.9646 -0.1466 0.2194
vn -0.9659 -0.0970 0.2401
vn -0.9588 -0.0896 0.2695
vn -0.9538 -0.0976 0.2842
vn -0.9590 -0.1015 0.2647
vn -0.9395 0.1855 0.2880
vn -0.9296 0.2165 0.2982
vn -0.9026 0.2450 0.3539
vn -0.8955 0.2286 0.3820
vn -0.9158 0.2148 0.3395
vn -0.6947 0.5938 0.4059
vn -0.6208 0.6465 0.4435
vn -0.5897 0.6231 0.5138
vn -0.6119 0.5817 0.5360
vn -0.6791 0.5915 0.4347
vn -0.1790 0.8516 0.4927
vn -0.1346 0.8323 0.5377
vn -0.1553 0.7739 0.6139
vn -0.1915 0.8013 0.5668
vn -0.2038 0.8994 0.3866
vn 0.0634 0.8520 0.5197
vn 0.0587 0.8083 0.5859
vn 0.0699 0.7902 0.6089
vn 0.0901 0.8987 0.4292
vn 0.1171 0.9668 0.2272
vn 0.4873 -0.8502 -0.1994
vn 0.8783 0.3463 -0.3296
vn 0.2852 -0.9573 -0.0468
vn -0.1916 -0.9744 0.1172
vn -0.7622 -0.6235 0.1738
vn -0.9602 -0.1479 0.2368
vn -0.9362 0.2648 0.2310
vn -0.7446 0.6583 0.1106
vn -0.2863 0.9526 -0.1030
vn 0.1924 0.9296 -0.3144
vn 0.5747 0.7102 -0.4066
vn 0.6176 -0.7844 -0.0576
vn 0.8831 -0.4582 -0.1005
vn 0.9122 0.4067 -0.0494
vn 0.4042 -0.9141 -0.0315
vn -0.1821 -0.9823 -0.0434
vn -0.7500 -0.6607 -0.0317
vn -0.9764 -0.2159 0.0044
vn -0.9389 0.3441 0.0074
vn -0.6149 0.7878 -0.0345
vn -0.1772 0.9825 -0.0581
vn 0.1702 0.9834 -0.0622
vn 0.5922 0.8033 -0.0643
vn -0.9682 -0.1646 0.1887
vn -0.9786 -0.1764 0.1060
vn -0.9460 0.3110 0.0910
vn -0.9427 0.2894 0.1659
vn -0.6755 0.7362 -0.0417
vn -0.7263 0.6871 -0.0191
vn -0.2448 0.9414 -0.2319
vn -0.3193 0.8938 -0.3151
vn 0.9093 0.3682 -0.1939
vn 0.9115 0.3936 -0.1195
vn 0.0830 0.9363 -0.3412
vn 0.1378 0.8747 -0.4647
vn 0.6045 -0.7966 0.0015
vn 0.5934 -0.8041 -0.0361
vn 0.3957 -0.9184 -0.0069
vn 0.3971 -0.9178 0.0043
vn 0.5940 0.6932 -0.4082
vn 0.5626 0.7696 -0.3020
vn -0.1723 -0.9849 0.0183
vn -0.1918 -0.9772 0.0907
vn -0.7596 -0.6480 0.0551
vn -0.7518 -0.6412 0.1538
vn 0.6514 -0.7507 -0.1100
vn 0.8755 -0.4657 -0.1289
vn 0.9812 -0.1527 -0.1177
vn 0.9950 0.0070 -0.0997
vn 0.9896 0.1089 -0.0939
vn 0.9114 0.4030 -0.0838
vn 0.4183 -0.9034 -0.0937
vn -0.1648 -0.9789 -0.1206
vn -0.7297 -0.6738 -0.1163
vn -0.9662 -0.2387 -0.0979
vn -0.9246 0.3718 -0.0829
vn -0.5838 0.8089 -0.0697
vn -0.1741 0.9839 -0.0407
vn 0.1862 0.9820 -0.0304
vn 0.5932 0.8029 -0.0588
vn 0.7631 -0.6039 -0.2301
vn 0.9101 -0.3402 -0.2367
vn 0.9621 -0.1652 -0.2171
vn 0.9832 -0.0020 -0.1826
vn 0.9832 0.0872 -0.1604
vn 0.9351 0.3430 -0.0894
vn 0.4888 -0.8509 -0.1924
vn -0.1330 -0.9770 -0.1668
vn -0.7557 -0.6479 -0.0957
vn -0.9862 -0.1655 0.0059
vn -0.8969 0.4286 0.1089
vn -0.5550 0.8137 0.1731
vn -0.1379 0.9705 0.1980
vn 0.2449 0.9553 0.1657
vn 0.6708 0.7398 0.0521
vn -0.9091 0.3905 -0.1447
vn -0.9028 0.3974 -0.1645
vn -0.9100 0.3933 -0.1310
vn -0.9080 0.4064 -0.1016
vn -0.9024 0.4204 -0.0943
vn -0.9045 0.4228 -0.0551
vn -0.5202 0.8524 0.0532
vn -0.5208 0.8537 -0.0075
vn -0.5278 0.8484 -0.0411
vn -0.5329 0.8446 -0.0510
vn -0.5388 0.8383 -0.0836
vn -0.5551 0.8263 -0.0955
vn 0.9907 0.1066 -0.0850
vn 0.9919 0.1096 -0.0638
vn 0.9919 0.1113 -0.0610
vn 0.9930 0.1163 -0.0215
vn 0.7185 0.1053 -0.6875
vn 0.7355 0.6751 0.0561
vn 0.9996 0.0269 -0.0113
vn 0.9994 0.0081 -0.0333
vn 0.9977 0.0047 -0.0676
vn 0.9978 0.0013 -0.0661
vn 0.9959 0.0022 -0.0909
vn -0.1212 0.9863 0.1119
vn -0.1198 0.9921 0.0378
vn -0.1208 0.9926 -0.0143
vn -0.1182 0.9930 -0.0050
vn -0.1258 0.9916 -0.0306
vn -0.1494 0.9872 -0.0550
vn 0.9114 0.4042 -0.0772
vn 0.9191 0.3900 -0.0558
vn 0.9297 0.3655 -0.0461
vn 0.9248 0.3803 -0.0048
vn 0.9250 0.3793 0.0223
vn 0.9317 0.3614 0.0364
vn 0.2042 0.9716 0.1199
vn 0.1983 0.9786 0.0550
vn 0.1953 0.9807 -0.0016
vn 0.1965 0.9805 0.0060
vn 0.1933 0.9810 -0.0161
vn 0.1842 0.9820 -0.0416
vn 0.6853 -0.7169 -0.1278
vn 0.7187 -0.6837 -0.1264
vn 0.7274 -0.6699 -0.1489
vn 0.7319 -0.6667 -0.1408
vn 0.7293 -0.6767 -0.1011
vn 0.7243 -0.6821 -0.1010
vn 0.4779 -0.8685 -0.1316
vn 0.4938 -0.8565 -0.1503
vn 0.4962 -0.8500 -0.1771
vn 0.4897 -0.8532 -0.1793
vn 0.4751 -0.8682 -0.1435
vn 0.4441 -0.8875 -0.1229
vn 0.5886 0.8063 -0.0577
vn 0.6117 0.7905 -0.0314
vn 0.6273 0.7787 -0.0137
vn 0.6185 0.7858 0.0033
vn 0.6049 0.7938 0.0631
vn 0.6067 0.7895 0.0930
vn -0.1507 -0.9735 -0.1718
vn -0.1587 -0.9650 -0.2088
vn -0.1706 -0.9563 -0.2373
vn -0.1581 -0.9578 -0.2401
vn -0.1594 -0.9640 -0.2129
vn -0.1589 -0.9703 -0.1825
vn -0.7358 -0.6604 -0.1501
vn -0.7243 -0.6634 -0.1877
vn -0.7176 -0.6623 -0.2154
vn -0.7105 -0.6656 -0.2282
vn -0.7073 -0.6672 -0.2334
vn -0.7101 -0.6745 -0.2022
vn 0.8820 -0.4546 -0.1245
vn 0.8914 -0.4411 -0.1039
vn 0.8905 -0.4392 -0.1185
vn 0.8936 -0.4372 -0.1014
vn 0.8976 -0.4372 -0.0572
vn 0.9032 -0.4218 -0.0791
vn -0.9658 -0.2194 -0.1383
vn -0.9568 -0.2347 -0.1714
vn -0.9524 -0.2430 -0.1842
vn -0.9454 -0.2489 -0.2103
vn -0.9412 -0.2471 -0.2305
vn -0.9479 -0.2540 -0.1924
vn 0.9792 -0.1730 -0.1064
vn 0.9827 -0.1678 -0.0789
vn 0.9822 -0.1669 -0.0860
vn 0.9853 -0.1607 -0.0573
vn 0.9872 -0.1588 -0.0166
vn 0.9855 -0.1607 -0.0542
vn 0.7875 -0.5388 -0.2993
vn 0.9064 -0.3210 -0.2745
vn 0.9566 -0.1544 -0.2472
vn 0.9764 -0.0012 -0.2158
vn 0.9791 0.0797 -0.1872
vn 0.9401 0.3320 -0.0770
vn 0.5158 -0.8054 -0.2921
vn -0.0968 -0.9666 -0.2374
vn -0.7560 -0.6503 -0.0741
vn -0.9863 -0.1303 0.1009
vn -0.8898 0.3909 0.2354
vn -0.5607 0.7534 0.3435
vn -0.1367 0.9259 0.3522
vn 0.2353 0.9294 0.2844
vn 0.6707 0.7293 0.1352
vn 0.7731 -0.5834 -0.2490
vn 0.9245 -0.3366 -0.1789
vn 0.9746 -0.1735 -0.1417
vn 0.9947 -0.0116 -0.1018
vn 0.9951 0.0761 -0.0628
vn 0.9348 0.3475 0.0734
vn 0.4980 -0.8068 -0.3178
vn -0.0862 -0.9518 -0.2944
vn -0.7547 -0.6520 -0.0729
vn -0.9816 -0.1424 0.1269
vn -0.8922 0.3502 0.2852
vn -0.5140 0.7485 0.4189
vn -0.1064 0.9042 0.4136
vn 0.1981 0.9072 0.3712
vn 0.6177 0.7365 0.2756
vn 0.9932 0.0933 -0.0699
vn 0.7972 -0.5841 -0.1527
vn 0.9375 -0.3386 -0.0804
vn 0.9861 -0.1633 -0.0293
vn 0.9998 -0.0144 0.0124
vn 0.9963 0.0758 0.0405
vn 0.9286 0.3483 0.1278
vn 0.4894 -0.8369 -0.2450
vn -0.0965 -0.9657 -0.2411
vn -0.7481 -0.6616 -0.0517
vn -0.9021 0.3452 0.2588
vn -0.5237 0.7882 0.3233
vn -0.0792 0.9486 0.3063
vn 0.2107 0.9317 0.2959
vn 0.6256 0.7406 0.2452
vn -0.9052 0.4247 -0.0160
vn 0.9327 0.3591 -0.0325
vn 0.7382 -0.6593 -0.1430
vn 0.6328 0.7727 0.0498
vn 0.9125 -0.3787 -0.1545
vn 0.9767 -0.1600 -0.1433
vn -0.5421 0.8383 0.0587
vn 0.9949 0.0265 -0.0975
vn -0.1364 0.9841 0.1137
vn 0.2140 0.9699 0.1159
vn 0.4605 -0.8779 -0.1313
vn -0.1508 -0.9766 -0.1532
vn -0.7521 -0.6455 -0.1331
vn -0.9797 -0.1776 -0.0934
vn -0.9805 -0.1493 0.1278
vn 0.7958 -0.5999 -0.0831
vn 0.9356 -0.3511 -0.0378
vn 0.9870 -0.1608 -0.0070
vn 0.9998 -0.0142 0.0100
vn 0.9966 0.0797 0.0196
vn 0.9260 0.3757 0.0375
vn 0.4824 -0.8662 -0.1306
vn -0.1160 -0.9854 -0.1242
vn -0.7362 -0.6764 -0.0200
vn -0.9848 -0.1496 0.0881
vn -0.9249 0.3520 0.1434
vn -0.5450 0.8272 0.1365
vn -0.0701 0.9918 0.1066
vn 0.2336 0.9681 0.0907
vn 0.6240 0.7790 0.0620
vn 0.2600 0.9575 -0.1252
vn -0.0740 0.9864 -0.1466
vn -0.5336 0.8305 -0.1598
vn -0.8996 0.4097 -0.1512
vn -0.9683 -0.2132 -0.1304
vn -0.7019 -0.7057 -0.0967
vn -0.0330 -0.9952 -0.0923
vn 0.5775 -0.8091 -0.1087
vn 0.9308 0.3570 -0.0781
vn 0.9957 0.0684 -0.0620
vn 0.9960 -0.0562 -0.0695
vn 0.9735 -0.2114 -0.0866
vn 0.9191 -0.3799 -0.1048
vn 0.6350 0.7656 -0.1028
vn 0.8009 -0.5854 -0.1256
vn 0.9222 0.3860 -0.0243
vn 0.9140 0.4023 -0.0531
vn 0.9138 0.4009 -0.0648
vn 0.9176 0.3910 -0.0722
vn 0.9970 0.0766 -0.0090
vn 0.9949 0.0919 -0.0415
vn 0.9922 0.1063 -0.0655
vn 0.9935 0.0922 -0.0669
vn -0.9821 -0.1832 0.0441
vn -0.9815 -0.1893 -0.0276
vn -0.9766 -0.1967 -0.0866
vn -0.9709 -0.2074 -0.1200
vn 0.5368 -0.8407 -0.0711
vn 0.5176 -0.8545 -0.0450
vn 0.4950 -0.8679 -0.0412
vn 0.4778 -0.8767 -0.0561
vn 0.9998 -0.0180 -0.0084
vn 0.9992 -0.0212 -0.0345
vn 0.9977 -0.0224 -0.0644
vn 0.9970 -0.0239 -0.0742
vn 0.9262 -0.3705 -0.0701
vn 0.9149 -0.4010 -0.0469
vn 0.9098 -0.4114 -0.0542
vn 0.9224 -0.3846 -0.0357
vn -0.6991 -0.7061 -0.1123
vn -0.7106 -0.6981 -0.0874
vn -0.7134 -0.6999 -0.0346
vn -0.7142 -0.7000 0.0018
vn -0.0519 -0.9945 -0.0906
vn -0.0526 -0.9964 -0.0668
vn -0.0926 -0.9950 -0.0370
vn -0.0931 -0.9947 -0.0439
vn 0.6116 0.7900 -0.0441
vn 0.6104 0.7904 -0.0514
vn 0.6244 0.7783 -0.0669
vn 0.6244 0.7750 -0.0973
vn -0.9211 0.3685 -0.1255
vn -0.9381 0.3343 -0.0906
vn -0.9474 0.3192 -0.0247
vn -0.9425 0.3289 0.0588
vn 0.7799 -0.6238 -0.0517
vn 0.7880 -0.6132 -0.0550
vn 0.7995 -0.5989 -0.0457
vn 0.8015 -0.5933 -0.0743
vn -0.5542 0.8217 -0.1332
vn -0.5854 0.8044 -0.1014
vn -0.6164 0.7864 -0.0399
vn -0.6035 0.7968 0.0303
vn -0.0577 0.9913 -0.1187
vn -0.0298 0.9955 -0.0902
vn -0.0247 0.9983 -0.0522
vn -0.0455 0.9989 -0.0088
vn 0.9767 -0.2010 -0.0750
vn 0.9701 -0.2349 -0.0605
vn 0.9713 -0.2336 -0.0454
vn 0.9815 -0.1904 -0.0184
vn 0.2771 0.9544 -0.1116
vn 0.2915 0.9534 -0.0774
vn 0.3068 0.9505 -0.0486
vn 0.2825 0.9588 -0.0307
vn 0.2903 0.9546 -0.0662
vn -0.0824 0.9956 -0.0454
vn -0.5896 0.8030 -0.0870
vn -0.9393 0.3187 -0.1272
vn -0.9814 -0.1622 -0.1023
vn -0.7562 -0.6528 -0.0451
vn -0.0464 -0.9988 -0.0170
vn 0.6244 -0.7808 -0.0210
vn 0.9691 0.2209 -0.1096
vn 0.9926 -0.0640 -0.1029
vn 0.9867 -0.1342 -0.0920
vn 0.9725 -0.2182 -0.0811
vn 0.9453 -0.3196 -0.0647
vn 0.7301 0.6764 -0.0974
vn 0.8575 -0.5127 -0.0442
vn -0.9154 0.3792 -0.1354
vn -0.9093 0.3891 -0.1476
vn -0.9250 0.3475 -0.1536
vn -0.9340 0.3327 -0.1302
vn -0.5915 0.8002 -0.0995
vn -0.5594 0.8163 -0.1442
vn -0.5304 0.8330 -0.1575
vn -0.5318 0.8325 -0.1556
vn 0.9430 0.3192 -0.0936
vn 0.9473 0.3043 -0.1001
vn 0.9527 0.2754 -0.1289
vn 0.9620 0.2368 -0.1362
vn 0.9910 -0.0769 -0.1096
vn 0.9916 -0.0827 -0.0995
vn 0.9961 -0.0304 -0.0832
vn 0.9965 0.0198 -0.0812
vn -0.0376 -0.9967 -0.0721
vn -0.0220 -0.9989 -0.0414
vn -0.0247 -0.9993 -0.0263
vn -0.0347 -0.9993 -0.0147
vn -0.7415 -0.6690 -0.0515
vn -0.7250 -0.6863 -0.0581
vn -0.7159 -0.6955 -0.0607
vn -0.7161 -0.6944 -0.0718
vn 0.8218 -0.5608 -0.1007
vn 0.8383 -0.5427 -0.0512
vn 0.8521 -0.5227 -0.0256
vn 0.8531 -0.5213 -0.0201
vn 0.6364 -0.7713 -0.0054
vn 0.6500 -0.7598 -0.0147
vn 0.6441 -0.7645 -0.0279
vn 0.6350 -0.7687 -0.0760
vn 0.9861 -0.1343 -0.0974
vn 0.9751 -0.2001 -0.0956
vn 0.9727 -0.2183 -0.0787
vn 0.9820 -0.1715 -0.0796
vn 0.9692 -0.2397 -0.0574
vn 0.9566 -0.2853 -0.0585
vn 0.9458 -0.3091 -0.0994
vn 0.9528 -0.2822 -0.1120
vn 0.9028 -0.4148 -0.1132
vn 0.9124 -0.4013 -0.0804
vn 0.9289 -0.3682 -0.0395
vn 0.9399 -0.3392 -0.0392
vn -0.9781 -0.1758 -0.1116
vn -0.9719 -0.2016 -0.1212
vn -0.9723 -0.2066 -0.1096
vn -0.9746 -0.1972 -0.1065
vn -0.0862 0.9940 -0.0670
vn -0.0948 0.9880 -0.1218
vn -0.0945 0.9845 -0.1479
vn -0.0892 0.9847 -0.1500
vn 0.6689 0.7338 -0.1190
vn 0.6642 0.7347 -0.1380
vn 0.6815 0.7172 -0.1456
vn 0.7077 0.6940 -0.1324
vn 0.2722 0.9578 -0.0929
vn 0.2541 0.9578 -0.1341
vn 0.2254 0.9629 -0.1486
vn 0.2475 0.9593 -0.1359
vt 0.125000 0.500000
vt 0.104167 0.416667
vt 0.135417 0.500000
vt 0.145833 0.500000
vt 0.156250 0.500000
vt 0.104167 0.583333
vt 0.020833 0.083333
vt 0.020833 0.916667
vt 0.041667 0.833333
vt 0.041667 0.166667
vt 0.062500 0.750000
vt 0.062500 0.250000
vt 0.083333 0.666667
vt 0.083333 0.333333
vt 0.281250 0.500000
vt 0.250000 0.500000
vt 0.218750 0.500000
vt 0.187500 0.500000
vt 0.229167 0.500000
vt 0.208333 0.500000
vt 0.187500 0.500000
vt 0.166667 0.500000
vt 0.177083 0.500000
vt 0.166667 0.500000
vt 0.156250 0.500000
vt 0.125000 0.500000
vt 0.125000 0.500000
vt 0.125000 0.500000
vt 0.125000 0.500000
vt 0.125000 0.500000
vt 0.125000 0.500000
vt 0.125000 0.500000
vt 0.125000 0.500000
vt 0.000000 0.000000
s 1
usemtl bottom_M
f 40/1/39 39/1/38 1/1/1 2/1/2
f 2/1/2 1/1/1 3/1/3 4/1/4
f 4/1/4 3/1/3 5/1/5 6/1/6
f 6/1/6 5/1/5 7/1/7 8/1/8
f 8/1/8 7/1/7 9/1/9 10/1/9
f 10/1/9 9/1/9 11/1/10 12/1/11
f 12/1/11 11/1/10 13/1/12 14/1/13
f 2/1/2 4/1/4 17/1/16 16/1/15
f 16/1/15 17/1/16 19/1/18 18/1/17
f 18/1/17 19/1/18 21/1/20 20/1/19
f 20/1/19 21/1/20 23/1/22 22/1/21
f 22/1/21 23/1/22 25/1/24 24/1/23
f 24/1/23 25/1/24 27/1/26 26/1/25
f 26/1/25 27/1/26 29/1/28 28/1/27
f 28/1/27 29/1/28 31/1/30 30/1/29
f 14/1/13 13/1/12 15/1/14 32/1/31
f 32/1/31 15/1/14 33/1/32 34/1/33
f 49/2/48 34/1/33 33/1/32 54/2/53
f 31/1/30 32/1/31 34/1/33 30/1/29
f 40/1/39 2/1/2 16/1/15 59/3/58
f 59/3/58 16/1/15 18/1/17 64/4/63
f 64/4/63 18/1/17 20/1/19 69/5/68
f 69/5/68 20/1/19 22/1/21 74/6/73
f 74/6/73 22/1/21 24/1/23 79/6/78
f 79/6/78 24/1/23 26/1/25 84/6/83
f 84/6/83 26/1/25 28/1/27 89/6/88
f 89/6/88 28/1/27 30/1/29 94/6/93
f 49/2/48 94/6/93 30/1/29 34/1/33
f 45/7/44 90/8/89 91/9/90 46/10/45
f 46/10/45 91/9/90 92/11/91 47/12/46
f 47/12/46 92/11/91 93/13/92 48/14/47
f 48/14/47 93/13/92 94/6/93 49/2/48
f 85/8/84 86/9/85 91/9/90 90/8/89
f 86/9/85 87/11/86 92/11/91 91/9/90
f 87/11/86 88/13/87 93/13/92 92/11/91
f 88/13/87 89/6/88 94/6/93 93/13/92
f 80/8/79 81/9/80 86/9/85 85/8/84
f 81/9/80 82/11/81 87/11/86 86/9/85
f 82/11/81 83/13/82 88/13/87 87/11/86
f 83/13/82 84/6/83 89/6/88 88/13/87
f 75/8/74 76/9/75 81/9/80 80/8/79
f 76/9/75 77/11/76 82/11/81 81/9/80
f 77/11/76 78/13/77 83/13/82 82/11/81
f 78/13/77 79/6/78 84/6/83 83/13/82
f 70/8/69 71/9/70 76/9/75 75/8/74
f 71/9/70 72/11/71 77/11/76 76/9/75
f 72/11/71 73/13/72 78/13/77 77/11/76
f 73/13/72 74/6/73 79/6/78 78/13/77
f 65/15/64 66/16/65 71/9/70 70/8/69
f 66/16/65 67/17/66 72/11/71 71/9/70
f 67/17/66 68/18/67 73/13/72 72/11/71
f 68/18/67 69/5/68 74/6/73 73/13/72
f 60/19/59 61/20/60 66/16/65 65/15/64
f 61/20/60 62/21/61 67/17/66 66/16/65
f 62/21/61 63/22/62 68/18/67 67/17/66
f 63/22/62 64/4/63 69/5/68 68/18/67
f 55/23/54 56/24/55 61/20/60 60/19/59
f 56/24/55 57/25/56 62/21/61 61/20/60
f 57/25/56 58/4/57 63/22/62 62/21/61
f 58/4/57 59/3/58 64/4/63 63/22/62
f 44/1/43 43/1/42 56/24/55 55/23/54
f 43/1/42 42/26/41 57/25/56 56/24/55
f 42/26/41 41/26/40 58/4/57 57/25/56
f 41/26/40 40/1/39 59/3/58 58/4/57
f 45/7/44 46/10/45 51/10/50 50/7/49
f 46/10/45 47/12/46 52/12/51 51/10/50
f 47/12/46 48/14/47 53/14/52 52/12/51
f 48/14/47 49/2/48 54/2/53 53/14/52
f 44/1/43 35/1/34 36/26/35 43/1/42
f 43/1/42 36/26/35 37/26/36 42/26/41
f 42/26/41 37/26/36 38/1/37 41/26/40
f 41/26/40 38/1/37 39/1/38 40/1/39
f 25/1/24 23/1/22 104/1/103 105/1/104
f 12/1/11 14/1/13 100/1/99 99/1/98
f 21/1/20 19/1/18 102/1/101 103/1/102
f 31/1/30 29/1/28 107/1/106 108/1/107
f 8/1/8 10/1/9 98/1/97 97/1/96
f 17/1/16 4/1/4 95/1/94 101/1/100
f 27/1/26 25/1/24 105/1/104 106/1/105
f 4/1/4 6/1/6 96/1/95 95/1/94
f 23/1/22 21/1/20 103/1/102 104/1/103
f 32/1/31 31/1/30 108/1/107 109/1/108
f 10/1/9 12/1/11 99/1/98 98/1/97
f 19/1/18 17/1/16 101/1/100 102/1/101
f 29/1/28 27/1/26 106/1/105 107/1/106
f 14/1/13 32/1/31 109/1/108 100/1/99
f 6/1/6 8/1/8 97/1/96 96/1/95
f 127/1/125 126/1/124 112/1/111 111/1/110
f 131/27/129 130/27/128 119/1/118 120/1/119
f 126/1/124 134/28/97 113/1/112 112/1/111
f 135/29/131 131/27/129 120/1/119 121/1/120
f 134/28/97 138/1/134 114/1/113 113/1/112
f 139/29/135 135/29/131 121/1/120 122/1/121
f 138/1/134 142/30/138 115/1/114 114/1/113
f 143/1/139 139/29/135 122/1/121 123/1/122
f 147/31/143 146/27/142 110/1/109 116/1/115
f 142/30/138 150/1/146 124/1/123 115/1/114
f 151/1/147 147/31/143 116/1/115 117/1/116
f 150/1/146 143/1/139 123/1/122 124/1/123
f 153/1/149 151/1/147 117/1/116 118/1/117
f 146/27/142 127/1/125 111/1/110 110/1/109
f 130/27/128 153/1/149 118/1/117 119/1/118
f 104/1/103 103/1/102 154/1/150 129/28/127
f 129/28/127 154/1/150 153/1/149 130/27/128
f 95/1/94 96/1/95 128/1/126 145/31/141
f 145/31/141 128/1/126 127/1/125 146/27/142
f 103/1/102 102/1/101 152/29/148 154/1/150
f 154/1/150 152/29/148 151/1/147 153/1/149
f 109/1/108 108/1/107 144/29/140 149/32/145
f 149/32/145 144/29/140 143/1/139 150/1/146
f 102/1/101 101/1/100 148/32/144 152/29/148
f 152/29/148 148/32/144 147/31/143 151/1/147
f 100/1/99 109/1/108 149/32/145 141/30/137
f 141/30/137 149/32/145 150/1/146 142/30/138
f 101/1/100 95/1/94 145/31/141 148/32/144
f 148/32/144 145/31/141 146/27/142 147/31/143
f 108/1/107 107/1/106 140/29/136 144/29/140
f 144/29/140 140/29/136 139/29/135 143/1/139
f 99/1/98 100/1/99 141/30/137 137/1/133
f 137/1/133 141/30/137 142/30/138 138/1/134
f 107/1/106 106/1/105 136/27/132 140/29/136
f 140/29/136 136/27/132 135/29/131 139/29/135
f 98/1/97 99/1/98 137/1/133 133/1/97
f 133/1/97 137/1/133 138/1/134 134/28/97
f 106/1/105 105/1/104 132/33/130 136/27/132
f 136/27/132 132/33/130 131/27/129 135/29/131
f 97/1/96 98/1/97 133/1/97 125/1/97
f 125/1/97 133/1/97 134/28/97 126/1/124
f 105/1/104 104/1/103 129/28/127 132/33/130
f 132/33/130 129/28/127 130/27/128 131/27/129
f 96/1/95 97/1/96 125/1/97 128/1/126
f 128/1/126 125/1/97 126/1/124 127/1/125
f 119/1/118 118/1/117 163/1/159 164/1/160
f 111/1/110 112/1/111 157/1/153 156/1/152
f 325/28/321 319/26/315 180/1/176 181/1/177
f 120/1/119 119/1/118 164/1/160 165/1/161
f 112/1/111 113/1/112 158/1/154 157/1/153
f 121/1/120 120/1/119 165/1/161 166/1/162
f 113/1/112 114/1/113 159/1/155 158/1/154
f 122/1/121 121/1/120 166/1/162 167/1/163
f 114/1/113 115/1/114 160/1/156 159/1/155
f 123/1/122 122/1/121 167/1/163 168/1/164
f 116/1/115 110/1/109 155/1/151 161/1/157
f 115/1/114 124/1/123 169/1/165 160/1/156
f 117/1/116 116/1/115 161/1/157 162/1/158
f 124/1/123 123/1/122 168/1/164 169/1/165
f 118/1/117 117/1/116 162/1/158 163/1/159
f 110/1/109 111/1/110 156/1/152 155/1/151
f 326/1/322 304/31/300 174/1/170 173/1/169
f 327/33/323 325/28/321 181/1/177 182/1/178
f 304/31/300 320/33/316 175/1/171 174/1/170
f 328/27/324 327/33/323 182/1/178 183/1/179
f 329/27/325 321/27/317 170/1/166 176/1/172
f 320/33/316 322/1/318 184/1/180 175/1/171
f 330/26/326 329/27/325 176/1/172 177/1/173
f 322/1/318 328/27/324 183/1/179 184/1/180
f 331/27/327 330/26/326 177/1/173 178/1/174
f 321/27/317 323/1/319 171/1/167 170/1/166
f 332/1/328 331/27/327 178/1/174 179/1/175
f 323/1/319 324/1/320 172/1/168 171/1/167
f 319/26/315 332/1/328 179/1/175 180/1/176
f 324/1/320 326/1/322 173/1/169 172/1/168
f 157/1/153 158/1/154 207/27/203 268/1/264
f 268/1/264 207/27/203 206/1/202 269/1/265
f 269/1/265 206/1/202 205/29/201 270/1/266
f 270/1/266 205/29/201 204/1/200 271/26/267
f 271/26/267 204/1/200 203/31/199 272/1/268
f 272/1/268 203/31/199 202/1/198 273/1/269
f 165/1/161 164/1/160 267/27/263 185/1/181
f 185/1/181 267/27/263 266/28/262 186/27/182
f 186/27/182 266/28/262 265/1/261 187/33/183
f 187/33/183 265/1/261 264/1/260 188/29/184
f 188/29/184 264/1/260 263/1/259 189/33/185
f 189/33/185 263/1/259 262/1/258 190/1/186
f 156/1/152 157/1/153 268/1/264 256/1/252
f 256/1/252 268/1/264 269/1/265 257/27/253
f 257/27/253 269/1/265 270/1/266 258/1/254
f 258/1/254 270/1/266 271/26/267 259/31/255
f 259/31/255 271/26/267 272/1/268 260/31/256
f 260/31/256 272/1/268 273/1/269 261/1/257
f 164/1/160 163/1/159 255/1/251 267/27/263
f 267/27/263 255/1/251 254/26/250 266/28/262
f 266/28/262 254/26/250 253/1/249 265/1/261
f 265/1/261 253/1/249 252/26/248 264/1/260
f 264/1/260 252/26/248 251/1/247 263/1/259
f 263/1/259 251/1/247 250/1/246 262/1/258
f 155/1/151 156/1/152 256/1/252 226/1/222
f 226/1/222 256/1/252 257/27/253 227/28/223
f 227/28/223 257/27/253 258/1/254 228/1/224
f 228/1/224 258/1/254 259/31/255 229/1/225
f 229/1/225 259/31/255 260/31/256 230/27/226
f 230/27/226 260/31/256 261/1/257 231/1/227
f 163/1/159 162/1/158 249/27/245 255/1/251
f 255/1/251 249/27/245 248/1/244 254/26/250
f 254/26/250 248/1/244 247/33/243 253/1/249
f 253/1/249 247/33/243 246/26/242 252/26/248
f 252/26/248 246/26/242 245/1/241 251/1/247
f 251/1/247 245/1/241 244/1/240 250/1/246
f 169/1/165 168/1/164 225/26/221 238/1/234
f 238/1/234 225/26/221 224/1/220 239/27/235
f 239/27/235 224/1/220 223/1/219 240/1/236
f 240/1/236 223/1/219 222/33/218 241/26/237
f 241/26/237 222/33/218 221/1/217 242/26/238
f 242/26/238 221/1/217 220/1/216 243/1/239
f 162/1/158 161/1/157 237/1/233 249/27/245
f 249/27/245 237/1/233 236/1/232 248/1/244
f 248/1/244 236/1/232 235/31/231 247/33/243
f 247/33/243 235/31/231 234/1/230 246/26/242
f 246/26/242 234/1/230 233/31/229 245/1/241
f 245/1/241 233/31/229 232/1/228 244/1/240
f 160/1/156 169/1/165 238/1/234 214/28/210
f 214/28/210 238/1/234 239/27/235 215/31/211
f 215/31/211 239/27/235 240/1/236 216/30/212
f 216/30/212 240/1/236 241/26/237 217/1/213
f 217/1/213 241/26/237 242/26/238 218/1/214
f 218/1/214 242/26/238 243/1/239 219/28/215
f 161/1/157 155/1/151 226/1/222 237/1/233
f 237/1/233 226/1/222 227/28/223 236/1/232
f 236/1/232 227/28/223 228/1/224 235/31/231
f 235/31/231 228/1/224 229/1/225 234/1/230
f 234/1/230 229/1/225 230/27/226 233/31/229
f 233/31/229 230/27/226 231/1/227 232/1/228
f 168/1/164 167/1/163 213/1/209 225/26/221
f 225/26/221 213/1/209 212/27/208 224/1/220
f 224/1/220 212/27/208 211/1/207 223/1/219
f 223/1/219 211/1/207 210/1/206 222/33/218
f 222/33/218 210/1/206 209/27/205 221/1/217
f 221/1/217 209/27/205 208/33/204 220/1/216
f 159/1/155 160/1/156 214/28/210 197/33/193
f 197/33/193 214/28/210 215/31/211 198/1/194
f 198/1/194 215/31/211 216/30/212 199/33/195
f 199/33/195 216/30/212 217/1/213 200/30/196
f 200/30/196 217/1/213 218/1/214 201/27/197
f 167/1/163 166/1/162 196/26/192 213/1/209
f 213/1/209 196/26/192 195/27/191 212/27/208
f 212/27/208 195/27/191 194/1/190 211/1/207
f 211/1/207 194/1/190 193/26/189 210/1/206
f 210/1/206 193/26/189 192/26/188 209/27/205
f 209/27/205 192/26/188 191/26/187 208/33/204
f 158/1/154 159/1/155 197/33/193 207/27/203
f 207/27/203 197/33/193 198/1/194 206/1/202
f 206/1/202 198/1/194 199/33/195 205/29/201
f 205/29/201 199/33/195 200/30/196 204/1/200
f 204/1/200 200/30/196 201/27/197 203/31/199
f 166/1/162 165/1/161 185/1/181 196/26/192
f 196/26/192 185/1/181 186/27/182 195/27/191
f 195/27/191 186/27/182 187/33/183 194/1/190
f 194/1/190 187/33/183 188/29/184 193/26/189
f 193/26/189 188/29/184 189/33/185 192/26/188
f 192/26/188 189/33/185 190/1/186 191/26/187
f 180/1/176 179/1/175 283/1/279 284/1/280
f 172/1/168 173/1/169 277/1/273 276/1/272
f 181/1/177 180/1/176 284/1/280 285/1/281
f 173/1/169 174/1/170 278/1/274 277/1/273
f 182/1/178 181/1/177 285/1/281 286/1/282
f 174/1/170 175/1/171 279/1/275 278/1/274
f 183/1/179 182/1/178 286/1/282 287/1/283
f 170/1/166 171/1/167 275/1/271 274/1/270
f 176/1/172 170/1/166 274/1/270 280/1/276
f 175/1/171 184/1/180 288/1/284 279/1/275
f 177/1/173 176/1/172 280/1/276 281/1/277
f 184/1/180 183/1/179 287/1/283 288/1/284
f 178/1/174 177/1/173 281/1/277 282/1/278
f 171/1/167 172/1/168 276/1/272 275/1/271
f 179/1/175 178/1/174 282/1/278 283/1/279
f 281/1/277 280/1/276 295/1/291 296/1/292
f 288/1/284 287/1/283 302/1/298 303/1/299
f 282/1/278 281/1/277 296/1/292 297/1/293
f 275/1/271 276/1/272 291/1/287 290/1/286
f 283/1/279 282/1/278 297/1/293 298/1/294
f 274/1/270 275/1/271 290/1/286 289/1/285
f 284/1/280 283/1/279 298/1/294 299/1/295
f 276/1/272 277/1/273 292/1/288 291/1/287
f 285/1/281 284/1/280 299/1/295 300/1/296
f 277/1/273 278/1/274 293/1/289 292/1/288
f 286/1/282 285/1/281 300/1/296 301/1/297
f 278/1/274 279/1/275 294/1/290 293/1/289
f 287/1/283 286/1/282 301/1/297 302/1/298
f 280/1/276 274/1/270 289/1/285 295/1/291
f 279/1/275 288/1/284 303/1/299 294/1/290
f 294/1/290 303/1/299 318/1/314 310/1/306
f 273/1/269 202/1/198 326/1/322 324/1/320
f 296/1/292 295/1/291 311/1/307 312/1/308
f 303/1/299 302/1/298 317/1/313 318/1/314
f 297/1/293 296/1/292 312/1/308 313/1/309
f 290/1/286 291/1/287 307/1/303 306/1/302
f 298/1/294 297/1/293 313/1/309 333/1/329
f 289/1/285 290/1/286 306/1/302 305/1/301
f 190/1/186 262/1/258 332/1/328 319/26/315
f 299/1/295 298/1/294 333/1/329 314/1/310
f 291/1/287 292/1/288 308/1/304 307/1/303
f 300/1/296 299/1/295 314/1/310 315/1/311
f 292/1/288 293/1/289 309/1/305 308/1/304
f 301/1/297 300/1/296 315/1/311 316/1/312
f 293/1/289 294/1/290 310/1/306 309/1/305
f 302/1/298 301/1/297 316/1/312 317/1/313
f 295/1/291 289/1/285 305/1/301 311/1/307
f 261/1/257 273/1/269 324/1/320 323/1/319
f 262/1/258 250/1/246 331/27/327 332/1/328
f 231/1/227 261/1/257 323/1/319 321/27/317
f 250/1/246 244/1/240 330/26/326 331/27/327
f 243/1/239 220/1/216 328/27/324 322/1/318
f 244/1/240 232/1/228 329/27/325 330/26/326
f 219/28/215 243/1/239 322/1/318 320/33/316
f 232/1/228 231/1/227 321/27/317 329/27/325
f 220/1/216 208/33/204 327/33/323 328/27/324
f 208/33/204 191/26/187 325/28/321 327/33/323
f 191/26/187 190/1/186 319/26/315 325/28/321
f 312/1/308 311/1/307 340/1/336 341/1/337
f 311/1/307 305/1/301 334/1/330 340/1/336
f 309/1/305 310/1/306 339/1/335 338/1/334
f 308/1/304 309/1/305 338/1/334 337/1/333
f 307/1/303 308/1/304 337/1/333 336/1/332
f 305/1/301 306/1/302 335/1/331 334/1/330
f 318/1/314 317/1/313 347/1/343 348/1/344
f 306/1/302 307/1/303 336/1/332 335/1/331
f 310/1/306 318/1/314 348/1/344 339/1/335
f 317/1/313 316/1/312 346/1/342 347/1/343
f 316/1/312 315/1/311 345/1/341 346/1/342
f 315/1/311 314/1/310 344/1/340 345/1/341
f 314/1/310 333/1/329 343/1/339 344/1/340
f 333/1/329 313/1/309 342/1/338 343/1/339
f 313/1/309 312/1/308 341/1/337 342/1/338
f 376/26/372 407/1/403 363/1/359 356/1/352
f 416/26/412 383/1/379 359/1/355 360/1/356
f 407/1/403 384/26/380 361/1/357 363/1/359
f 400/26/396 375/1/371 353/1/349 352/1/348
f 375/1/371 388/26/384 354/1/350 353/1/349
f 408/26/404 400/26/396 352/1/348 351/1/347
f 420/26/416 412/26/408 350/1/346 349/1/345
f 383/1/379 371/1/367 358/1/354 359/1/355
f 412/26/408 408/26/404 351/1/347 350/1/346
f 371/1/367 367/1/363 357/1/353 358/1/354
f 388/26/384 392/26/388 355/1/351 354/1/350
f 367/1/363 399/1/395 362/1/358 357/1/353
f 399/1/395 420/26/416 349/1/345 362/1/358
f 392/26/388 376/26/372 356/1/352 355/1/351
f 384/26/380 416/26/412 360/1/356 361/1/357
f 335/1/331 336/1/332 419/1/415 387/1/383
f 387/1/383 419/1/415 418/1/414 386/1/382
f 386/1/382 418/1/414 417/26/413 385/26/381
f 385/26/381 417/26/413 416/26/412 384/26/380
f 341/1/337 340/1/336 379/1/375 395/1/391
f 395/1/391 379/1/375 378/1/374 394/1/390
f 394/1/390 378/1/374 377/26/373 393/26/389
f 393/26/389 377/26/373 376/26/372 392/26/388
f 348/1/344 347/1/343 423/1/419 396/26/392
f 396/26/392 423/1/419 422/1/418 397/26/393
f 397/26/393 422/1/418 421/26/417 398/1/394
f 398/1/394 421/26/417 420/26/416 399/1/395
f 339/1/335 348/1/344 396/26/392 364/26/360
f 364/26/360 396/26/392 397/26/393 365/26/361
f 365/26/361 397/26/393 398/1/394 366/1/362
f 366/1/362 398/1/394 399/1/395 367/1/363
f 342/1/338 341/1/337 395/1/391 391/1/387
f 391/1/387 395/1/391 394/1/390 390/1/386
f 390/1/386 394/1/390 393/26/389 389/26/385
f 389/26/385 393/26/389 392/26/388 388/26/384
f 338/1/334 339/1/335 364/26/360 368/26/364
f 368/26/364 364/26/360 365/26/361 369/26/365
f 369/26/365 365/26/361 366/1/362 370/1/366
f 370/1/366 366/1/362 367/1/363 371/1/367
f 346/1/342 345/1/341 411/1/407 415/1/411
f 415/1/411 411/1/407 410/1/406 414/1/410
f 414/1/410 410/1/406 409/26/405 413/26/409
f 413/26/409 409/26/405 408/26/404 412/26/408
f 337/1/333 338/1/334 368/26/364 380/26/376
f 380/26/376 368/26/364 369/26/365 381/26/377
f 381/26/377 369/26/365 370/1/366 382/1/378
f 382/1/378 370/1/366 371/1/367 383/1/379
f 347/1/343 346/1/342 415/1/411 423/1/419
f 423/1/419 415/1/411 414/1/410 422/1/418
f 422/1/418 414/1/410 413/26/409 421/26/417
f 421/26/417 413/26/409 412/26/408 420/26/416
f 345/1/341 344/1/340 403/1/399 411/1/407
f 411/1/407 403/1/399 402/1/398 410/1/406
f 410/1/406 402/1/398 401/26/397 409/26/405
f 409/26/405 401/26/397 400/26/396 408/26/404
f 343/1/339 342/1/338 391/1/387 372/26/368
f 372/26/368 391/1/387 390/1/386 373/26/369
f 373/26/369 390/1/386 389/26/385 374/1/370
f 374/1/370 389/26/385 388/26/384 375/1/371
f 344/1/340 343/1/339 372/26/368 403/1/399
f 403/1/399 372/26/368 373/26/369 402/1/398
f 402/1/398 373/26/369 374/1/370 401/26/397
f 401/26/397 374/1/370 375/1/371 400/26/396
f 334/1/330 335/1/331 387/1/383 404/26/400
f 404/26/400 387/1/383 386/1/382 405/26/401
f 405/26/401 386/1/382 385/26/381 406/1/402
f 406/1/402 385/26/381 384/26/380 407/1/403
f 336/1/332 337/1/333 380/26/376 419/1/415
f 419/1/415 380/26/376 381/26/377 418/1/414
f 418/1/414 381/26/377 382/1/378 417/26/413
f 417/26/413 382/1/378 383/1/379 416/26/412
f 340/1/336 334/1/330 404/26/400 379/1/375
f 379/1/375 404/26/400 405/26/401 378/1/374
f 378/1/374 405/26/401 406/1/402 377/26/373
f 377/26/373 406/1/402 407/1/403 376/26/372
f 443/1/439 442/1/438 427/1/423 426/1/422
f 451/31/447 450/27/446 432/1/428 433/1/429
f 459/1/455 458/27/454 430/1/426 429/1/425
f 467/1/463 466/1/462 438/1/434 431/1/427
f 475/1/471 474/27/470 434/1/430 435/1/431
f 466/1/462 482/1/478 436/1/432 438/1/434
f 474/27/470 451/31/447 433/1/429 434/1/430
f 458/27/454 467/1/463 431/1/427 430/1/426
f 482/1/478 475/1/471 435/1/431 436/1/432
f 483/29/479 459/1/455 429/1/425 428/1/424
f 487/29/483 443/1/439 426/1/422 425/1/421
f 450/27/446 494/1/490 437/1/433 432/1/428
f 495/1/491 487/29/483 425/1/421 424/1/420
f 494/1/490 495/1/491 424/1/420 437/1/433
f 442/1/438 483/29/479 428/1/424 427/1/423
f 352/1/348 353/1/349 486/1/482 439/33/435
f 439/33/435 486/1/482 485/1/481 440/28/436
f 440/28/436 485/1/481 484/28/480 441/1/437
f 441/1/437 484/28/480 483/29/479 442/1/438
f 362/1/358 349/1/345 498/1/494 491/1/487
f 491/1/487 498/1/494 497/27/493 492/26/488
f 492/26/488 497/27/493 496/1/492 493/1/489
f 493/1/489 496/1/492 495/1/491 494/1/490
f 349/1/345 350/1/346 490/1/486 498/1/494
f 498/1/494 490/1/486 489/26/485 497/27/493
f 497/27/493 489/26/485 488/1/484 496/1/492
f 496/1/492 488/1/484 487/29/483 495/1/491
f 357/1/353 362/1/358 491/1/487 447/31/443
f 447/31/443 491/1/487 492/26/488 448/1/444
f 448/1/444 492/26/488 493/1/489 449/28/445
f 449/28/445 493/1/489 494/1/490 450/27/446
f 350/1/346 351/1/347 446/1/442 490/1/486
f 490/1/486 446/1/442 445/1/441 489/26/485
f 489/26/485 445/1/441 444/26/440 488/1/484
f 488/1/484 444/26/440 443/1/439 487/29/483
f 353/1/349 354/1/350 462/1/458 486/1/482
f 486/1/482 462/1/458 461/1/457 485/1/481
f 485/1/481 461/1/457 460/26/456 484/28/480
f 484/28/480 460/26/456 459/1/455 483/29/479
f 361/1/357 360/1/356 478/1/474 479/28/475
f 479/28/475 478/1/474 477/1/473 480/1/476
f 480/1/476 477/1/473 476/28/472 481/1/477
f 481/1/477 476/28/472 475/1/471 482/1/478
f 355/1/351 356/1/352 470/27/466 455/1/451
f 455/1/451 470/27/466 469/1/465 456/1/452
f 456/1/452 469/1/465 468/33/464 457/1/453
f 457/1/453 468/33/464 467/1/463 458/27/454
f 359/1/355 358/1/354 454/31/450 471/1/467
f 471/1/467 454/31/450 453/1/449 472/26/468
f 472/26/468 453/1/449 452/1/448 473/33/469
f 473/33/469 452/1/448 451/31/447 474/27/470
f 363/1/359 361/1/357 479/28/475 463/30/459
f 463/30/459 479/28/475 480/1/476 464/29/460
f 464/29/460 480/1/476 481/1/477 465/1/461
f 465/1/461 481/1/477 482/1/478 466/1/462
f 360/1/356 359/1/355 471/1/467 478/1/474
f 478/1/474 471/1/467 472/26/468 477/1/473
f 477/1/473 472/26/468 473/33/469 476/28/472
f 476/28/472 473/33/469 474/27/470 475/1/471
f 356/1/352 363/1/359 463/30/459 470/27/466
f 470/27/466 463/30/459 464/29/460 469/1/465
f 469/1/465 464/29/460 465/1/461 468/33/464
f 468/33/464 465/1/461 466/1/462 467/1/463
f 354/1/350 355/1/351 455/1/451 462/1/458
f 462/1/458 455/1/451 456/1/452 461/1/457
f 461/1/457 456/1/452 457/1/453 460/26/456
f 460/26/456 457/1/453 458/27/454 459/1/455
f 358/1/354 357/1/353 447/31/443 454/31/450
f 454/31/450 447/31/443 448/1/444 453/1/449
f 453/1/449 448/1/444 449/28/445 452/1/448
f 452/1/448 449/28/445 450/27/446 451/31/447
f 351/1/347 352/1/348 439/33/435 446/1/442
f 446/1/442 439/33/435 440/28/436 445/1/441
f 445/1/441 440/28/436 441/1/437 444/26/440
f 444/26/440 441/1/437 442/1/438 443/1/439
f 218/1/214 219/28/215 320/33/316 304/31/300 326/1/322 203/34/199
f 326/1/322 202/1/198 203/34/199
f 218/1/214 203/34/199 201/27/197
f 521/1/517 499/1/495 1/1/1 39/1/38
f 499/1/495 500/1/496 3/1/3 1/1/1
f 500/1/496 501/1/497 5/1/5 3/1/3
f 501/1/497 8/1/8 7/1/7 5/1/5
f 12/1/11 502/1/498 13/1/12 11/1/10
f 499/1/495 503/1/499 504/1/500 500/1/496
f 503/1/499 505/1/501 506/1/502 504/1/500
f 505/1/501 507/1/503 508/1/504 506/1/502
f 507/1/503 509/1/505 510/1/506 508/1/504
f 509/1/505 511/1/507 512/1/508 510/1/506
f 511/1/507 513/1/509 514/1/510 512/1/508
f 513/1/509 515/1/511 516/1/512 514/1/510
f 515/1/511 517/1/513 518/1/514 516/1/512
f 502/1/498 519/1/515 15/1/14 13/1/12
f 519/1/515 520/1/516 33/1/32 15/1/14
f 530/2/526 54/2/53 33/1/32 520/1/516
f 518/1/514 517/1/513 520/1/516 519/1/515
f 521/1/517 535/3/531 503/1/499 499/1/495
f 535/3/531 540/4/536 505/1/501 503/1/499
f 540/4/536 545/5/541 507/1/503 505/1/501
f 545/5/541 550/6/546 509/1/505 507/1/503
f 550/6/546 555/6/551 511/1/507 509/1/505
f 555/6/551 560/6/556 513/1/509 511/1/507
f 560/6/556 565/6/561 515/1/511 513/1/509
f 565/6/561 570/6/566 517/1/513 515/1/511
f 530/2/526 520/1/516 517/1/513 570/6/566
f 526/7/522 527/10/523 567/9/563 566/8/562
f 527/10/523 528/12/524 568/11/564 567/9/563
f 528/12/524 529/14/525 569/13/565 568/11/564
f 529/14/525 530/2/526 570/6/566 569/13/565
f 561/8/557 566/8/562 567/9/563 562/9/558
f 562/9/558 567/9/563 568/11/564 563/11/559
f 563/11/559 568/11/564 569/13/565 564/13/560
f 564/13/560 569/13/565 570/6/566 565/6/561
f 556/8/552 561/8/557 562/9/558 557/9/553
f 557/9/553 562/9/558 563/11/559 558/11/554
f 558/11/554 563/11/559 564/13/560 559/13/555
f 559/13/555 564/13/560 565/6/561 560/6/556
f 551/8/547 556/8/552 557/9/553 552/9/548
f 552/9/548 557/9/553 558/11/554 553/11/549
f 553/11/549 558/11/554 559/13/555 554/13/550
f 554/13/550 559/13/555 560/6/556 555/6/551
f 546/8/542 551/8/547 552/9/548 547/9/543
f 547/9/543 552/9/548 553/11/549 548/11/544
f 548/11/544 553/11/549 554/13/550 549/13/545
f 549/13/545 554/13/550 555/6/551 550/6/546
f 541/15/537 546/8/542 547/9/543 542/16/538
f 542/16/538 547/9/543 548/11/544 543/17/539
f 543/17/539 548/11/544 549/13/545 544/18/540
f 544/18/540 549/13/545 550/6/546 545/5/541
f 536/19/532 541/15/537 542/16/538 537/20/533
f 537/20/533 542/16/538 543/17/539 538/21/534
f 538/21/534 543/17/539 544/18/540 539/22/535
f 539/22/535 544/18/540 545/5/541 540/4/536
f 531/23/527 536/19/532 537/20/533 532/24/528
f 532/24/528 537/20/533 538/21/534 533/25/529
f 533/25/529 538/21/534 539/22/535 534/4/530
f 534/4/530 539/22/535 540/4/536 535/3/531
f 525/1/521 531/23/527 532/24/528 524/1/520
f 524/1/520 532/24/528 533/25/529 523/26/519
f 523/26/519 533/25/529 534/4/530 522/26/518
f 522/26/518 534/4/530 535/3/531 521/1/517
f 526/7/522 50/7/49 51/10/50 527/10/523
f 527/10/523 51/10/50 52/12/51 528/12/524
f 528/12/524 52/12/51 53/14/52 529/14/525
f 529/14/525 53/14/52 54/2/53 530/2/526
f 525/1/521 524/1/520 36/26/35 35/1/34
f 524/1/520 523/26/519 37/26/36 36/26/35
f 523/26/519 522/26/518 38/1/37 37/26/36
f 522/26/518 521/1/517 39/1/38 38/1/37
f 512/1/508 577/1/573 576/1/572 510/1/506
f 12/1/11 99/1/98 572/1/568 502/1/498
f 508/1/504 575/1/571 574/1/570 506/1/502
f 518/1/514 580/1/576 579/1/575 516/1/512
f 504/1/500 573/1/569 571/1/567 500/1/496
f 514/1/510 578/1/574 577/1/573 512/1/508
f 500/1/496 571/1/567 96/1/95 501/1/497
f 510/1/506 576/1/572 575/1/571 508/1/504
f 519/1/515 581/1/577 580/1/576 518/1/514
f 506/1/502 574/1/570 573/1/569 504/1/500
f 516/1/512 579/1/575 578/1/574 514/1/510
f 502/1/498 572/1/568 581/1/577 519/1/515
f 501/1/497 96/1/95 97/1/96 8/1/8
f 127/1/125 583/1/579 112/1/111 126/1/124
f 596/27/592 589/1/585 588/1/584 595/27/591
f 598/29/594 590/1/586 589/1/585 596/27/592
f 600/29/596 591/1/587 590/1/586 598/29/594
f 138/1/134 114/1/113 584/1/580 603/30/599
f 604/1/600 592/1/588 591/1/587 600/29/596
f 608/31/604 585/1/581 582/1/578 607/27/603
f 603/30/599 584/1/580 593/1/589 611/1/607
f 612/1/608 586/1/582 585/1/581 608/31/604
f 611/1/607 593/1/589 592/1/588 604/1/600
f 614/1/610 587/1/583 586/1/582 612/1/608
f 607/27/603 582/1/578 583/1/579 127/1/125
f 595/27/591 588/1/584 587/1/583 614/1/610
f 576/1/572 594/28/590 615/1/611 575/1/571
f 594/28/590 595/27/591 614/1/610 615/1/611
f 571/1/567 606/31/602 128/1/126 96/1/95
f 606/31/602 607/27/603 127/1/125 128/1/126
f 575/1/571 615/1/611 613/29/609 574/1/570
f 615/1/611 614/1/610 612/1/608 613/29/609
f 581/1/577 610/32/606 605/29/601 580/1/576
f 610/32/606 611/1/607 604/1/600 605/29/601
f 574/1/570 613/29/609 609/32/605 573/1/569
f 613/29/609 612/1/608 608/31/604 609/32/605
f 572/1/568 602/30/598 610/32/606 581/1/577
f 602/30/598 603/30/599 611/1/607 610/32/606
f 573/1/569 609/32/605 606/31/602 571/1/567
f 609/32/605 608/31/604 607/27/603 606/31/602
f 580/1/576 605/29/601 601/29/597 579/1/575
f 605/29/601 604/1/600 600/29/596 601/29/597
f 99/1/98 137/1/133 602/30/598 572/1/568
f 137/1/133 138/1/134 603/30/599 602/30/598
f 579/1/575 601/29/597 599/27/595 578/1/574
f 601/29/597 600/29/596 598/29/594 599/27/595
f 578/1/574 599/27/595 597/33/593 577/1/573
f 599/27/595 598/29/594 596/27/592 597/33/593
f 577/1/573 597/33/593 594/28/590 576/1/572
f 597/33/593 596/27/592 595/27/591 594/28/590
f 588/1/584 625/1/621 624/1/620 587/1/583
f 583/1/579 617/1/613 618/1/614 112/1/111
f 786/28/782 642/1/638 641/1/637 780/26/776
f 589/1/585 626/1/622 625/1/621 588/1/584
f 112/1/111 618/1/614 619/1/615 113/1/112
f 590/1/586 627/1/623 626/1/622 589/1/585
f 113/1/112 619/1/615 620/1/616 114/1/113
f 591/1/587 628/1/624 627/1/623 590/1/586
f 114/1/113 620/1/616 621/1/617 584/1/580
f 592/1/588 629/1/625 628/1/624 591/1/587
f 585/1/581 622/1/618 616/1/612 582/1/578
f 584/1/580 621/1/617 630/1/626 593/1/589
f 586/1/582 623/1/619 622/1/618 585/1/581
f 593/1/589 630/1/626 629/1/625 592/1/588
f 587/1/583 624/1/620 623/1/619 586/1/582
f 582/1/578 616/1/612 617/1/613 583/1/579
f 787/1/783 634/1/630 635/1/631 765/31/761
f 788/33/784 643/1/639 642/1/638 786/28/782
f 765/31/761 635/1/631 636/1/632 781/33/777
f 789/27/785 644/1/640 643/1/639 788/33/784
f 790/27/786 637/1/633 631/1/627 782/27/778
f 781/33/777 636/1/632 645/1/641 783/1/779
f 791/26/787 638/1/634 637/1/633 790/27/786
f 783/1/779 645/1/641 644/1/640 789/27/785
f 792/27/788 639/1/635 638/1/634 791/26/787
f 782/27/778 631/1/627 632/1/628 784/1/780
f 793/1/789 640/1/636 639/1/635 792/27/788
f 784/1/780 632/1/628 633/1/629 785/1/781
f 780/26/776 641/1/637 640/1/636 793/1/789
f 785/1/781 633/1/629 634/1/630 787/1/783
f 618/1/614 729/1/725 668/27/664 619/1/615
f 729/1/725 730/1/726 667/1/663 668/27/664
f 730/1/726 731/1/727 666/29/662 667/1/663
f 731/1/727 732/26/728 665/1/661 666/29/662
f 732/26/728 733/1/729 664/31/660 665/1/661
f 733/1/729 734/1/730 663/1/659 664/31/660
f 626/1/622 646/1/642 728/27/724 625/1/621
f 646/1/642 647/27/643 727/28/723 728/27/724
f 647/27/643 648/33/644 726/1/722 727/28/723
f 648/33/644 649/29/645 725/1/721 726/1/722
f 649/29/645 650/33/646 724/1/720 725/1/721
f 650/33/646 651/1/647 723/1/719 724/1/720
f 617/1/613 717/1/713 729/1/725 618/1/614
f 717/1/713 718/27/714 730/1/726 729/1/725
f 718/27/714 719/1/715 731/1/727 730/1/726
f 719/1/715 720/31/716 732/26/728 731/1/727
f 720/31/716 721/31/717 733/1/729 732/26/728
f 721/31/717 722/1/718 734/1/730 733/1/729
f 625/1/621 728/27/724 716/1/712 624/1/620
f 728/27/724 727/28/723 715/26/711 716/1/712
f 727/28/723 726/1/722 714/1/710 715/26/711
f 726/1/722 725/1/721 713/26/709 714/1/710
f 725/1/721 724/1/720 712/1/708 713/26/709
f 724/1/720 723/1/719 711/1/707 712/1/708
f 616/1/612 687/1/683 717/1/713 617/1/613
f 687/1/683 688/28/684 718/27/714 717/1/713
f 688/28/684 689/1/685 719/1/715 718/27/714
f 689/1/685 690/1/686 720/31/716 719/1/715
f 690/1/686 691/27/687 721/31/717 720/31/716
f 691/27/687 692/1/688 722/1/718 721/31/717
f 624/1/620 716/1/712 710/27/706 623/1/619
f 716/1/712 715/26/711 709/1/705 710/27/706
f 715/26/711 714/1/710 708/33/704 709/1/705
f 714/1/710 713/26/709 707/26/703 708/33/704
f 713/26/709 712/1/708 706/1/702 707/26/703
f 712/1/708 711/1/707 705/1/701 706/1/702
f 630/1/626 699/1/695 686/26/682 629/1/625
f 699/1/695 700/27/696 685/1/681 686/26/682
f 700/27/696 701/1/697 684/1/680 685/1/681
f 701/1/697 702/26/698 683/33/679 684/1/680
f 702/26/698 703/26/699 682/1/678 683/33/679
f 703/26/699 704/1/700 681/1/677 682/1/678
f 623/1/619 710/27/706 698/1/694 622/1/618
f 710/27/706 709/1/705 697/1/693 698/1/694
f 709/1/705 708/33/704 696/31/692 697/1/693
f 708/33/704 707/26/703 695/1/691 696/31/692
f 707/26/703 706/1/702 694/31/690 695/1/691
f 706/1/702 705/1/701 693/1/689 694/31/690
f 621/1/617 675/28/671 699/1/695 630/1/626
f 675/28/671 676/31/672 700/27/696 699/1/695
f 676/31/672 677/30/673 701/1/697 700/27/696
f 677/30/673 678/1/674 702/26/698 701/1/697
f 678/1/674 679/1/675 703/26/699 702/26/698
f 679/1/675 680/28/676 704/1/700 703/26/699
f 622/1/618 698/1/694 687/1/683 616/1/612
f 698/1/694 697/1/693 688/28/684 687/1/683
f 697/1/693 696/31/692 689/1/685 688/28/684
f 696/31/692 695/1/691 690/1/686 689/1/685
f 695/1/691 694/31/690 691/27/687 690/1/686
f 694/31/690 693/1/689 692/1/688 691/27/687
f 629/1/625 686/26/682 674/1/670 628/1/624
f 686/26/682 685/1/681 673/27/669 674/1/670
f 685/1/681 684/1/680 672/1/668 673/27/669
f 684/1/680 683/33/679 671/1/667 672/1/668
f 683/33/679 682/1/678 670/27/666 671/1/667
f 682/1/678 681/1/677 669/33/665 670/27/666
f 620/1/616 658/33/654 675/28/671 621/1/617
f 658/33/654 659/1/655 676/31/672 675/28/671
f 659/1/655 660/33/656 677/30/673 676/31/672
f 660/33/656 661/30/657 678/1/674 677/30/673
f 661/30/657 662/27/658 679/1/675 678/1/674
f 628/1/624 674/1/670 657/26/653 627/1/623
f 674/1/670 673/27/669 656/27/652 657/26/653
f 673/27/669 672/1/668 655/1/651 656/27/652
f 672/1/668 671/1/667 654/26/650 655/1/651
f 671/1/667 670/27/666 653/26/649 654/26/650
f 670/27/666 669/33/665 652/26/648 653/26/649
f 619/1/615 668/27/664 658/33/654 620/1/616
f 668/27/664 667/1/663 659/1/655 658/33/654
f 667/1/663 666/29/662 660/33/656 659/1/655
f 666/29/662 665/1/661 661/30/657 660/33/656
f 665/1/661 664/31/660 662/27/658 661/30/657
f 627/1/623 657/26/653 646/1/642 626/1/622
f 657/26/653 656/27/652 647/27/643 646/1/642
f 656/27/652 655/1/651 648/33/644 647/27/643
f 655/1/651 654/26/650 649/29/645 648/33/644
f 654/26/650 653/26/649 650/33/646 649/29/645
f 653/26/649 652/26/648 651/1/647 650/33/646
f 641/1/637 745/1/741 744/1/740 640/1/636
f 633/1/629 737/1/733 738/1/734 634/1/630
f 642/1/638 746/1/742 745/1/741 641/1/637
f 634/1/630 738/1/734 739/1/735 635/1/631
f 643/1/639 747/1/743 746/1/742 642/1/638
f 635/1/631 739/1/735 740/1/736 636/1/632
f 644/1/640 748/1/744 747/1/743 643/1/639
f 631/1/627 735/1/731 736/1/732 632/1/628
f 637/1/633 741/1/737 735/1/731 631/1/627
f 636/1/632 740/1/736 749/1/745 645/1/641
f 638/1/634 742/1/738 741/1/737 637/1/633
f 645/1/641 749/1/745 748/1/744 644/1/640
f 639/1/635 743/1/739 742/1/738 638/1/634
f 632/1/628 736/1/732 737/1/733 633/1/629
f 640/1/636 744/1/740 743/1/739 639/1/635
f 742/1/738 757/1/753 756/1/752 741/1/737
f 749/1/745 764/1/760 763/1/759 748/1/744
f 743/1/739 758/1/754 757/1/753 742/1/738
f 736/1/732 751/1/747 752/1/748 737/1/733
f 744/1/740 759/1/755 758/1/754 743/1/739
f 735/1/731 750/1/746 751/1/747 736/1/732
f 745/1/741 760/1/756 759/1/755 744/1/740
f 737/1/733 752/1/748 753/1/749 738/1/734
f 746/1/742 761/1/757 760/1/756 745/1/741
f 738/1/734 753/1/749 754/1/750 739/1/735
f 747/1/743 762/1/758 761/1/757 746/1/742
f 739/1/735 754/1/750 755/1/751 740/1/736
f 748/1/744 763/1/759 762/1/758 747/1/743
f 741/1/737 756/1/752 750/1/746 735/1/731
f 740/1/736 755/1/751 764/1/760 749/1/745
f 755/1/751 771/1/767 779/1/775 764/1/760
f 734/1/730 785/1/781 787/1/783 663/1/659
f 757/1/753 773/1/769 772/1/768 756/1/752
f 764/1/760 779/1/775 778/1/774 763/1/759
f 758/1/754 774/1/770 773/1/769 757/1/753
f 751/1/747 767/1/763 768/1/764 752/1/748
f 759/1/755 794/1/790 774/1/770 758/1/754
f 750/1/746 766/1/762 767/1/763 751/1/747
f 651/1/647 780/26/776 793/1/789 723/1/719
f 760/1/756 775/1/771 794/1/790 759/1/755
f 752/1/748 768/1/764 769/1/765 753/1/749
f 761/1/757 776/1/772 775/1/771 760/1/756
f 753/1/749 769/1/765 770/1/766 754/1/750
f 762/1/758 777/1/773 776/1/772 761/1/757
f 754/1/750 770/1/766 771/1/767 755/1/751
f 763/1/759 778/1/774 777/1/773 762/1/758
f 756/1/752 772/1/768 766/1/762 750/1/746
f 722/1/718 784/1/780 785/1/781 734/1/730
f 723/1/719 793/1/789 792/27/788 711/1/707
f 692/1/688 782/27/778 784/1/780 722/1/718
f 711/1/707 792/27/788 791/26/787 705/1/701
f 704/1/700 783/1/779 789/27/785 681/1/677
f 705/1/701 791/26/787 790/27/786 693/1/689
f 680/28/676 781/33/777 783/1/779 704/1/700
f 693/1/689 790/27/786 782/27/778 692/1/688
f 681/1/677 789/27/785 788/33/784 669/33/665
f 669/33/665 788/33/784 786/28/782 652/26/648
f 652/26/648 786/28/782 780/26/776 651/1/647
f 773/1/769 802/1/798 801/1/797 772/1/768
f 772/1/768 801/1/797 795/1/791 766/1/762
f 770/1/766 799/1/795 800/1/796 771/1/767
f 769/1/765 798/1/794 799/1/795 770/1/766
f 768/1/764 797/1/793 798/1/794 769/1/765
f 766/1/762 795/1/791 796/1/792 767/1/763
f 779/1/775 809/1/805 808/1/804 778/1/774
f 767/1/763 796/1/792 797/1/793 768/1/764
f 771/1/767 800/1/796 809/1/805 779/1/775
f 778/1/774 808/1/804 807/1/803 777/1/773
f 777/1/773 807/1/803 806/1/802 776/1/772
f 776/1/772 806/1/802 805/1/801 775/1/771
f 775/1/771 805/1/801 804/1/800 794/1/790
f 794/1/790 804/1/800 803/1/799 774/1/770
f 774/1/770 803/1/799 802/1/798 773/1/769
f 837/26/833 817/1/813 824/1/820 868/1/864
f 877/26/873 821/1/817 820/1/816 844/1/840
f 868/1/864 824/1/820 822/1/818 845/26/841
f 861/26/857 813/1/809 814/1/810 836/1/832
f 836/1/832 814/1/810 815/1/811 849/26/845
f 869/26/865 812/1/808 813/1/809 861/26/857
f 881/26/877 810/1/806 811/1/807 873/26/869
f 844/1/840 820/1/816 819/1/815 832/1/828
f 873/26/869 811/1/807 812/1/808 869/26/865
f 832/1/828 819/1/815 818/1/814 828/1/824
f 849/26/845 815/1/811 816/1/812 853/26/849
f 828/1/824 818/1/814 823/1/819 860/1/856
f 860/1/856 823/1/819 810/1/806 881/26/877
f 853/26/849 816/1/812 817/1/813 837/26/833
f 845/26/841 822/1/818 821/1/817 877/26/873
f 796/1/792 848/1/844 880/1/876 797/1/793
f 848/1/844 847/1/843 879/1/875 880/1/876
f 847/1/843 846/26/842 878/26/874 879/1/875
f 846/26/842 845/26/841 877/26/873 878/26/874
f 802/1/798 856/1/852 840/1/836 801/1/797
f 856/1/852 855/1/851 839/1/835 840/1/836
f 855/1/851 854/26/850 838/26/834 839/1/835
f 854/26/850 853/26/849 837/26/833 838/26/834
f 809/1/805 857/26/853 884/1/880 808/1/804
f 857/26/853 858/26/854 883/1/879 884/1/880
f 858/26/854 859/1/855 882/26/878 883/1/879
f 859/1/855 860/1/856 881/26/877 882/26/878
f 800/1/796 825/26/821 857/26/853 809/1/805
f 825/26/821 826/26/822 858/26/854 857/26/853
f 826/26/822 827/1/823 859/1/855 858/26/854
f 827/1/823 828/1/824 860/1/856 859/1/855
f 803/1/799 852/1/848 856/1/852 802/1/798
f 852/1/848 851/1/847 855/1/851 856/1/852
f 851/1/847 850/26/846 854/26/850 855/1/851
f 850/26/846 849/26/845 853/26/849 854/26/850
f 799/1/795 829/26/825 825/26/821 800/1/796
f 829/26/825 830/26/826 826/26/822 825/26/821
f 830/26/826 831/1/827 827/1/823 826/26/822
f 831/1/827 832/1/828 828/1/824 827/1/823
f 807/1/803 876/1/872 872/1/868 806/1/802
f 876/1/872 875/1/871 871/1/867 872/1/868
f 875/1/871 874/26/870 870/26/866 871/1/867
f 874/26/870 873/26/869 869/26/865 870/26/866
f 798/1/794 841/26/837 829/26/825 799/1/795
f 841/26/837 842/26/838 830/26/826 829/26/825
f 842/26/838 843/1/839 831/1/827 830/26/826
f 843/1/839 844/1/840 832/1/828 831/1/827
f 808/1/804 884/1/880 876/1/872 807/1/803
f 884/1/880 883/1/879 875/1/871 876/1/872
f 883/1/879 882/26/878 874/26/870 875/1/871
f 882/26/878 881/26/877 873/26/869 874/26/870
f 806/1/802 872/1/868 864/1/860 805/1/801
f 872/1/868 871/1/867 863/1/859 864/1/860
f 871/1/867 870/26/866 862/26/858 863/1/859
f 870/26/866 869/26/865 861/26/857 862/26/858
f 804/1/800 833/26/829 852/1/848 803/1/799
f 833/26/829 834/26/830 851/1/847 852/1/848
f 834/26/830 835/1/831 850/26/846 851/1/847
f 835/1/831 836/1/832 849/26/845 850/26/846
f 805/1/801 864/1/860 833/26/829 804/1/800
f 864/1/860 863/1/859 834/26/830 833/26/829
f 863/1/859 862/26/858 835/1/831 834/26/830
f 862/26/858 861/26/857 836/1/832 835/1/831
f 795/1/791 865/26/861 848/1/844 796/1/792
f 865/26/861 866/26/862 847/1/843 848/1/844
f 866/26/862 867/1/863 846/26/842 847/1/843
f 867/1/863 868/1/864 845/26/841 846/26/842
f 797/1/793 880/1/876 841/26/837 798/1/794
f 880/1/876 879/1/875 842/26/838 841/26/837
f 879/1/875 878/26/874 843/1/839 842/26/838
f 878/26/874 877/26/873 844/1/840 843/1/839
f 801/1/797 840/1/836 865/26/861 795/1/791
f 840/1/836 839/1/835 866/26/862 865/26/861
f 839/1/835 838/26/834 867/1/863 866/26/862
f 838/26/834 837/26/833 868/1/864 867/1/863
f 904/1/900 887/1/883 888/1/884 903/1/899
f 912/31/908 894/1/890 893/1/889 911/27/907
f 920/1/916 890/1/886 891/1/887 919/27/915
f 928/1/924 892/1/888 899/1/895 927/1/923
f 936/1/932 896/1/892 895/1/891 935/27/931
f 927/1/923 899/1/895 897/1/893 943/1/939
f 935/27/931 895/1/891 894/1/890 912/31/908
f 919/27/915 891/1/887 892/1/888 928/1/924
f 943/1/939 897/1/893 896/1/892 936/1/932
f 944/29/940 889/1/885 890/1/886 920/1/916
f 948/29/944 886/1/882 887/1/883 904/1/900
f 911/27/907 893/1/889 898/1/894 955/1/951
f 956/1/952 885/1/881 886/1/882 948/29/944
f 955/1/951 898/1/894 885/1/881 956/1/952
f 903/1/899 888/1/884 889/1/885 944/29/940
f 813/1/809 900/33/896 947/1/943 814/1/810
f 900/33/896 901/28/897 946/1/942 947/1/943
f 901/28/897 902/1/898 945/28/941 946/1/942
f 902/1/898 903/1/899 944/29/940 945/28/941
f 823/1/819 952/1/948 959/1/955 810/1/806
f 952/1/948 953/26/949 958/27/954 959/1/955
f 953/26/949 954/1/950 957/1/953 958/27/954
f 954/1/950 955/1/951 956/1/952 957/1/953
f 810/1/806 959/1/955 951/1/947 811/1/807
f 959/1/955 958/27/954 950/26/946 951/1/947
f 958/27/954 957/1/953 949/1/945 950/26/946
f 957/1/953 956/1/952 948/29/944 949/1/945
f 818/1/814 908/31/904 952/1/948 823/1/819
f 908/31/904 909/1/905 953/26/949 952/1/948
f 909/1/905 910/28/906 954/1/950 953/26/949
f 910/28/906 911/27/907 955/1/951 954/1/950
f 811/1/807 951/1/947 907/1/903 812/1/808
f 951/1/947 950/26/946 906/1/902 907/1/903
f 950/26/946 949/1/945 905/26/901 906/1/902
f 949/1/945 948/29/944 904/1/900 905/26/901
f 814/1/810 947/1/943 923/1/919 815/1/811
f 947/1/943 946/1/942 922/1/918 923/1/919
f 946/1/942 945/28/941 921/26/917 922/1/918
f 945/28/941 944/29/940 920/1/916 921/26/917
f 822/1/818 940/28/936 939/1/935 821/1/817
f 940/28/936 941/1/937 938/1/934 939/1/935
f 941/1/937 942/1/938 937/28/933 938/1/934
f 942/1/938 943/1/939 936/1/932 937/28/933
f 816/1/812 916/1/912 931/27/927 817/1/813
f 916/1/912 917/1/913 930/1/926 931/27/927
f 917/1/913 918/1/914 929/33/925 930/1/926
f 918/1/914 919/27/915 928/1/924 929/33/925
f 820/1/816 932/1/928 915/31/911 819/1/815
f 932/1/928 933/26/929 914/1/910 915/31/911
f 933/26/929 934/33/930 913/1/909 914/1/910
f 934/33/930 935/27/931 912/31/908 913/1/909
f 824/1/820 924/30/920 940/28/936 822/1/818
f 924/30/920 925/29/921 941/1/937 940/28/936
f 925/29/921 926/1/922 942/1/938 941/1/937
f 926/1/922 927/1/923 943/1/939 942/1/938
f 821/1/817 939/1/935 932/1/928 820/1/816
f 939/1/935 938/1/934 933/26/929 932/1/928
f 938/1/934 937/28/933 934/33/930 933/26/929
f 937/28/933 936/1/932 935/27/931 934/33/930
f 817/1/813 931/27/927 924/30/920 824/1/820
f 931/27/927 930/1/926 925/29/921 924/30/920
f 930/1/926 929/33/925 926/1/922 925/29/921
f 929/33/925 928/1/924 927/1/923 926/1/922
f 815/1/811 923/1/919 916/1/912 816/1/812
f 923/1/919 922/1/918 917/1/913 916/1/912
f 922/1/918 921/26/917 918/1/914 917/1/913
f 921/26/917 920/1/916 919/27/915 918/1/914
f 819/1/815 915/31/911 908/31/904 818/1/814
f 915/31/911 914/1/910 909/1/905 908/31/904
f 914/1/910 913/1/909 910/28/906 909/1/905
f 913/1/909 912/31/908 911/27/907 910/28/906
f 812/1/808 907/1/903 900/33/896 813/1/809
f 907/1/903 906/1/902 901/28/897 900/33/896
f 906/1/902 905/26/901 902/1/898 901/28/897
f 905/26/901 904/1/900 903/1/899 902/1/898
f 679/1/675 664/34/660 787/1/783 765/31/761 781/33/777 680/28/676
f 787/1/783 664/34/660 663/1/659
f 679/1/675 662/27/658 664/34/660
