# Blender 4.4.3
# www.blender.org
mtllib cloth_shaped.mtl
o bottom_M
v 0.000000 5.398099 0.518749
v 0.093529 5.395992 0.519790
v 0.000000 5.237765 0.452977
v 0.088130 5.264178 0.503148
v 0.000000 5.112406 0.344633
v 0.004347 5.127554 0.373198
v 0.000000 5.069110 0.199718
v 0.000000 5.086083 0.226424
v 0.000000 5.066711 0.052388
v 0.000000 5.079825 0.070284
v 0.000000 5.068724 -0.103195
v 0.000000 5.085672 -0.119601
v 0.000000 5.142224 -0.307371
v 0.024689 5.141152 -0.296763
v 0.000000 5.277256 -0.435000
v 0.304647 5.512164 0.563043
v 0.313414 5.386990 0.541023
v 0.520506 5.674368 0.565089
v 0.551121 5.563527 0.583462
v 0.717324 5.836236 0.418699
v 0.745949 5.730097 0.394800
v 0.762609 6.005647 0.185930
v 0.802195 5.889174 0.156526
v 0.744932 5.984704 -0.040282
v 0.784958 5.869031 -0.067797
v 0.649186 5.921960 -0.386810
v 0.676633 5.796256 -0.407900
v 0.473502 5.769675 -0.528978
v 0.497929 5.627849 -0.562256
v 0.268144 5.609310 -0.546120
v 0.271328 5.442950 -0.553005
v 0.064948 5.283643 -0.421652
v 0.000000 5.481603 -0.535657
v 0.075794 5.484134 -0.532068
v 0.000000 6.446338 0.659741
v 0.000000 6.115856 0.639581
v 0.000000 5.949513 0.605620
v 0.000000 5.778060 0.589485
v 0.000000 5.588666 0.554263
v 0.083813 5.584121 0.555390
v 0.095314 5.781539 0.572551
v 0.106940 5.953746 0.609865
v 0.127799 6.143170 0.636765
v 0.126972 6.443255 0.665364
v 0.055253 6.411647 -0.122738
v 0.048090 6.254385 -0.208553
v 0.045535 6.119003 -0.325017
v 0.059764 5.903065 -0.440016
v 0.066760 5.706832 -0.495096
v 0.000000 6.412693 -0.127273
v 0.000000 6.251902 -0.216374
v 0.000000 6.116041 -0.342534
v 0.000000 5.902498 -0.451833
v 0.000000 5.706955 -0.498584
v 0.274230 6.434666 0.646157
v 0.290740 6.184370 0.632718
v 0.301775 5.998206 0.624721
v 0.291602 5.824817 0.603747
v 0.287222 5.664220 0.580268
v 0.419839 6.423957 0.611794
v 0.448128 6.265099 0.600535
v 0.471957 6.102824 0.594124
v 0.487304 5.946229 0.586989
v 0.496024 5.801344 0.568080
v 0.537448 6.399522 0.528899
v 0.575762 6.342282 0.502813
v 0.617068 6.210065 0.485328
v 0.648734 6.080358 0.474759
v 0.686132 5.958249 0.444684
v 0.594952 6.392524 0.327577
v 0.624145 6.398504 0.286623
v 0.653754 6.306271 0.259888
v 0.693191 6.203480 0.237008
v 0.726735 6.107391 0.219531
v 0.582992 6.403955 0.074503
v 0.606332 6.402112 0.042862
v 0.631408 6.303802 0.004110
v 0.672790 6.197966 -0.014072
v 0.716347 6.085850 -0.024016
v 0.528397 6.407276 -0.046705
v 0.546376 6.383370 -0.105483
v 0.562740 6.277916 -0.166154
v 0.594021 6.158047 -0.244091
v 0.634153 6.026001 -0.332376
v 0.375843 6.394328 -0.095999
v 0.373770 6.329710 -0.175512
v 0.397010 6.203655 -0.253096
v 0.423594 6.074366 -0.372905
v 0.448265 5.914126 -0.471930
v 0.158031 6.411400 -0.129896
v 0.178179 6.281370 -0.214819
v 0.209124 6.154350 -0.320978
v 0.243467 5.993899 -0.449286
v 0.269768 5.811374 -0.512409
v 0.132749 5.128724 0.444783
v 0.000000 5.088228 0.304552
v 0.000000 5.084951 0.182398
v 0.000000 5.088472 0.071512
v 0.000000 5.084710 -0.084655
v 0.023200 5.084521 -0.210758
v 0.305830 5.243159 0.548536
v 0.571102 5.429245 0.596741
v 0.770082 5.569944 0.396898
v 0.850750 5.733596 0.150387
v 0.827052 5.712696 -0.085554
v 0.699653 5.643894 -0.424880
v 0.515114 5.499297 -0.557719
v 0.277216 5.295679 -0.533786
v 0.084472 5.148188 -0.351819
v 0.138338 4.950404 0.442672
v 0.015832 4.939543 0.317270
v 0.000000 4.927813 0.191495
v 0.000000 4.930875 0.075218
v 0.000000 4.932425 -0.050170
v 0.028558 4.934117 -0.200220
v 0.304337 4.954049 0.547561
v 0.585815 4.981950 0.624153
v 0.809747 5.004322 0.427395
v 0.961611 5.031855 0.163485
v 0.939019 5.034950 -0.098539
v 0.783841 5.011491 -0.322372
v 0.587413 4.986820 -0.384286
v 0.327281 4.956288 -0.383960
v 0.122722 4.930508 -0.325750
v 0.000000 5.052272 0.188702
v 0.000000 5.025472 0.190580
v 0.000000 5.031145 0.315769
v 0.000000 5.061815 0.314304
v 0.898865 5.510683 0.148364
v 0.945988 5.242239 0.151458
v 0.915005 5.233150 -0.091976
v 0.879938 5.493281 -0.097363
v 0.000000 5.050655 0.073386
v 0.000000 5.025222 0.073964
v 0.780139 5.193883 -0.339821
v 0.739721 5.429515 -0.396589
v 0.000000 5.049883 -0.052213
v 0.000000 5.025929 -0.052217
v 0.569272 5.143185 -0.402318
v 0.536942 5.300599 -0.484538
v 0.025149 5.056005 -0.209372
v 0.028230 5.030670 -0.206076
v 0.331754 5.073220 -0.401009
v 0.291170 5.169324 -0.462940
v 0.132233 5.096911 0.443085
v 0.136624 5.053752 0.442715
v 0.305957 5.088477 0.546741
v 0.300044 5.162838 0.547622
v 0.105447 5.070714 -0.345901
v 0.117176 5.039921 -0.335490
v 0.585608 5.139457 0.625266
v 0.587231 5.295830 0.614745
v 0.812760 5.203578 0.436216
v 0.790367 5.402411 0.423366
v 0.147951 4.673822 0.430974
v 0.053874 4.676149 0.306994
v 0.014201 4.674146 0.185900
v 0.013103 4.675272 0.072478
v 0.016790 4.677247 -0.057380
v 0.040153 4.679830 -0.194508
v 0.291632 4.673632 0.516431
v 0.571603 4.682372 0.607164
v 0.792573 4.691772 0.418488
v 0.952402 4.708174 0.162813
v 0.926754 4.706861 -0.105797
v 0.754794 4.687461 -0.318473
v 0.573572 4.678843 -0.378550
v 0.329924 4.676986 -0.378469
v 0.133182 4.683573 -0.320150
v 0.192348 3.036738 0.157842
v 0.149484 3.039476 0.046726
v 0.127092 3.040973 -0.025417
v 0.124084 3.044748 -0.096763
v 0.122437 3.048563 -0.173300
v 0.133188 3.054768 -0.280910
v 0.267425 3.038342 0.217938
v 0.435751 3.041640 0.282963
v 0.609278 3.048679 0.141549
v 0.712374 3.060775 -0.060197
v 0.677724 3.071489 -0.252497
v 0.566114 3.074540 -0.377698
v 0.429193 3.078168 -0.428944
v 0.304922 3.075159 -0.425852
v 0.183608 3.064098 -0.366208
v 0.897358 4.448042 -0.114914
v 0.852522 4.213941 -0.124932
v 0.805172 3.956145 -0.138184
v 0.771401 3.731637 -0.164853
v 0.734898 3.498533 -0.193105
v 0.703008 3.309050 -0.217438
v 0.580491 3.326164 -0.353059
v 0.602051 3.512979 -0.328424
v 0.630368 3.745803 -0.330175
v 0.652938 3.972172 -0.325833
v 0.685431 4.214588 -0.320398
v 0.721172 4.448114 -0.316583
v 0.045397 4.439638 -0.063003
v 0.058418 4.208765 -0.070989
v 0.077977 3.965762 -0.074256
v 0.091236 3.741656 -0.099241
v 0.095558 3.510331 -0.125091
v 0.087607 3.312839 -0.061439
v 0.090007 3.507316 -0.037298
v 0.086979 3.738614 -0.005630
v 0.073826 3.962700 0.025956
v 0.054276 4.206538 0.040296
v 0.041663 4.437561 0.057890
v 0.438750 3.327312 -0.394019
v 0.451094 3.515191 -0.363632
v 0.469892 3.747332 -0.368562
v 0.481537 3.974897 -0.367614
v 0.499540 4.217367 -0.367963
v 0.534454 4.449876 -0.375249
v 0.069053 4.441497 -0.194599
v 0.080727 4.210720 -0.191906
v 0.098122 3.968004 -0.182570
v 0.110837 3.744047 -0.201619
v 0.116210 3.513000 -0.222942
v 0.111953 3.319952 -0.246066
v 0.304922 3.326895 -0.390668
v 0.317133 3.515346 -0.360479
v 0.328561 3.747173 -0.365462
v 0.331776 3.974603 -0.364308
v 0.340792 4.216951 -0.364648
v 0.347348 4.448358 -0.372597
v 0.169789 4.431263 0.400050
v 0.169629 4.196173 0.356395
v 0.177193 3.953616 0.313359
v 0.184202 3.729002 0.264478
v 0.186085 3.497272 0.217945
v 0.180239 3.304724 0.192059
v 0.257951 3.301721 0.253851
v 0.268968 3.493127 0.293578
v 0.280479 3.726197 0.342513
v 0.279724 3.951121 0.396144
v 0.282438 4.194384 0.447573
v 0.287144 4.431022 0.482656
v 0.160438 4.444862 -0.316212
v 0.167870 4.214206 -0.309910
v 0.179176 3.972004 -0.314551
v 0.191360 3.746205 -0.317964
v 0.185607 3.514970 -0.316537
v 0.173400 3.324434 -0.338994
v 0.443576 3.300286 0.323640
v 0.455233 3.490519 0.364071
v 0.475704 3.723711 0.416574
v 0.490855 3.949402 0.474172
v 0.516381 4.194025 0.527791
v 0.543546 4.430922 0.566120
v 0.613620 3.303250 0.185918
v 0.624819 3.493341 0.212130
v 0.653772 3.726352 0.257527
v 0.679026 3.952511 0.305994
v 0.716880 4.197092 0.347500
v 0.757551 4.432886 0.388641
v 0.083515 4.434798 0.281107
v 0.091896 4.200857 0.247402
v 0.107630 3.958171 0.214862
v 0.117925 3.733740 0.172123
v 0.119645 3.502412 0.130793
v 0.117029 3.308795 0.103389
v 0.728312 3.309227 -0.005474
v 0.759138 3.499438 0.020091
v 0.796502 3.733082 0.054690
v 0.831462 3.958097 0.089847
v 0.878100 4.201905 0.121135
v 0.919928 4.439856 0.151453
v 0.046211 4.435288 0.165272
v 0.057911 4.203372 0.139524
v 0.076911 3.959862 0.116194
v 0.089492 3.735975 0.078897
v 0.092266 3.504743 0.042548
v 0.090034 3.310141 0.017365
v 0.214718 2.913503 0.113058
v 0.172876 2.920327 0.005514
v 0.156621 2.921635 -0.066568
v 0.147550 2.924578 -0.137427
v 0.147382 2.928078 -0.213313
v 0.158918 2.935611 -0.320655
v 0.285620 2.911918 0.189861
v 0.434751 2.917063 0.257661
v 0.627337 2.933042 0.115516
v 0.729199 2.947191 -0.100434
v 0.694086 2.955601 -0.274624
v 0.582479 2.963614 -0.414615
v 0.449357 2.965775 -0.463340
v 0.325619 2.961283 -0.461185
v 0.209788 2.949448 -0.406080
v 0.235767 2.832674 0.101615
v 0.191492 2.839228 -0.008064
v 0.174473 2.840980 -0.079806
v 0.165730 2.844890 -0.151282
v 0.165156 2.849699 -0.256019
v 0.177657 2.858256 -0.364460
v 0.307105 2.828286 0.160185
v 0.443331 2.831500 0.227159
v 0.645012 2.846245 0.088451
v 0.737909 2.864829 -0.121019
v 0.708890 2.870968 -0.299108
v 0.588413 2.885513 -0.461314
v 0.464645 2.880961 -0.498890
v 0.346518 2.877464 -0.496664
v 0.232192 2.871088 -0.449697
v 0.104898 3.179520 -0.160914
v 0.234316 2.660178 0.038338
v 0.190519 2.666912 -0.069775
v 0.168433 2.669655 -0.140648
v 0.165839 2.673768 -0.209749
v 0.167911 2.677739 -0.336692
v 0.183209 2.683875 -0.443336
v 0.302351 2.654394 0.098547
v 0.470741 2.657039 0.161437
v 0.679835 2.671596 0.038382
v 0.742913 2.696956 -0.366481
v 0.627335 2.706660 -0.545034
v 0.469529 2.700466 -0.578053
v 0.337770 2.696894 -0.575124
v 0.229068 2.692172 -0.528072
v 0.687213 3.185238 -0.234959
v 0.118774 3.184364 -0.264093
v 0.184596 3.170918 0.176112
v 0.173888 3.191260 -0.353176
v 0.128086 3.172818 0.074846
v 0.103731 3.173378 -0.004261
v 0.573104 3.194852 -0.368212
v 0.101138 3.176223 -0.079211
v 0.435082 3.199219 -0.411778
v 0.305739 3.198195 -0.408544
v 0.264264 3.170848 0.237154
v 0.440639 3.170798 0.303882
v 0.611218 3.173748 0.163492
v 0.717225 3.181073 -0.033362
v 0.770252 2.689589 -0.165462
v 0.237555 2.518275 0.007307
v 0.189749 2.522286 -0.101007
v 0.167215 2.522774 -0.172919
v 0.164569 2.523817 -0.241924
v 0.166774 2.524953 -0.369074
v 0.182494 2.526685 -0.477716
v 0.305269 2.515236 0.068593
v 0.489921 2.520633 0.131062
v 0.693319 2.524894 0.007274
v 0.792188 2.531712 -0.197780
v 0.765743 2.535045 -0.399281
v 0.649501 2.537183 -0.575892
v 0.468886 2.533289 -0.613301
v 0.337403 2.531673 -0.610087
v 0.232103 2.529062 -0.563311
v 0.344701 1.615203 -0.533343
v 0.464712 1.614186 -0.552232
v 0.620207 1.614420 -0.501567
v 0.726952 1.613847 -0.383497
v 0.748754 1.614996 -0.211177
v 0.641797 1.617523 -0.042625
v 0.462276 1.619345 0.079232
v 0.318070 1.620425 0.002204
v 0.213649 1.616790 -0.429679
v 0.203312 1.617956 -0.355230
v 0.205594 1.618334 -0.252034
v 0.210010 1.619687 -0.196979
v 0.226864 1.622214 -0.139309
v 0.258218 1.615727 -0.494421
v 0.266473 1.621029 -0.050637
v 0.179680 2.336428 -0.472751
v 0.185011 2.176648 -0.467910
v 0.202602 1.994539 -0.461150
v 0.203821 1.805439 -0.453783
v 0.163835 2.336820 -0.365996
v 0.169054 2.177057 -0.364371
v 0.178141 1.994349 -0.362630
v 0.195197 1.805646 -0.358846
v 0.806586 2.343851 -0.198890
v 0.811968 2.180306 -0.201552
v 0.793693 1.994807 -0.204695
v 0.776699 1.803002 -0.208019
v 0.311476 1.807358 0.019451
v 0.311317 1.996489 0.032433
v 0.312005 2.177749 0.046546
v 0.310576 2.332414 0.058112
v 0.160995 2.335894 -0.243552
v 0.166335 2.177126 -0.245305
v 0.176411 1.994166 -0.247125
v 0.193003 1.805178 -0.249170
v 0.215079 1.808230 -0.126293
v 0.210232 1.997298 -0.116633
v 0.204041 2.177812 -0.108635
v 0.187007 2.335114 -0.104459
v 0.669735 1.804268 -0.031710
v 0.696898 1.995498 -0.020782
v 0.707845 2.180113 -0.009862
v 0.702766 2.339672 -0.000701
v 0.471009 1.806113 0.089773
v 0.479730 1.994023 0.110409
v 0.497090 2.179114 0.114851
v 0.493083 2.340404 0.118347
v 0.241243 2.335978 -0.556216
v 0.246559 2.177232 -0.548358
v 0.247488 1.994958 -0.538234
v 0.253538 1.804466 -0.519025
v 0.755452 1.802805 -0.385457
v 0.773162 1.994544 -0.388252
v 0.789878 2.180468 -0.391370
v 0.783318 2.346043 -0.394962
v 0.243355 2.332812 -0.000651
v 0.247670 2.176845 -0.010863
v 0.253820 1.996365 -0.022681
v 0.255139 1.807407 -0.032885
v 0.649950 1.804132 -0.525148
v 0.679195 1.995423 -0.543766
v 0.697376 2.180906 -0.552465
v 0.683571 2.345776 -0.561353
v 0.466974 1.804298 -0.578295
v 0.458191 1.994767 -0.599605
v 0.462248 2.178375 -0.622701
v 0.465963 2.340463 -0.625416
v 0.195957 1.805892 -0.187526
v 0.180368 1.994787 -0.179898
v 0.170241 2.176690 -0.175217
v 0.164075 2.335027 -0.174517
v 0.342403 1.804500 -0.558898
v 0.339908 1.995233 -0.579766
v 0.338142 2.178237 -0.590603
v 0.337531 2.337963 -0.600287
v 0.375146 0.840513 -0.435441
v 0.455825 0.841334 -0.443611
v 0.567320 0.839418 -0.417022
v 0.629086 0.834162 -0.295332
v 0.647026 0.833093 -0.173439
v 0.592782 0.838511 -0.048515
v 0.450307 0.847690 0.046222
v 0.355767 0.848088 -0.011038
v 0.278496 0.835859 -0.328831
v 0.278634 0.837243 -0.252615
v 0.286940 0.839155 -0.186608
v 0.291016 0.839731 -0.149022
v 0.301788 0.841239 -0.111942
v 0.306565 0.838028 -0.395111
v 0.320922 0.843874 -0.049176
v 0.710236 1.449351 -0.348053
v 0.691434 1.283672 -0.343196
v 0.670616 1.129946 -0.311181
v 0.648323 0.982529 -0.304488
v 0.580957 0.984812 -0.420754
v 0.591072 1.130444 -0.434260
v 0.598340 1.283367 -0.461482
v 0.609570 1.448538 -0.484687
v 0.222665 1.450061 -0.403761
v 0.233519 1.284720 -0.383701
v 0.243085 1.131980 -0.361281
v 0.263331 0.987528 -0.338843
v 0.261807 0.989585 -0.268802
v 0.243160 1.131303 -0.289946
v 0.227144 1.284901 -0.317991
v 0.213377 1.451379 -0.320852
v 0.465177 1.454928 0.067410
v 0.462001 1.289325 0.058785
v 0.457425 1.136675 0.051393
v 0.453922 0.988522 0.047868
v 0.598990 0.986722 -0.049548
v 0.611900 1.135703 -0.051544
v 0.619341 1.289169 -0.050859
v 0.632516 1.453551 -0.048454
v 0.282453 1.451750 -0.079242
v 0.299634 1.287926 -0.062736
v 0.310823 1.135045 -0.064948
v 0.315684 0.991265 -0.051393
v 0.348684 0.990628 -0.012444
v 0.344667 1.136891 -0.019758
v 0.340132 1.289540 -0.014413
v 0.327290 1.452631 -0.022930
v 0.220768 1.450890 -0.230782
v 0.238502 1.283549 -0.232943
v 0.262114 1.130347 -0.213785
v 0.272374 0.991705 -0.195985
v 0.278250 0.991993 -0.154719
v 0.273837 1.131064 -0.169419
v 0.249758 1.284138 -0.186539
v 0.231203 1.451213 -0.185975
v 0.249353 1.452455 -0.137920
v 0.272841 1.286422 -0.132119
v 0.287238 1.133670 -0.116552
v 0.292317 0.992412 -0.108832
v 0.664333 0.983208 -0.177819
v 0.688155 1.132051 -0.185705
v 0.711724 1.286075 -0.198983
v 0.730921 1.451216 -0.213538
v 0.454906 0.986092 -0.450272
v 0.458955 1.130804 -0.464653
v 0.462483 1.282696 -0.492532
v 0.465248 1.447720 -0.516498
v 0.257199 1.448667 -0.474311
v 0.272332 1.282750 -0.450464
v 0.279778 1.131017 -0.425328
v 0.296744 0.986574 -0.405234
v 0.367484 0.986305 -0.444835
v 0.349563 1.130629 -0.461717
v 0.352083 1.282439 -0.489444
v 0.338198 1.448266 -0.513768
v -0.093529 5.395992 0.519790
v -0.088130 5.264178 0.503148
v -0.004347 5.127554 0.373198
v -0.024689 5.141152 -0.296763
v -0.304647 5.512164 0.563043
v -0.313414 5.386990 0.541023
v -0.520506 5.674368 0.565089
v -0.551121 5.563527 0.583462
v -0.717324 5.836236 0.418699
v -0.745949 5.730097 0.394800
v -0.762609 6.005647 0.185930
v -0.802195 5.889174 0.156526
v -0.744932 5.984704 -0.040282
v -0.784958 5.869031 -0.067797
v -0.649186 5.921960 -0.386810
v -0.676633 5.796256 -0.407900
v -0.473502 5.769675 -0.528978
v -0.497929 5.627849 -0.562256
v -0.268144 5.609310 -0.546120
v -0.271328 5.442950 -0.553005
v -0.064948 5.283643 -0.421652
v -0.075794 5.484134 -0.532068
v -0.083813 5.584121 0.555390
v -0.095314 5.781539 0.572551
v -0.106940 5.953746 0.609865
v -0.127799 6.143170 0.636765
v -0.126972 6.443255 0.665364
v -0.055253 6.411647 -0.122738
v -0.048090 6.254385 -0.208553
v -0.045535 6.119003 -0.325017
v -0.059764 5.903065 -0.440016
v -0.066760 5.706832 -0.495096
v -0.274230 6.434666 0.646157
v -0.290740 6.184370 0.632718
v -0.301775 5.998206 0.624721
v -0.291602 5.824817 0.603747
v -0.287222 5.664220 0.580268
v -0.419839 6.423957 0.611794
v -0.448128 6.265099 0.600535
v -0.471957 6.102824 0.594124
v -0.487304 5.946229 0.586989
v -0.496024 5.801344 0.568080
v -0.537448 6.399522 0.528899
v -0.575762 6.342282 0.502813
v -0.617068 6.210065 0.485328
v -0.648734 6.080358 0.474759
v -0.686132 5.958249 0.444684
v -0.594952 6.392524 0.327577
v -0.624145 6.398504 0.286623
v -0.653754 6.306271 0.259888
v -0.693191 6.203480 0.237008
v -0.726735 6.107391 0.219531
v -0.582992 6.403955 0.074503
v -0.606332 6.402112 0.042862
v -0.631408 6.303802 0.004110
v -0.672790 6.197966 -0.014072
v -0.716347 6.085850 -0.024016
v -0.528397 6.407276 -0.046705
v -0.546376 6.383370 -0.105483
v -0.562740 6.277916 -0.166154
v -0.594021 6.158047 -0.244091
v -0.634153 6.026001 -0.332376
v -0.375843 6.394328 -0.095999
v -0.373770 6.329710 -0.175512
v -0.397010 6.203655 -0.253096
v -0.423594 6.074366 -0.372905
v -0.448265 5.914126 -0.471930
v -0.158031 6.411400 -0.129896
v -0.178179 6.281370 -0.214819
v -0.209124 6.154350 -0.320978
v -0.243467 5.993899 -0.449286
v -0.269768 5.811374 -0.512409
v -0.132749 5.128724 0.444783
v -0.023200 5.084521 -0.210758
v -0.305830 5.243159 0.548536
v -0.571102 5.429245 0.596741
v -0.770082 5.569944 0.396898
v -0.850750 5.733596 0.150387
v -0.827052 5.712696 -0.085554
v -0.699653 5.643894 -0.424880
v -0.515114 5.499297 -0.557719
v -0.277216 5.295679 -0.533786
v -0.084472 5.148188 -0.351819
v -0.138338 4.950404 0.442672
v -0.015832 4.939543 0.317270
v -0.028558 4.934117 -0.200220
v -0.304337 4.954049 0.547561
v -0.585815 4.981950 0.624153
v -0.809747 5.004322 0.427395
v -0.961611 5.031855 0.163485
v -0.939019 5.034950 -0.098539
v -0.783841 5.011491 -0.322372
v -0.587413 4.986820 -0.384286
v -0.327281 4.956288 -0.383960
v -0.122722 4.930508 -0.325750
v -0.898865 5.510683 0.148364
v -0.945988 5.242239 0.151458
v -0.915005 5.233150 -0.091976
v -0.879938 5.493281 -0.097363
v -0.780139 5.193883 -0.339821
v -0.739721 5.429515 -0.396589
v -0.569272 5.143185 -0.402318
v -0.536942 5.300599 -0.484538
v -0.025149 5.056005 -0.209372
v -0.028230 5.030670 -0.206076
v -0.331754 5.073220 -0.401009
v -0.291170 5.169324 -0.462940
v -0.132233 5.096911 0.443085
v -0.136624 5.053752 0.442715
v -0.305957 5.088477 0.546741
v -0.300044 5.162838 0.547622
v -0.105447 5.070714 -0.345901
v -0.117176 5.039921 -0.335490
v -0.585608 5.139457 0.625266
v -0.587231 5.295830 0.614745
v -0.812760 5.203578 0.436216
v -0.790367 5.402411 0.423366
v -0.147951 4.673822 0.430974
v -0.053874 4.676149 0.306994
v -0.014201 4.674146 0.185900
v -0.013103 4.675272 0.072478
v -0.016790 4.677247 -0.057380
v -0.040153 4.679830 -0.194508
v -0.291632 4.673632 0.516431
v -0.571603 4.682372 0.607164
v -0.792573 4.691772 0.418488
v -0.952402 4.708174 0.162813
v -0.926754 4.706861 -0.105797
v -0.754794 4.687461 -0.318473
v -0.573572 4.678843 -0.378550
v -0.329924 4.676986 -0.378469
v -0.133182 4.683573 -0.320150
v -0.192348 3.036738 0.157842
v -0.149484 3.039476 0.046726
v -0.127092 3.040973 -0.025417
v -0.124084 3.044748 -0.096763
v -0.122437 3.048563 -0.173300
v -0.133188 3.054768 -0.280910
v -0.267425 3.038342 0.217938
v -0.435751 3.041640 0.282963
v -0.609278 3.048679 0.141549
v -0.712374 3.060775 -0.060197
v -0.677724 3.071489 -0.252497
v -0.566114 3.074540 -0.377698
v -0.429193 3.078168 -0.428944
v -0.304922 3.075159 -0.425852
v -0.183608 3.064098 -0.366208
v -0.897358 4.448042 -0.114914
v -0.852522 4.213941 -0.124932
v -0.805172 3.956145 -0.138184
v -0.771401 3.731637 -0.164853
v -0.734898 3.498533 -0.193105
v -0.703008 3.309050 -0.217438
v -0.580491 3.326164 -0.353059
v -0.602051 3.512979 -0.328424
v -0.630368 3.745803 -0.330175
v -0.652938 3.972172 -0.325833
v -0.685431 4.214588 -0.320398
v -0.721172 4.448114 -0.316583
v -0.045397 4.439638 -0.063003
v -0.058418 4.208765 -0.070989
v -0.077977 3.965762 -0.074256
v -0.091236 3.741656 -0.099241
v -0.095558 3.510331 -0.125091
v -0.087607 3.312839 -0.061439
v -0.090007 3.507316 -0.037298
v -0.086979 3.738614 -0.005630
v -0.073826 3.962700 0.025956
v -0.054276 4.206538 0.040296
v -0.041663 4.437561 0.057890
v -0.438750 3.327312 -0.394019
v -0.451094 3.515191 -0.363632
v -0.469892 3.747332 -0.368562
v -0.481537 3.974897 -0.367614
v -0.499540 4.217367 -0.367963
v -0.534454 4.449876 -0.375249
v -0.069053 4.441497 -0.194599
v -0.080727 4.210720 -0.191906
v -0.098122 3.968004 -0.182570
v -0.110837 3.744047 -0.201619
v -0.116210 3.513000 -0.222942
v -0.111953 3.319952 -0.246066
v -0.304922 3.326895 -0.390668
v -0.317133 3.515346 -0.360479
v -0.328561 3.747173 -0.365462
v -0.331776 3.974603 -0.364308
v -0.340792 4.216951 -0.364648
v -0.347348 4.448358 -0.372597
v -0.169789 4.431263 0.400050
v -0.169629 4.196173 0.356395
v -0.177193 3.953616 0.313359
v -0.184202 3.729002 0.264478
v -0.186085 3.497272 0.217945
v -0.180239 3.304724 0.192059
v -0.257951 3.301721 0.253851
v -0.268968 3.493127 0.293578
v -0.280479 3.726197 0.342513
v -0.279724 3.951121 0.396144
v -0.282438 4.194384 0.447573
v -0.287144 4.431022 0.482656
v -0.160438 4.444862 -0.316212
v -0.167870 4.214206 -0.309910
v -0.179176 3.972004 -0.314551
v -0.191360 3.746205 -0.317964
v -0.185607 3.514970 -0.316537
v -0.173400 3.324434 -0.338994
v -0.443576 3.300286 0.323640
v -0.455233 3.490519 0.364071
v -0.475704 3.723711 0.416574
v -0.490855 3.949402 0.474172
v -0.516381 4.194025 0.527791
v -0.543546 4.430922 0.566120
v -0.613620 3.303250 0.185918
v -0.624819 3.493341 0.212130
v -0.653772 3.726352 0.257527
v -0.679026 3.952511 0.305994
v -0.716880 4.197092 0.347500
v -0.757551 4.432886 0.388641
v -0.083515 4.434798 0.281107
v -0.091896 4.200857 0.247402
v -0.107630 3.958171 0.214862
v -0.117925 3.733740 0.172123
v -0.119645 3.502412 0.130793
v -0.117029 3.308795 0.103389
v -0.728312 3.309227 -0.005474
v -0.759138 3.499438 0.020091
v -0.796502 3.733082 0.054690
v -0.831462 3.958097 0.089847
v -0.878100 4.201905 0.121135
v -0.919928 4.439856 0.151453
v -0.046211 4.435288 0.165272
v -0.057911 4.203372 0.139524
v -0.076911 3.959862 0.116194
v -0.089492 3.735975 0.078897
v -0.092266 3.504743 0.042548
v -0.090034 3.310141 0.017365
v -0.214718 2.913503 0.113058
v -0.172876 2.920327 0.005514
v -0.156621 2.921635 -0.066568
v -0.147550 2.924578 -0.137427
v -0.147382 2.928078 -0.213313
v -0.158918 2.935611 -0.320655
v -0.285620 2.911918 0.189861
v -0.434751 2.917063 0.257661
v -0.627337 2.933042 0.115516
v -0.729199 2.947191 -0.100434
v -0.694086 2.955601 -0.274624
v -0.582479 2.963614 -0.414615
v -0.449357 2.965775 -0.463340
v -0.325619 2.961283 -0.461185
v -0.209788 2.949448 -0.406080
v -0.235767 2.832674 0.101615
v -0.191492 2.839228 -0.008064
v -0.174473 2.840980 -0.079806
v -0.165730 2.844890 -0.151282
v -0.165156 2.849699 -0.256019
v -0.177657 2.858256 -0.364460
v -0.307105 2.828286 0.160185
v -0.443331 2.831500 0.227159
v -0.645012 2.846245 0.088451
v -0.737909 2.864829 -0.121019
v -0.708890 2.870968 -0.299108
v -0.588413 2.885513 -0.461314
v -0.464645 2.880961 -0.498890
v -0.346518 2.877464 -0.496664
v -0.232192 2.871088 -0.449697
v -0.104898 3.179520 -0.160914
v -0.234316 2.660178 0.038338
v -0.190519 2.666912 -0.069775
v -0.168433 2.669655 -0.140648
v -0.165839 2.673768 -0.209749
v -0.167911 2.677739 -0.336692
v -0.183209 2.683875 -0.443336
v -0.302351 2.654394 0.098547
v -0.470741 2.657039 0.161437
v -0.679835 2.671596 0.038382
v -0.742913 2.696956 -0.366481
v -0.627335 2.706660 -0.545034
v -0.469529 2.700466 -0.578053
v -0.337770 2.696894 -0.575124
v -0.229068 2.692172 -0.528072
v -0.687213 3.185238 -0.234959
v -0.118774 3.184364 -0.264093
v -0.184596 3.170918 0.176112
v -0.173888 3.191260 -0.353176
v -0.128086 3.172818 0.074846
v -0.103731 3.173378 -0.004261
v -0.573104 3.194852 -0.368212
v -0.101138 3.176223 -0.079211
v -0.435082 3.199219 -0.411778
v -0.305739 3.198195 -0.408544
v -0.264264 3.170848 0.237154
v -0.440639 3.170798 0.303882
v -0.611218 3.173748 0.163492
v -0.717225 3.181073 -0.033362
v -0.770252 2.689589 -0.165462
v -0.237555 2.518275 0.007307
v -0.189749 2.522286 -0.101007
v -0.167215 2.522774 -0.172919
v -0.164569 2.523817 -0.241924
v -0.166774 2.524953 -0.369074
v -0.182494 2.526685 -0.477716
v -0.305269 2.515236 0.068593
v -0.489921 2.520633 0.131062
v -0.693319 2.524894 0.007274
v -0.792188 2.531712 -0.197780
v -0.765743 2.535045 -0.399281
v -0.649501 2.537183 -0.575892
v -0.468886 2.533289 -0.613301
v -0.337403 2.531673 -0.610087
v -0.232103 2.529062 -0.563311
v -0.344701 1.615203 -0.533343
v -0.464712 1.614186 -0.552232
v -0.620207 1.614420 -0.501567
v -0.726952 1.613847 -0.383497
v -0.748754 1.614996 -0.211177
v -0.641797 1.617523 -0.042625
v -0.462276 1.619345 0.079232
v -0.318070 1.620425 0.002204
v -0.213649 1.616790 -0.429679
v -0.203312 1.617956 -0.355230
v -0.205594 1.618334 -0.252034
v -0.210010 1.619687 -0.196979
v -0.226864 1.622214 -0.139309
v -0.258218 1.615727 -0.494421
v -0.266473 1.621029 -0.050637
v -0.179680 2.336428 -0.472751
v -0.185011 2.176648 -0.467910
v -0.202602 1.994539 -0.461150
v -0.203821 1.805439 -0.453783
v -0.163835 2.336820 -0.365996
v -0.169054 2.177057 -0.364371
v -0.178141 1.994349 -0.362630
v -0.195197 1.805646 -0.358846
v -0.806586 2.343851 -0.198890
v -0.811968 2.180306 -0.201552
v -0.793693 1.994807 -0.204695
v -0.776699 1.803002 -0.208019
v -0.311476 1.807358 0.019451
v -0.311317 1.996489 0.032433
v -0.312005 2.177749 0.046546
v -0.310576 2.332414 0.058112
v -0.160995 2.335894 -0.243552
v -0.166335 2.177126 -0.245305
v -0.176411 1.994166 -0.247125
v -0.193003 1.805178 -0.249170
v -0.215079 1.808230 -0.126293
v -0.210232 1.997298 -0.116633
v -0.204041 2.177812 -0.108635
v -0.187007 2.335114 -0.104459
v -0.669735 1.804268 -0.031710
v -0.696898 1.995498 -0.020782
v -0.707845 2.180113 -0.009862
v -0.702766 2.339672 -0.000701
v -0.471009 1.806113 0.089773
v -0.479730 1.994023 0.110409
v -0.497090 2.179114 0.114851
v -0.493083 2.340404 0.118347
v -0.241243 2.335978 -0.556216
v -0.246559 2.177232 -0.548358
v -0.247488 1.994958 -0.538234
v -0.253538 1.804466 -0.519025
v -0.755452 1.802805 -0.385457
v -0.773162 1.994544 -0.388252
v -0.789878 2.180468 -0.391370
v -0.783318 2.346043 -0.394962
v -0.243355 2.332812 -0.000651
v -0.247670 2.176845 -0.010863
v -0.253820 1.996365 -0.022681
v -0.255139 1.807407 -0.032885
v -0.649950 1.804132 -0.525148
v -0.679195 1.995423 -0.543766
v -0.697376 2.180906 -0.552465
v -0.683571 2.345776 -0.561353
v -0.466974 1.804298 -0.578295
v -0.458191 1.994767 -0.599605
v -0.462248 2.178375 -0.622701
v -0.465963 2.340463 -0.625416
v -0.195957 1.805892 -0.187526
v -0.180368 1.994787 -0.179898
v -0.170241 2.176690 -0.175217
v -0.164075 2.335027 -0.174517
v -0.342403 1.804500 -0.558898
v -0.339908 1.995233 -0.579766
v -0.338142 2.178237 -0.590603
v -0.337531 2.337963 -0.600287
v -0.375146 0.840513 -0.435441
v -0.455825 0.841334 -0.443611
v -0.567320 0.839418 -0.417022
v -0.629086 0.834162 -0.295332
v -0.647026 0.833093 -0.173439
v -0.592782 0.838511 -0.048515
v -0.450307 0.847690 0.046222
v -0.355767 0.848088 -0.011038
v -0.278496 0.835859 -0.328831
v -0.278634 0.837243 -0.252615
v -0.286940 0.839155 -0.186608
v -0.291016 0.839731 -0.149022
v -0.301788 0.841239 -0.111942
v -0.306565 0.838028 -0.395111
v -0.320922 0.843874 -0.049176
v -0.710236 1.449351 -0.348053
v -0.691434 1.283672 -0.343196
v -0.670616 1.129946 -0.311181
v -0.648323 0.982529 -0.304488
v -0.580957 0.984812 -0.420754
v -0.591072 1.130444 -0.434260
v -0.598340 1.283367 -0.461482
v -0.609570 1.448538 -0.484687
v -0.222665 1.450061 -0.403761
v -0.233519 1.284720 -0.383701
v -0.243085 1.131980 -0.361281
v -0.263331 0.987528 -0.338843
v -0.261807 0.989585 -0.268802
v -0.243160 1.131303 -0.289946
v -0.227144 1.284901 -0.317991
v -0.213377 1.451379 -0.320852
v -0.465177 1.454928 0.067410
v -0.462001 1.289325 0.058785
v -0.457425 1.136675 0.051393
v -0.453922 0.988522 0.047868
v -0.598990 0.986722 -0.049548
v -0.611900 1.135703 -0.051544
v -0.619341 1.289169 -0.050859
v -0.632516 1.453551 -0.048454
v -0.282453 1.451750 -0.079242
v -0.299634 1.287926 -0.062736
v -0.310823 1.135045 -0.064948
v -0.315684 0.991265 -0.051393
v -0.348684 0.990628 -0.012444
v -0.344667 1.136891 -0.019758
v -0.340132 1.289540 -0.014413
v -0.327290 1.452631 -0.022930
v -0.220768 1.450890 -0.230782
v -0.238502 1.283549 -0.232943
v -0.262114 1.130347 -0.213785
v -0.272374 0.991705 -0.195985
v -0.278250 0.991993 -0.154719
v -0.273837 1.131064 -0.169419
v -0.249758 1.284138 -0.186539
v -0.231203 1.451213 -0.185975
v -0.249353 1.452455 -0.137920
v -0.272841 1.286422 -0.132119
v -0.287238 1.133670 -0.116552
v -0.292317 0.992412 -0.108832
v -0.664333 0.983208 -0.177819
v -0.688155 1.132051 -0.185705
v -0.711724 1.286075 -0.198983
v -0.730921 1.451216 -0.213538
v -0.454906 0.986092 -0.450272
v -0.458955 1.130804 -0.464653
v -0.462483 1.282696 -0.492532
v -0.465248 1.447720 -0.516498
v -0.257199 1.448667 -0.474311
v -0.272332 1.282750 -0.450464
v -0.279778 1.131017 -0.425328
v -0.296744 0.986574 -0.405234
v -0.367484 0.986305 -0.444835
v -0.349563 1.130629 -0.461717
v -0.352083 1.282439 -0.489444
v -0.338198 1.448266 -0.513768
vn -0.0000 -0.2254 0.9743
vn -0.1110 -0.1878 0.9759
vn -0.0000 -0.4845 0.8748
vn -0.2462 -0.3050 0.9200
vn -0.0000 -0.8900 0.4560
vn -0.3854 -0.5766 0.7204
vn 0.9989 -0.0455 0.0101
vn 0.6648 -0.6789 0.3116
vn 1.0000 -0.0000 -0.0000
vn 0.9468 -0.3082 -0.0928
vn 0.1050 -0.9319 -0.3473
vn -0.0000 -0.8121 -0.5835
vn -0.0933 -0.7815 -0.6169
vn -0.0000 -0.5803 -0.8144
vn -0.0602 -0.0971 0.9935
vn -0.1606 -0.0638 0.9850
vn 0.3032 0.0242 0.9526
vn 0.2785 0.0791 0.9572
vn 0.7826 0.1431 0.6058
vn 0.7932 0.1776 0.5825
vn 0.9556 0.2722 0.1130
vn 0.9556 0.2716 0.1145
vn 0.9247 0.3218 -0.2035
vn 0.9268 0.2972 -0.2297
vn 0.6645 0.3727 -0.6477
vn 0.7368 0.2542 -0.6265
vn 0.1972 0.2692 -0.9427
vn 0.2468 0.1130 -0.9625
vn -0.1170 0.0915 -0.9889
vn -0.1352 -0.1541 -0.9788
vn -0.1240 -0.4671 -0.8755
vn -0.0000 -0.1628 -0.9867
vn -0.0400 -0.1403 -0.9893
vn -0.0000 -0.0771 0.9970
vn -0.0000 -0.1295 0.9916
vn -0.0000 -0.1626 0.9867
vn -0.0000 -0.1463 0.9892
vn -0.0000 -0.1602 0.9871
vn -0.0286 -0.1516 0.9880
vn -0.0091 -0.1383 0.9903
vn -0.0050 -0.1489 0.9888
vn 0.0173 -0.0996 0.9949
vn 0.0380 -0.0753 0.9964
vn -0.0070 0.4941 -0.8694
vn 0.0017 0.5741 -0.8188
vn 0.0131 0.5815 -0.8134
vn -0.0175 0.3719 -0.9281
vn -0.0516 0.2067 -0.9770
vn -0.0000 0.4802 -0.8772
vn -0.0000 0.5843 -0.8115
vn -0.0000 0.5555 -0.8315
vn -0.0000 0.3573 -0.9340
vn -0.0000 0.2086 -0.9780
vn 0.1463 -0.0558 0.9877
vn 0.1259 -0.0539 0.9906
vn 0.0775 -0.0906 0.9929
vn 0.0349 -0.1291 0.9910
vn -0.0051 -0.1083 0.9941
vn 0.3754 -0.0044 0.9269
vn 0.4076 0.0128 0.9131
vn 0.3906 0.0038 0.9206
vn 0.3829 -0.0597 0.9218
vn 0.3495 -0.0565 0.9352
vn 0.6804 0.2337 0.6946
vn 0.7806 0.2938 0.5517
vn 0.8029 0.1600 0.5742
vn 0.7864 0.1229 0.6053
vn 0.7976 0.1050 0.5940
vn 0.6244 0.7463 0.2304
vn 0.6515 0.7503 0.1119
vn 0.9514 0.2933 0.0940
vn 0.9452 0.3094 0.1047
vn 0.9510 0.2830 0.1245
vn 0.0513 0.9983 -0.0259
vn 0.6534 0.7345 -0.1834
vn 0.8945 0.3728 -0.2466
vn 0.8895 0.3989 -0.2229
vn 0.9137 0.3547 -0.1985
vn 0.1627 0.9345 -0.3166
vn 0.4337 0.6976 -0.5703
vn 0.5495 0.5312 -0.6449
vn 0.5704 0.5607 -0.6002
vn 0.6491 0.4642 -0.6026
vn 0.0516 0.7657 -0.6411
vn 0.1027 0.6419 -0.7599
vn 0.1265 0.6111 -0.7814
vn 0.1576 0.5857 -0.7951
vn 0.1769 0.4260 -0.8873
vn -0.0196 0.5746 -0.8182
vn -0.0252 0.5980 -0.8011
vn -0.0511 0.6077 -0.7925
vn -0.0659 0.4757 -0.8771
vn -0.0879 0.2787 -0.9563
vn -0.5000 -0.1947 0.8439
vn -0.5267 0.0168 0.8499
vn -1.0000 0.0022 -0.0001
vn -1.0000 -0.0000 -0.0000
vn 0.8949 -0.2852 -0.3432
vn -0.8938 -0.3092 -0.3250
vn -0.2790 -0.0341 0.9597
vn 0.2291 0.1305 0.9646
vn 0.7879 0.1763 0.5900
vn 0.9610 0.2340 0.1476
vn 0.9402 0.2315 -0.2500
vn 0.7503 0.1147 -0.6511
vn 0.3134 -0.1115 -0.9430
vn -0.1549 -0.3262 -0.9325
vn -0.5532 -0.4194 -0.7198
vn -0.6283 -0.0526 0.7762
vn -0.8930 -0.0878 0.4415
vn -0.7798 -0.3887 0.4908
vn -0.9939 -0.1101 -0.0114
vn -0.7950 -0.1884 -0.5766
vn -0.9187 -0.0455 -0.3922
vn -0.4010 -0.0326 0.9155
vn 0.2222 -0.0439 0.9740
vn 0.7762 -0.0266 0.6300
vn 0.9783 0.0134 0.2069
vn 0.9413 0.0173 -0.3370
vn 0.6098 -0.0315 -0.7919
vn 0.1698 -0.0665 -0.9832
vn -0.1348 -0.0725 -0.9882
vn -0.5724 -0.0667 -0.8173
vn -0.9973 -0.0564 0.0469
vn -0.3206 -0.1063 0.9412
vn -0.5127 0.0409 0.8576
vn 0.9694 0.1853 0.1611
vn 0.9790 0.1127 0.1696
vn 0.9483 0.0951 -0.3027
vn 0.9476 0.1604 -0.2764
vn 0.6747 -0.0455 -0.7367
vn 0.7313 -0.0227 -0.6817
vn -0.9729 -0.1065 -0.2051
vn -0.9380 -0.0766 -0.3380
vn 0.2379 -0.2327 -0.9430
vn 0.3237 -0.3083 -0.8945
vn -0.9154 -0.1955 -0.3519
vn -0.9180 -0.1212 -0.3775
vn -0.0584 -0.3192 -0.9459
vn -0.1055 -0.4508 -0.8864
vn -0.6217 0.0085 0.7832
vn -0.6073 -0.0332 0.7938
vn -0.3929 -0.0056 0.9196
vn -0.3970 0.0140 0.9177
vn -0.5762 -0.4008 -0.7123
vn -0.5441 -0.2937 -0.7860
vn 0.2138 0.0236 0.9766
vn 0.2326 0.1021 0.9672
vn 0.7844 0.0625 0.6171
vn 0.7768 0.1580 0.6096
vn -0.6600 -0.1111 0.7430
vn -0.8806 -0.1274 0.4564
vn -0.9836 -0.1102 0.1430
vn -0.9960 -0.0895 -0.0044
vn -0.9912 -0.0868 -0.0999
vn -0.9156 -0.0814 -0.3936
vn -0.4156 -0.0963 0.9044
vn 0.2082 -0.1241 0.9702
vn 0.7548 -0.1111 0.6465
vn 0.9693 -0.0869 0.2300
vn 0.9283 -0.0725 -0.3648
vn 0.5730 -0.0603 -0.8174
vn 0.1611 -0.0346 -0.9863
vn -0.1469 -0.0291 -0.9887
vn -0.5746 -0.0586 -0.8164
vn -0.7818 -0.2307 0.5793
vn -0.9158 -0.2406 0.3216
vn -0.9593 -0.2316 0.1615
vn -0.9810 -0.1925 0.0230
vn -0.9858 -0.1574 -0.0587
vn -0.9466 -0.0863 -0.3106
vn -0.5067 -0.2020 0.8381
vn 0.1442 -0.1795 0.9731
vn 0.7671 -0.1005 0.6336
vn 0.9867 0.0076 0.1621
vn 0.8974 0.1176 -0.4252
vn 0.5599 0.1896 -0.8066
vn 0.1438 0.2188 -0.9651
vn -0.2484 0.1826 -0.9513
vn -0.6907 0.0578 -0.7208
vn 0.9148 -0.1262 -0.3838
vn 0.9084 -0.1451 -0.3921
vn 0.9135 -0.1203 -0.3885
vn 0.9098 -0.1025 -0.4023
vn 0.9036 -0.0977 -0.4171
vn 0.9057 -0.0583 -0.4200
vn 0.5212 0.0611 -0.8512
vn 0.5120 -0.0024 -0.8590
vn 0.5160 -0.0413 -0.8556
vn 0.5254 -0.0446 -0.8497
vn 0.5316 -0.0715 -0.8440
vn 0.5487 -0.0801 -0.8322
vn -0.9908 -0.0850 -0.1049
vn -0.9918 -0.0649 -0.1103
vn -0.9918 -0.0623 -0.1119
vn -0.9923 -0.0254 -0.1210
vn -0.7300 -0.6735 -0.1164
vn -0.7483 0.0489 -0.6615
vn -0.9994 -0.0160 -0.0317
vn -0.9993 -0.0352 -0.0101
vn -0.9976 -0.0689 -0.0048
vn -0.9977 -0.0673 -0.0014
vn -0.9960 -0.0890 -0.0009
vn 0.1229 0.1330 -0.9835
vn 0.1102 0.0559 -0.9923
vn 0.1068 -0.0147 -0.9942
vn 0.1084 -0.0041 -0.9941
vn 0.1170 -0.0239 -0.9928
vn 0.1395 -0.0393 -0.9894
vn -0.9130 -0.0798 -0.4001
vn -0.9191 -0.0579 -0.3898
vn -0.9280 -0.0487 -0.3695
vn -0.9227 -0.0084 -0.3854
vn -0.9281 0.0205 -0.3717
vn -0.9400 0.0372 -0.3393
vn -0.1980 0.1416 -0.9699
vn -0.1806 0.0744 -0.9807
vn -0.1714 -0.0033 -0.9852
vn -0.1697 0.0039 -0.9855
vn -0.1611 -0.0139 -0.9868
vn -0.1479 -0.0322 -0.9885
vn -0.6910 -0.1321 0.7107
vn -0.7190 -0.1310 0.6826
vn -0.7221 -0.1554 0.6741
vn -0.7261 -0.1485 0.6713
vn -0.7313 -0.1063 0.6737
vn -0.7357 -0.1054 0.6691
vn -0.5033 -0.1324 0.8539
vn -0.5067 -0.1505 0.8489
vn -0.4960 -0.1820 0.8490
vn -0.4863 -0.1860 0.8538
vn -0.4717 -0.1488 0.8691
vn -0.4423 -0.1274 0.8878
vn -0.5671 -0.0578 -0.8216
vn -0.5910 -0.0326 -0.8060
vn -0.6063 -0.0167 -0.7951
vn -0.5983 0.0022 -0.8012
vn -0.6054 0.0737 -0.7925
vn -0.6268 0.1056 -0.7720
vn 0.1602 -0.1784 0.9708
vn 0.1686 -0.2154 0.9619
vn 0.1806 -0.2452 0.9525
vn 0.1757 -0.2444 0.9536
vn 0.1834 -0.2129 0.9597
vn 0.1884 -0.1847 0.9646
vn 0.7482 -0.1551 0.6450
vn 0.7377 -0.1931 0.6470
vn 0.7323 -0.2188 0.6449
vn 0.7288 -0.2230 0.6474
vn 0.7277 -0.2230 0.6487
vn 0.7336 -0.1941 0.6513
vn -0.8831 -0.1258 0.4521
vn -0.8914 -0.1056 0.4408
vn -0.8901 -0.1214 0.4394
vn -0.8909 -0.1079 0.4411
vn -0.8921 -0.0677 0.4467
vn -0.8975 -0.0912 0.4315
vn 0.9663 -0.1433 0.2138
vn 0.9575 -0.1758 0.2287
vn 0.9536 -0.1854 0.2371
vn 0.9494 -0.1991 0.2430
vn 0.9475 -0.2102 0.2408
vn 0.9537 -0.1732 0.2457
vn -0.9798 -0.1048 0.1706
vn -0.9826 -0.0802 0.1677
vn -0.9821 -0.0878 0.1668
vn -0.9850 -0.0600 0.1619
vn -0.9864 -0.0238 0.1625
vn -0.9842 -0.0666 0.1642
vn -0.8027 -0.3079 0.5108
vn -0.9192 -0.2758 0.2812
vn -0.9554 -0.2518 0.1543
vn -0.9741 -0.2218 0.0433
vn -0.9801 -0.1906 -0.0563
vn -0.9463 -0.0822 -0.3127
vn -0.5255 -0.3123 0.7914
vn 0.1072 -0.2545 0.9611
vn 0.7686 -0.0740 0.6354
vn 0.9861 0.1093 0.1251
vn 0.8881 0.2497 -0.3859
vn 0.5625 0.3642 -0.7422
vn 0.1424 0.3750 -0.9160
vn -0.2351 0.3026 -0.9237
vn -0.6823 0.1397 -0.7176
vn -0.7869 -0.2616 0.5589
vn -0.9358 -0.1849 0.3001
vn -0.9738 -0.1455 0.1748
vn -0.9918 -0.1195 0.0464
vn -0.9940 -0.0866 -0.0663
vn -0.9429 0.0463 -0.3299
vn -0.5087 -0.3323 0.7942
vn 0.0981 -0.3050 0.9473
vn 0.7659 -0.0706 0.6391
vn 0.9821 0.1297 0.1366
vn 0.8923 0.2890 -0.3469
vn 0.5183 0.4265 -0.7413
vn 0.1125 0.4227 -0.8993
vn -0.1979 0.3790 -0.9040
vn -0.6367 0.2671 -0.7234
vn -0.9941 -0.0667 -0.0855
vn -0.8133 -0.1621 0.5588
vn -0.9418 -0.0860 0.3250
vn -0.9851 -0.0343 0.1685
vn -0.9998 -0.0013 0.0213
vn -0.9968 0.0210 -0.0770
vn -0.9400 0.1035 -0.3252
vn -0.5093 -0.2505 0.8233
vn 0.1066 -0.2438 0.9640
vn 0.7590 -0.0511 0.6491
vn 0.9046 0.2545 -0.3418
vn 0.5308 0.3226 -0.7837
vn 0.0868 0.3092 -0.9470
vn -0.2129 0.2975 -0.9307
vn -0.6527 0.2330 -0.7209
vn 0.9066 -0.0176 -0.4216
vn -0.9444 -0.0234 -0.3279
vn -0.7547 -0.1427 0.6403
vn -0.6570 0.0583 -0.7516
vn -0.9107 -0.1635 0.3793
vn -0.9742 -0.1589 0.1602
vn 0.5489 0.0612 -0.8336
vn -0.9940 -0.1060 -0.0275
vn 0.1445 0.1197 -0.9822
vn -0.2151 0.1232 -0.9688
vn -0.4854 -0.1339 0.8640
vn 0.1618 -0.1603 0.9737
vn 0.7641 -0.1377 0.6302
vn 0.9802 -0.0979 0.1722
vn 0.9817 0.1246 0.1441
vn -0.8101 -0.0864 0.5799
vn -0.9341 -0.0394 0.3549
vn -0.9865 -0.0055 0.1635
vn -0.9999 0.0119 0.0090
vn -0.9962 0.0200 -0.0853
vn -0.9363 0.0307 -0.3498
vn -0.5067 -0.1333 0.8518
vn 0.1239 -0.1250 0.9844
vn 0.7467 -0.0205 0.6648
vn 0.9858 0.0852 0.1448
vn 0.9269 0.1404 -0.3479
vn 0.5527 0.1357 -0.8222
vn 0.0782 0.1076 -0.9911
vn -0.2386 0.0897 -0.9670
vn -0.6509 0.0554 -0.7572
vn -0.2684 -0.1322 -0.9542
vn 0.0782 -0.1533 -0.9851
vn 0.5388 -0.1640 -0.8263
vn 0.9003 -0.1534 -0.4072
vn 0.9688 -0.1311 0.2104
vn 0.7118 -0.0984 0.6954
vn 0.0361 -0.0973 0.9946
vn -0.6014 -0.1104 0.7913
vn -0.9371 -0.0843 -0.3388
vn -0.9966 -0.0646 -0.0509
vn -0.9954 -0.0715 0.0638
vn -0.9752 -0.0901 0.2022
vn -0.9273 -0.1045 0.3595
vn -0.6475 -0.1097 -0.7541
vn -0.8199 -0.1229 0.5592
vn -0.9286 -0.0269 -0.3702
vn -0.9214 -0.0589 -0.3842
vn -0.9232 -0.0642 -0.3788
vn -0.9269 -0.0696 -0.3689
vn -0.9964 -0.0098 -0.0843
vn -0.9941 -0.0494 -0.0970
vn -0.9926 -0.0676 -0.1006
vn -0.9952 -0.0633 -0.0742
vn 0.9829 0.0459 0.1786
vn 0.9823 -0.0345 0.1843
vn 0.9761 -0.1016 0.1922
vn 0.9702 -0.1311 0.2036
vn -0.5652 -0.0714 0.8219
vn -0.5476 -0.0535 0.8350
vn -0.5205 -0.0523 0.8523
vn -0.5004 -0.0612 0.8636
vn -0.9999 -0.0087 0.0121
vn -0.9989 -0.0446 0.0162
vn -0.9973 -0.0709 0.0187
vn -0.9968 -0.0759 0.0254
vn -0.9274 -0.0693 0.3677
vn -0.9114 -0.0530 0.4081
vn -0.9052 -0.0662 0.4198
vn -0.9187 -0.0409 0.3927
vn 0.7091 -0.1246 0.6940
vn 0.7202 -0.1029 0.6861
vn 0.7247 -0.0436 0.6877
vn 0.7248 0.0020 0.6890
vn 0.0593 -0.1014 0.9931
vn 0.0586 -0.0818 0.9949
vn 0.1007 -0.0486 0.9937
vn 0.1003 -0.0468 0.9939
vn -0.6361 -0.0490 -0.7701
vn -0.6334 -0.0598 -0.7715
vn -0.6437 -0.0737 -0.7617
vn -0.6349 -0.1016 -0.7658
vn 0.9212 -0.1361 -0.3646
vn 0.9381 -0.1052 -0.3300
vn 0.9486 -0.0305 -0.3149
vn 0.9437 0.0614 -0.3250
vn -0.7933 -0.0570 0.6062
vn -0.8005 -0.0671 0.5955
vn -0.8118 -0.0511 0.5817
vn -0.8172 -0.0695 0.5722
vn 0.5604 -0.1452 -0.8154
vn 0.5917 -0.1179 -0.7974
vn 0.6256 -0.0485 -0.7786
vn 0.6102 0.0311 -0.7916
vn 0.0641 -0.1300 -0.9894
vn 0.0355 -0.1063 -0.9937
vn 0.0309 -0.0638 -0.9975
vn 0.0530 -0.0103 -0.9985
vn -0.9774 -0.0785 0.1961
vn -0.9699 -0.0672 0.2338
vn -0.9697 -0.0565 0.2378
vn -0.9802 -0.0208 0.1968
vn -0.2838 -0.1205 -0.9513
vn -0.2989 -0.0909 -0.9499
vn -0.3167 -0.0597 -0.9466
vn -0.2918 -0.0345 -0.9558
vn -0.2935 -0.0737 -0.9531
vn 0.0765 -0.0517 -0.9957
vn 0.5969 -0.0888 -0.7974
vn 0.9439 -0.1246 -0.3059
vn 0.9825 -0.0984 0.1581
vn 0.7574 -0.0438 0.6514
vn 0.0309 -0.0163 0.9994
vn -0.6361 -0.0154 0.7714
vn -0.9716 -0.1066 -0.2112
vn -0.9928 -0.0975 0.0691
vn -0.9876 -0.0862 0.1310
vn -0.9751 -0.0751 0.2087
vn -0.9490 -0.0578 0.3100
vn -0.7377 -0.0998 -0.6678
vn -0.8634 -0.0364 0.5032
vn 0.9172 -0.1345 -0.3752
vn 0.9106 -0.1516 -0.3845
vn 0.9274 -0.1620 -0.3371
vn 0.9368 -0.1359 -0.3223
vn 0.5962 -0.1090 -0.7954
vn 0.5668 -0.1620 -0.8078
vn 0.5363 -0.1680 -0.8271
vn 0.5358 -0.1563 -0.8298
vn -0.9485 -0.0971 -0.3016
vn -0.9518 -0.1092 -0.2866
vn -0.9559 -0.1362 -0.2602
vn -0.9650 -0.1343 -0.2252
vn -0.9916 -0.1007 0.0814
vn -0.9913 -0.1022 0.0827
vn -0.9954 -0.0911 0.0282
vn -0.9967 -0.0798 -0.0130
vn 0.0346 -0.0725 0.9968
vn 0.0245 -0.0450 0.9987
vn 0.0221 -0.0313 0.9993
vn 0.0261 -0.0155 0.9995
vn 0.7447 -0.0543 0.6652
vn 0.7337 -0.0611 0.6768
vn 0.7256 -0.0587 0.6856
vn 0.7254 -0.0662 0.6852
vn -0.8394 -0.1021 0.5339
vn -0.8499 -0.0547 0.5241
vn -0.8607 -0.0249 0.5085
vn -0.8591 -0.0132 0.5116
vn -0.6478 -0.0002 0.7618
vn -0.6637 -0.0157 0.7478
vn -0.6586 -0.0326 0.7518
vn -0.6534 -0.0802 0.7528
vn -0.9866 -0.0906 0.1359
vn -0.9762 -0.1044 0.1900
vn -0.9748 -0.0816 0.2074
vn -0.9839 -0.0678 0.1652
vn -0.9741 -0.0472 0.2212
vn -0.9635 -0.0602 0.2607
vn -0.9502 -0.1064 0.2928
vn -0.9570 -0.1056 0.2703
vn -0.9149 -0.1108 0.3883
vn -0.9226 -0.0846 0.3764
vn -0.9380 -0.0395 0.3444
vn -0.9458 -0.0319 0.3232
vn 0.9785 -0.1154 0.1710
vn 0.9728 -0.1250 0.1952
vn 0.9736 -0.1097 0.2003
vn 0.9758 -0.1035 0.1927
vn 0.0823 -0.0801 -0.9934
vn 0.0953 -0.1453 -0.9848
vn 0.0974 -0.1643 -0.9816
vn 0.0945 -0.1550 -0.9834
vn -0.6832 -0.1264 -0.7192
vn -0.6813 -0.1528 -0.7159
vn -0.6933 -0.1644 -0.7017
vn -0.7162 -0.1417 -0.6834
vn -0.2749 -0.1080 -0.9554
vn -0.2619 -0.1592 -0.9519
vn -0.2307 -0.1667 -0.9586
vn -0.2531 -0.1448 -0.9565
vn 0.1110 -0.1878 0.9759
vn 0.2462 -0.3050 0.9200
vn 0.3854 -0.5766 0.7204
vn 0.0933 -0.7815 -0.6169
vn 0.0602 -0.0971 0.9935
vn 0.1606 -0.0638 0.9850
vn -0.3032 0.0242 0.9526
vn -0.2785 0.0791 0.9572
vn -0.7826 0.1431 0.6058
vn -0.7932 0.1776 0.5825
vn -0.9556 0.2722 0.1130
vn -0.9556 0.2716 0.1145
vn -0.9247 0.3218 -0.2035
vn -0.9268 0.2972 -0.2297
vn -0.6645 0.3727 -0.6477
vn -0.7368 0.2542 -0.6265
vn -0.1972 0.2692 -0.9427
vn -0.2468 0.1130 -0.9625
vn 0.1170 0.0915 -0.9889
vn 0.1352 -0.1541 -0.9788
vn 0.1240 -0.4671 -0.8755
vn 0.0400 -0.1403 -0.9893
vn 0.0286 -0.1516 0.9880
vn 0.0091 -0.1383 0.9903
vn 0.0050 -0.1489 0.9888
vn -0.0173 -0.0996 0.9949
vn -0.0380 -0.0753 0.9964
vn 0.0070 0.4941 -0.8694
vn -0.0017 0.5741 -0.8188
vn -0.0131 0.5815 -0.8134
vn 0.0175 0.3719 -0.9281
vn 0.0516 0.2067 -0.9770
vn -0.1463 -0.0558 0.9877
vn -0.1259 -0.0539 0.9906
vn -0.0775 -0.0906 0.9929
vn -0.0349 -0.1291 0.9910
vn 0.0051 -0.1083 0.9941
vn -0.3754 -0.0044 0.9269
vn -0.4076 0.0128 0.9131
vn -0.3906 0.0038 0.9206
vn -0.3829 -0.0597 0.9218
vn -0.3495 -0.0565 0.9352
vn -0.6804 0.2337 0.6946
vn -0.7806 0.2938 0.5517
vn -0.8029 0.1600 0.5742
vn -0.7864 0.1229 0.6053
vn -0.7976 0.1050 0.5940
vn -0.6244 0.7463 0.2304
vn -0.6515 0.7503 0.1119
vn -0.9514 0.2933 0.0940
vn -0.9452 0.3094 0.1047
vn -0.9510 0.2830 0.1245
vn -0.0513 0.9983 -0.0259
vn -0.6534 0.7345 -0.1834
vn -0.8945 0.3728 -0.2466
vn -0.8895 0.3989 -0.2229
vn -0.9137 0.3547 -0.1985
vn -0.1627 0.9345 -0.3166
vn -0.4337 0.6976 -0.5703
vn -0.5495 0.5312 -0.6449
vn -0.5704 0.5607 -0.6002
vn -0.6491 0.4642 -0.6026
vn -0.0516 0.7657 -0.6411
vn -0.1027 0.6419 -0.7599
vn -0.1265 0.6111 -0.7814
vn -0.1576 0.5857 -0.7951
vn -0.1769 0.4260 -0.8873
vn 0.0196 0.5746 -0.8182
vn 0.0252 0.5980 -0.8011
vn 0.0511 0.6077 -0.7925
vn 0.0659 0.4757 -0.8771
vn 0.0879 0.2787 -0.9563
vn 0.5000 -0.1947 0.8439
vn 0.8938 -0.3092 -0.3250
vn 0.2790 -0.0341 0.9597
vn -0.2291 0.1305 0.9646
vn -0.7879 0.1763 0.5900
vn -0.9610 0.2340 0.1476
vn -0.9402 0.2315 -0.2500
vn -0.7503 0.1147 -0.6511
vn -0.3134 -0.1115 -0.9430
vn 0.1549 -0.3262 -0.9325
vn 0.5532 -0.4194 -0.7198
vn 0.6283 -0.0526 0.7762
vn 0.8930 -0.0878 0.4415
vn 0.9187 -0.0455 -0.3922
vn 0.4010 -0.0326 0.9155
vn -0.2222 -0.0439 0.9740
vn -0.7762 -0.0266 0.6300
vn -0.9783 0.0134 0.2069
vn -0.9413 0.0173 -0.3370
vn -0.6098 -0.0315 -0.7919
vn -0.1698 -0.0665 -0.9832
vn 0.1348 -0.0725 -0.9882
vn 0.5724 -0.0667 -0.8173
vn -0.9694 0.1853 0.1611
vn -0.9790 0.1127 0.1696
vn -0.9483 0.0951 -0.3027
vn -0.9476 0.1604 -0.2764
vn -0.6747 -0.0455 -0.7367
vn -0.7313 -0.0227 -0.6817
vn -0.2379 -0.2327 -0.9430
vn -0.3237 -0.3083 -0.8945
vn 0.9154 -0.1955 -0.3519
vn 0.9180 -0.1212 -0.3775
vn 0.0584 -0.3192 -0.9459
vn 0.1055 -0.4508 -0.8864
vn 0.6217 0.0085 0.7832
vn 0.6073 -0.0332 0.7938
vn 0.3929 -0.0056 0.9196
vn 0.3970 0.0140 0.9177
vn 0.5762 -0.4008 -0.7123
vn 0.5441 -0.2937 -0.7860
vn -0.2138 0.0236 0.9766
vn -0.2326 0.1021 0.9672
vn -0.7844 0.0625 0.6171
vn -0.7768 0.1580 0.6096
vn 0.6600 -0.1111 0.7430
vn 0.8806 -0.1274 0.4564
vn 0.9836 -0.1102 0.1430
vn 0.9960 -0.0895 -0.0044
vn 0.9912 -0.0868 -0.0999
vn 0.9156 -0.0814 -0.3936
vn 0.4156 -0.0963 0.9044
vn -0.2082 -0.1241 0.9702
vn -0.7548 -0.1111 0.6465
vn -0.9693 -0.0869 0.2300
vn -0.9283 -0.0725 -0.3648
vn -0.5730 -0.0603 -0.8174
vn -0.1611 -0.0346 -0.9863
vn 0.1469 -0.0291 -0.9887
vn 0.5746 -0.0586 -0.8164
vn 0.7818 -0.2307 0.5793
vn 0.9158 -0.2406 0.3216
vn 0.9593 -0.2316 0.1615
vn 0.9810 -0.1925 0.0230
vn 0.9858 -0.1574 -0.0587
vn 0.9466 -0.0863 -0.3106
vn 0.5067 -0.2020 0.8381
vn -0.1442 -0.1795 0.9731
vn -0.7671 -0.1005 0.6336
vn -0.9867 0.0076 0.1621
vn -0.8974 0.1176 -0.4252
vn -0.5599 0.1896 -0.8066
vn -0.1438 0.2188 -0.9651
vn 0.2484 0.1826 -0.9513
vn 0.6907 0.0578 -0.7208
vn -0.9148 -0.1262 -0.3838
vn -0.9084 -0.1451 -0.3921
vn -0.9135 -0.1203 -0.3885
vn -0.9098 -0.1025 -0.4023
vn -0.9036 -0.0977 -0.4171
vn -0.9057 -0.0583 -0.4200
vn -0.5212 0.0611 -0.8512
vn -0.5120 -0.0024 -0.8590
vn -0.5160 -0.0413 -0.8556
vn -0.5254 -0.0446 -0.8497
vn -0.5316 -0.0715 -0.8440
vn -0.5487 -0.0801 -0.8322
vn 0.9908 -0.0850 -0.1049
vn 0.9918 -0.0649 -0.1103
vn 0.9918 -0.0623 -0.1119
vn 0.9923 -0.0254 -0.1210
vn 0.7300 -0.6735 -0.1164
vn 0.7483 0.0489 -0.6615
vn 0.9994 -0.0160 -0.0317
vn 0.9993 -0.0352 -0.0101
vn 0.9976 -0.0689 -0.0048
vn 0.9977 -0.0673 -0.0014
vn 0.9960 -0.0890 -0.0009
vn -0.1229 0.1330 -0.9835
vn -0.1102 0.0559 -0.9923
vn -0.1068 -0.0147 -0.9942
vn -0.1084 -0.0041 -0.9941
vn -0.1170 -0.0239 -0.9928
vn -0.1395 -0.0393 -0.9894
vn 0.9130 -0.0798 -0.4001
vn 0.9191 -0.0579 -0.3898
vn 0.9280 -0.0487 -0.3695
vn 0.9227 -0.0084 -0.3854
vn 0.9281 0.0205 -0.3717
vn 0.9400 0.0372 -0.3393
vn 0.1980 0.1416 -0.9699
vn 0.1806 0.0744 -0.9807
vn 0.1714 -0.0033 -0.9852
vn 0.1697 0.0039 -0.9855
vn 0.1611 -0.0139 -0.9868
vn 0.1479 -0.0322 -0.9885
vn 0.6910 -0.1321 0.7107
vn 0.7190 -0.1310 0.6826
vn 0.7221 -0.1554 0.6741
vn 0.7261 -0.1485 0.6713
vn 0.7313 -0.1063 0.6737
vn 0.7357 -0.1054 0.6691
vn 0.5033 -0.1324 0.8539
vn 0.5067 -0.1505 0.8489
vn 0.4960 -0.1820 0.8490
vn 0.4863 -0.1860 0.8538
vn 0.4717 -0.1488 0.8691
vn 0.4423 -0.1274 0.8878
vn 0.5671 -0.0578 -0.8216
vn 0.5910 -0.0326 -0.8060
vn 0.6063 -0.0167 -0.7951
vn 0.5983 0.0022 -0.8012
vn 0.6054 0.0737 -0.7925
vn 0.6268 0.1056 -0.7720
vn -0.1602 -0.1784 0.9708
vn -0.1686 -0.2154 0.9619
vn -0.1806 -0.2452 0.9525
vn -0.1757 -0.2444 0.9536
vn -0.1834 -0.2129 0.9597
vn -0.1884 -0.1847 0.9646
vn -0.7482 -0.1551 0.6450
vn -0.7377 -0.1931 0.6470
vn -0.7323 -0.2188 0.6449
vn -0.7288 -0.2230 0.6474
vn -0.7277 -0.2230 0.6487
vn -0.7336 -0.1941 0.6513
vn 0.8831 -0.1258 0.4521
vn 0.8914 -0.1056 0.4408
vn 0.8901 -0.1214 0.4394
vn 0.8909 -0.1079 0.4411
vn 0.8921 -0.0677 0.4467
vn 0.8975 -0.0912 0.4315
vn -0.9663 -0.1433 0.2138
vn -0.9575 -0.1758 0.2287
vn -0.9536 -0.1854 0.2371
vn -0.9494 -0.1991 0.2430
vn -0.9475 -0.2102 0.2408
vn -0.9537 -0.1732 0.2457
vn 0.9798 -0.1048 0.1706
vn 0.9826 -0.0802 0.1677
vn 0.9821 -0.0878 0.1668
vn 0.9850 -0.0600 0.1619
vn 0.9864 -0.0238 0.1625
vn 0.9842 -0.0666 0.1642
vn 0.8027 -0.3079 0.5108
vn 0.9192 -0.2758 0.2812
vn 0.9554 -0.2518 0.1543
vn 0.9741 -0.2218 0.0433
vn 0.9801 -0.1906 -0.0563
vn 0.9463 -0.0822 -0.3127
vn 0.5255 -0.3123 0.7914
vn -0.1072 -0.2545 0.9611
vn -0.7686 -0.0740 0.6354
vn -0.9861 0.1093 0.1251
vn -0.8881 0.2497 -0.3859
vn -0.5625 0.3642 -0.7422
vn -0.1424 0.3750 -0.9160
vn 0.2351 0.3026 -0.9237
vn 0.6823 0.1397 -0.7176
vn 0.7869 -0.2616 0.5589
vn 0.9358 -0.1849 0.3001
vn 0.9738 -0.1455 0.1748
vn 0.9918 -0.1195 0.0464
vn 0.9940 -0.0866 -0.0663
vn 0.9429 0.0463 -0.3299
vn 0.5087 -0.3323 0.7942
vn -0.0981 -0.3050 0.9473
vn -0.7659 -0.0706 0.6391
vn -0.9821 0.1297 0.1366
vn -0.8923 0.2890 -0.3469
vn -0.5183 0.4265 -0.7413
vn -0.1125 0.4227 -0.8993
vn 0.1979 0.3790 -0.9040
vn 0.6367 0.2671 -0.7234
vn 0.9941 -0.0667 -0.0855
vn 0.8133 -0.1621 0.5588
vn 0.9418 -0.0860 0.3250
vn 0.9851 -0.0343 0.1685
vn 0.9998 -0.0013 0.0213
vn 0.9968 0.0210 -0.0770
vn 0.9400 0.1035 -0.3252
vn 0.5093 -0.2505 0.8233
vn -0.1066 -0.2438 0.9640
vn -0.7590 -0.0511 0.6491
vn -0.9046 0.2545 -0.3418
vn -0.5308 0.3226 -0.7837
vn -0.0868 0.3092 -0.9470
vn 0.2129 0.2975 -0.9307
vn 0.6527 0.2330 -0.7209
vn -0.9066 -0.0176 -0.4216
vn 0.9444 -0.0234 -0.3279
vn 0.7547 -0.1427 0.6403
vn 0.6570 0.0583 -0.7516
vn 0.9107 -0.1635 0.3793
vn 0.9742 -0.1589 0.1602
vn -0.5489 0.0612 -0.8336
vn 0.9940 -0.1060 -0.0275
vn -0.1445 0.1197 -0.9822
vn 0.2151 0.1232 -0.9688
vn 0.4854 -0.1339 0.8640
vn -0.1618 -0.1603 0.9737
vn -0.7641 -0.1377 0.6302
vn -0.9802 -0.0979 0.1722
vn -0.9817 0.1246 0.1441
vn 0.8101 -0.0864 0.5799
vn 0.9341 -0.0394 0.3549
vn 0.9865 -0.0055 0.1635
vn 0.9999 0.0119 0.0090
vn 0.9962 0.0200 -0.0853
vn 0.9363 0.0307 -0.3498
vn 0.5067 -0.1333 0.8518
vn -0.1239 -0.1250 0.9844
vn -0.7467 -0.0205 0.6648
vn -0.9858 0.0852 0.1448
vn -0.9269 0.1404 -0.3479
vn -0.5527 0.1357 -0.8222
vn -0.0782 0.1076 -0.9911
vn 0.2386 0.0897 -0.9670
vn 0.6509 0.0554 -0.7572
vn 0.2684 -0.1322 -0.9542
vn -0.0782 -0.1533 -0.9851
vn -0.5388 -0.1640 -0.8263
vn -0.9003 -0.1534 -0.4072
vn -0.9688 -0.1311 0.2104
vn -0.7118 -0.0984 0.6954
vn -0.0361 -0.0973 0.9946
vn 0.6014 -0.1104 0.7913
vn 0.9371 -0.0843 -0.3388
vn 0.9966 -0.0646 -0.0509
vn 0.9954 -0.0715 0.0638
vn 0.9752 -0.0901 0.2022
vn 0.9273 -0.1045 0.3595
vn 0.6475 -0.1097 -0.7541
vn 0.8199 -0.1229 0.5592
vn 0.9286 -0.0269 -0.3702
vn 0.9214 -0.0589 -0.3842
vn 0.9232 -0.0642 -0.3788
vn 0.9269 -0.0696 -0.3689
vn 0.9964 -0.0098 -0.0843
vn 0.9941 -0.0494 -0.0970
vn 0.9926 -0.0676 -0.1006
vn 0.9952 -0.0633 -0.0742
vn -0.9829 0.0459 0.1786
vn -0.9823 -0.0345 0.1843
vn -0.9761 -0.1016 0.1922
vn -0.9702 -0.1311 0.2036
vn 0.5652 -0.0714 0.8219
vn 0.5476 -0.0535 0.8350
vn 0.5205 -0.0523 0.8523
vn 0.5004 -0.0612 0.8636
vn 0.9999 -0.0087 0.0121
vn 0.9989 -0.0446 0.0162
vn 0.9973 -0.0709 0.0187
vn 0.9968 -0.0759 0.0254
vn 0.9274 -0.0693 0.3677
vn 0.9114 -0.0530 0.4081
vn 0.9052 -0.0662 0.4198
vn 0.9187 -0.0409 0.3927
vn -0.7091 -0.1246 0.6940
vn -0.7202 -0.1029 0.6861
vn -0.7247 -0.0436 0.6877
vn -0.7248 0.0020 0.6890
vn -0.0593 -0.1014 0.9931
vn -0.0586 -0.0818 0.9949
vn -0.1007 -0.0486 0.9937
vn -0.1003 -0.0468 0.9939
vn 0.6361 -0.0490 -0.7701
vn 0.6334 -0.0598 -0.7715
vn 0.6437 -0.0737 -0.7617
vn 0.6349 -0.1016 -0.7658
vn -0.9212 -0.1361 -0.3646
vn -0.9381 -0.1052 -0.3300
vn -0.9486 -0.0305 -0.3149
vn -0.9437 0.0614 -0.3250
vn 0.7933 -0.0570 0.6062
vn 0.8005 -0.0671 0.5955
vn 0.8118 -0.0511 0.5817
vn 0.8172 -0.0695 0.5722
vn -0.5604 -0.1452 -0.8154
vn -0.5917 -0.1179 -0.7974
vn -0.6256 -0.0485 -0.7786
vn -0.6102 0.0311 -0.7916
vn -0.0641 -0.1300 -0.9894
vn -0.0355 -0.1063 -0.9937
vn -0.0309 -0.0638 -0.9975
vn -0.0530 -0.0103 -0.9985
vn 0.9774 -0.0785 0.1961
vn 0.9699 -0.0672 0.2338
vn 0.9697 -0.0565 0.2378
vn 0.9802 -0.0208 0.1968
vn 0.2838 -0.1205 -0.9513
vn 0.2989 -0.0909 -0.9499
vn 0.3167 -0.0597 -0.9466
vn 0.2918 -0.0345 -0.9558
vn 0.2935 -0.0737 -0.9531
vn -0.0765 -0.0517 -0.9957
vn -0.5969 -0.0888 -0.7974
vn -0.9439 -0.1246 -0.3059
vn -0.9825 -0.0984 0.1581
vn -0.7574 -0.0438 0.6514
vn -0.0309 -0.0163 0.9994
vn 0.6361 -0.0154 0.7714
vn 0.9716 -0.1066 -0.2112
vn 0.9928 -0.0975 0.0691
vn 0.9876 -0.0862 0.1310
vn 0.9751 -0.0751 0.2087
vn 0.9490 -0.0578 0.3100
vn 0.7377 -0.0998 -0.6678
vn 0.8634 -0.0364 0.5032
vn -0.9172 -0.1345 -0.3752
vn -0.9106 -0.1516 -0.3845
vn -0.9274 -0.1620 -0.3371
vn -0.9368 -0.1359 -0.3223
vn -0.5962 -0.1090 -0.7954
vn -0.5668 -0.1620 -0.8078
vn -0.5363 -0.1680 -0.8271
vn -0.5358 -0.1563 -0.8298
vn 0.9485 -0.0971 -0.3016
vn 0.9518 -0.1092 -0.2866
vn 0.9559 -0.1362 -0.2602
vn 0.9650 -0.1343 -0.2252
vn 0.9916 -0.1007 0.0814
vn 0.9913 -0.1022 0.0827
vn 0.9954 -0.0911 0.0282
vn 0.9967 -0.0798 -0.0130
vn -0.0346 -0.0725 0.9968
vn -0.0245 -0.0450 0.9987
vn -0.0221 -0.0313 0.9993
vn -0.0261 -0.0155 0.9995
vn -0.7447 -0.0543 0.6652
vn -0.7337 -0.0611 0.6768
vn -0.7256 -0.0587 0.6856
vn -0.7254 -0.0662 0.6852
vn 0.8394 -0.1021 0.5339
vn 0.8499 -0.0547 0.5241
vn 0.8607 -0.0249 0.5085
vn 0.8591 -0.0132 0.5116
vn 0.6478 -0.0002 0.7618
vn 0.6637 -0.0157 0.7478
vn 0.6586 -0.0326 0.7518
vn 0.6534 -0.0802 0.7528
vn 0.9866 -0.0906 0.1359
vn 0.9762 -0.1044 0.1900
vn 0.9748 -0.0816 0.2074
vn 0.9839 -0.0678 0.1652
vn 0.9741 -0.0472 0.2212
vn 0.9635 -0.0602 0.2607
vn 0.9502 -0.1064 0.2928
vn 0.9570 -0.1056 0.2703
vn 0.9149 -0.1108 0.3883
vn 0.9226 -0.0846 0.3764
vn 0.9380 -0.0395 0.3444
vn 0.9458 -0.0319 0.3232
vn -0.9785 -0.1154 0.1710
vn -0.9728 -0.1250 0.1952
vn -0.9736 -0.1097 0.2003
vn -0.9758 -0.1035 0.1927
vn -0.0823 -0.0801 -0.9934
vn -0.0953 -0.1453 -0.9848
vn -0.0974 -0.1643 -0.9816
vn -0.0945 -0.1550 -0.9834
vn 0.6832 -0.1264 -0.7192
vn 0.6813 -0.1528 -0.7159
vn 0.6933 -0.1644 -0.7017
vn 0.7162 -0.1417 -0.6834
vn 0.2749 -0.1080 -0.9554
vn 0.2619 -0.1592 -0.9519
vn 0.2307 -0.1667 -0.9586
vn 0.2531 -0.1448 -0.9565
vt 0.125000 0.500000
vt 0.104167 0.416667
vt 0.135417 0.500000
vt 0.145833 0.500000
vt 0.156250 0.500000
vt 0.104167 0.583333
vt 0.020833 0.083333
vt 0.020833 0.916667
vt 0.041667 0.833333
vt 0.041667 0.166667
vt 0.062500 0.750000
vt 0.062500 0.250000
vt 0.083333 0.666667
vt 0.083333 0.333333
vt 0.281250 0.500000
vt 0.250000 0.500000
vt 0.218750 0.500000
vt 0.187500 0.500000
vt 0.229167 0.500000
vt 0.208333 0.500000
vt 0.187500 0.500000
vt 0.166667 0.500000
vt 0.177083 0.500000
vt 0.166667 0.500000
vt 0.156250 0.500000
vt 0.125000 0.500000
vt 0.125000 0.500000
vt 0.125000 0.500000
vt 0.125000 0.500000
vt 0.125000 0.500000
vt 0.125000 0.500000
vt 0.125000 0.500000
vt 0.125000 0.500000
vt 0.000000 0.000000
s 1
usemtl bottom_M
f 40/1/39 39/1/38 1/1/1 2/1/2
f 2/1/2 1/1/1 3/1/3 4/1/4
f 4/1/4 3/1/3 5/1/5 6/1/6
f 6/1/6 5/1/5 7/1/7 8/1/8
f 8/1/8 7/1/7 9/1/9 10/1/9
f 10/1/9 9/1/9 11/1/10 12/1/11
f 12/1/11 11/1/10 13/1/12 14/1/13
f 2/1/2 4/1/4 17/1/16 16/1/15
f 16/1/15 17/1/16 19/1/18 18/1/17
f 18/1/17 19/1/18 21/1/20 20/1/19
f 20/1/19 21/1/20 23/1/22 22/1/21
f 22/1/21 23/1/22 25/1/24 24/1/23
f 24/1/23 25/1/24 27/1/26 26/1/25
f 26/1/25 27/1/26 29/1/28 28/1/27
f 28/1/27 29/1/28 31/1/30 30/1/29
f 14/1/13 13/1/12 15/1/14 32/1/31
f 32/1/31 15/1/14 33/1/32 34/1/33
f 49/2/48 34/1/33 33/1/32 54/2/53
f 31/1/30 32/1/31 34/1/33 30/1/29
f 40/1/39 2/1/2 16/1/15 59/3/58
f 59/3/58 16/1/15 18/1/17 64/4/63
f 64/4/63 18/1/17 20/1/19 69/5/68
f 69/5/68 20/1/19 22/1/21 74/6/73
f 74/6/73 22/1/21 24/1/23 79/6/78
f 79/6/78 24/1/23 26/1/25 84/6/83
f 84/6/83 26/1/25 28/1/27 89/6/88
f 89/6/88 28/1/27 30/1/29 94/6/93
f 49/2/48 94/6/93 30/1/29 34/1/33
f 45/7/44 90/8/89 91/9/90 46/10/45
f 46/10/45 91/9/90 92/11/91 47/12/46
f 47/12/46 92/11/91 93/13/92 48/14/47
f 48/14/47 93/13/92 94/6/93 49/2/48
f 85/8/84 86/9/85 91/9/90 90/8/89
f 86/9/85 87/11/86 92/11/91 91/9/90
f 87/11/86 88/13/87 93/13/92 92/11/91
f 88/13/87 89/6/88 94/6/93 93/13/92
f 80/8/79 81/9/80 86/9/85 85/8/84
f 81/9/80 82/11/81 87/11/86 86/9/85
f 82/11/81 83/13/82 88/13/87 87/11/86
f 83/13/82 84/6/83 89/6/88 88/13/87
f 75/8/74 76/9/75 81/9/80 80/8/79
f 76/9/75 77/11/76 82/11/81 81/9/80
f 77/11/76 78/13/77 83/13/82 82/11/81
f 78/13/77 79/6/78 84/6/83 83/13/82
f 70/8/69 71/9/70 76/9/75 75/8/74
f 71/9/70 72/11/71 77/11/76 76/9/75
f 72/11/71 73/13/72 78/13/77 77/11/76
f 73/13/72 74/6/73 79/6/78 78/13/77
f 65/15/64 66/16/65 71/9/70 70/8/69
f 66/16/65 67/17/66 72/11/71 71/9/70
f 67/17/66 68/18/67 73/13/72 72/11/71
f 68/18/67 69/5/68 74/6/73 73/13/72
f 60/19/59 61/20/60 66/16/65 65/15/64
f 61/20/60 62/21/61 67/17/66 66/16/65
f 62/21/61 63/22/62 68/18/67 67/17/66
f 63/22/62 64/4/63 69/5/68 68/18/67
f 55/23/54 56/24/55 61/20/60 60/19/59
f 56/24/55 57/25/56 62/21/61 61/20/60
f 57/25/56 58/4/57 63/22/62 62/21/61
f 58/4/57 59/3/58 64/4/63 63/22/62
f 44/1/43 43/1/42 56/24/55 55/23/54
f 43/1/42 42/26/41 57/25/56 56/24/55
f 42/26/41 41/26/40 58/4/57 57/25/56
f 41/26/40 40/1/39 59/3/58 58/4/57
f 45/7/44 46/10/45 51/10/50 50/7/49
f 46/10/45 47/12/46 52/12/51 51/10/50
f 47/12/46 48/14/47 53/14/52 52/12/51
f 48/14/47 49/2/48 54/2/53 53/14/52
f 44/1/43 35/1/34 36/26/35 43/1/42
f 43/1/42 36/26/35 37/26/36 42/26/41
f 42/26/41 37/26/36 38/1/37 41/26/40
f 41/26/40 38/1/37 39/1/38 40/1/39
f 25/1/24 23/1/22 104/1/103 105/1/104
f 12/1/11 14/1/13 100/1/99 99/1/98
f 21/1/20 19/1/18 102/1/101 103/1/102
f 31/1/30 29/1/28 107/1/106 108/1/107
f 8/1/8 10/1/9 98/1/97 97/1/96
f 17/1/16 4/1/4 95/1/94 101/1/100
f 27/1/26 25/1/24 105/1/104 106/1/105
f 4/1/4 6/1/6 96/1/95 95/1/94
f 23/1/22 21/1/20 103/1/102 104/1/103
f 32/1/31 31/1/30 108/1/107 109/1/108
f 10/1/9 12/1/11 99/1/98 98/1/97
f 19/1/18 17/1/16 101/1/100 102/1/101
f 29/1/28 27/1/26 106/1/105 107/1/106
f 14/1/13 32/1/31 109/1/108 100/1/99
f 6/1/6 8/1/8 97/1/96 96/1/95
f 127/1/125 126/1/124 112/1/111 111/1/110
f 131/27/129 130/27/128 119/1/118 120/1/119
f 126/1/124 134/28/97 113/1/112 112/1/111
f 135/29/131 131/27/129 120/1/119 121/1/120
f 134/28/97 138/1/134 114/1/113 113/1/112
f 139/29/135 135/29/131 121/1/120 122/1/121
f 138/1/134 142/30/138 115/1/114 114/1/113
f 143/1/139 139/29/135 122/1/121 123/1/122
f 147/31/143 146/27/142 110/1/109 116/1/115
f 142/30/138 150/1/146 124/1/123 115/1/114
f 151/1/147 147/31/143 116/1/115 117/1/116
f 150/1/146 143/1/139 123/1/122 124/1/123
f 153/1/149 151/1/147 117/1/116 118/1/117
f 146/27/142 127/1/125 111/1/110 110/1/109
f 130/27/128 153/1/149 118/1/117 119/1/118
f 104/1/103 103/1/102 154/1/150 129/28/127
f 129/28/127 154/1/150 153/1/149 130/27/128
f 95/1/94 96/1/95 128/1/126 145/31/141
f 145/31/141 128/1/126 127/1/125 146/27/142
f 103/1/102 102/1/101 152/29/148 154/1/150
f 154/1/150 152/29/148 151/1/147 153/1/149
f 109/1/108 108/1/107 144/29/140 149/32/145
f 149/32/145 144/29/140 143/1/139 150/1/146
f 102/1/101 101/1/100 148/32/144 152/29/148
f 152/29/148 148/32/144 147/31/143 151/1/147
f 100/1/99 109/1/108 149/32/145 141/30/137
f 141/30/137 149/32/145 150/1/146 142/30/138
f 101/1/100 95/1/94 145/31/141 148/32/144
f 148/32/144 145/31/141 146/27/142 147/31/143
f 108/1/107 107/1/106 140/29/136 144/29/140
f 144/29/140 140/29/136 139/29/135 143/1/139
f 99/1/98 100/1/99 141/30/137 137/1/133
f 137/1/133 141/30/137 142/30/138 138/1/134
f 107/1/106 106/1/105 136/27/132 140/29/136
f 140/29/136 136/27/132 135/29/131 139/29/135
f 98/1/97 99/1/98 137/1/133 133/1/97
f 133/1/97 137/1/133 138/1/134 134/28/97
f 106/1/105 105/1/104 132/33/130 136/27/132
f 136/27/132 132/33/130 131/27/129 135/29/131
f 97/1/96 98/1/97 133/1/97 125/1/97
f 125/1/97 133/1/97 134/28/97 126/1/124
f 105/1/104 104/1/103 129/28/127 132/33/130
f 132/33/130 129/28/127 130/27/128 131/27/129
f 96/1/95 97/1/96 125/1/97 128/1/126
f 128/1/126 125/1/97 126/1/124 127/1/125
f 119/1/118 118/1/117 163/1/159 164/1/160
f 111/1/110 112/1/111 157/1/153 156/1/152
f 325/28/321 319/26/315 180/1/176 181/1/177
f 120/1/119 119/1/118 164/1/160 165/1/161
f 112/1/111 113/1/112 158/1/154 157/1/153
f 121/1/120 120/1/119 165/1/161 166/1/162
f 113/1/112 114/1/113 159/1/155 158/1/154
f 122/1/121 121/1/120 166/1/162 167/1/163
f 114/1/113 115/1/114 160/1/156 159/1/155
f 123/1/122 122/1/121 167/1/163 168/1/164
f 116/1/115 110/1/109 155/1/151 161/1/157
f 115/1/114 124/1/123 169/1/165 160/1/156
f 117/1/116 116/1/115 161/1/157 162/1/158
f 124/1/123 123/1/122 168/1/164 169/1/165
f 118/1/117 117/1/116 162/1/158 163/1/159
f 110/1/109 111/1/110 156/1/152 155/1/151
f 326/1/322 304/31/300 174/1/170 173/1/169
f 327/33/323 325/28/321 181/1/177 182/1/178
f 304/31/300 320/33/316 175/1/171 174/1/170
f 328/27/324 327/33/323 182/1/178 183/1/179
f 329/27/325 321/27/317 170/1/166 176/1/172
f 320/33/316 322/1/318 184/1/180 175/1/171
f 330/26/326 329/27/325 176/1/172 177/1/173
f 322/1/318 328/27/324 183/1/179 184/1/180
f 331/27/327 330/26/326 177/1/173 178/1/174
f 321/27/317 323/1/319 171/1/167 170/1/166
f 332/1/328 331/27/327 178/1/174 179/1/175
f 323/1/319 324/1/320 172/1/168 171/1/167
f 319/26/315 332/1/328 179/1/175 180/1/176
f 324/1/320 326/1/322 173/1/169 172/1/168
f 157/1/153 158/1/154 207/27/203 268/1/264
f 268/1/264 207/27/203 206/1/202 269/1/265
f 269/1/265 206/1/202 205/29/201 270/1/266
f 270/1/266 205/29/201 204/1/200 271/26/267
f 271/26/267 204/1/200 203/31/199 272/1/268
f 272/1/268 203/31/199 202/1/198 273/1/269
f 165/1/161 164/1/160 267/27/263 185/1/181
f 185/1/181 267/27/263 266/28/262 186/27/182
f 186/27/182 266/28/262 265/1/261 187/33/183
f 187/33/183 265/1/261 264/1/260 188/29/184
f 188/29/184 264/1/260 263/1/259 189/33/185
f 189/33/185 263/1/259 262/1/258 190/1/186
f 156/1/152 157/1/153 268/1/264 256/1/252
f 256/1/252 268/1/264 269/1/265 257/27/253
f 257/27/253 269/1/265 270/1/266 258/1/254
f 258/1/254 270/1/266 271/26/267 259/31/255
f 259/31/255 271/26/267 272/1/268 260/31/256
f 260/31/256 272/1/268 273/1/269 261/1/257
f 164/1/160 163/1/159 255/1/251 267/27/263
f 267/27/263 255/1/251 254/26/250 266/28/262
f 266/28/262 254/26/250 253/1/249 265/1/261
f 265/1/261 253/1/249 252/26/248 264/1/260
f 264/1/260 252/26/248 251/1/247 263/1/259
f 263/1/259 251/1/247 250/1/246 262/1/258
f 155/1/151 156/1/152 256/1/252 226/1/222
f 226/1/222 256/1/252 257/27/253 227/28/223
f 227/28/223 257/27/253 258/1/254 228/1/224
f 228/1/224 258/1/254 259/31/255 229/1/225
f 229/1/225 259/31/255 260/31/256 230/27/226
f 230/27/226 260/31/256 261/1/257 231/1/227
f 163/1/159 162/1/158 249/27/245 255/1/251
f 255/1/251 249/27/245 248/1/244 254/26/250
f 254/26/250 248/1/244 247/33/243 253/1/249
f 253/1/249 247/33/243 246/26/242 252/26/248
f 252/26/248 246/26/242 245/1/241 251/1/247
f 251/1/247 245/1/241 244/1/240 250/1/246
f 169/1/165 168/1/164 225/26/221 238/1/234
f 238/1/234 225/26/221 224/1/220 239/27/235
f 239/27/235 224/1/220 223/1/219 240/1/236
f 240/1/236 223/1/219 222/33/218 241/26/237
f 241/26/237 222/33/218 221/1/217 242/26/238
f 242/26/238 221/1/217 220/1/216 243/1/239
f 162/1/158 161/1/157 237/1/233 249/27/245
f 249/27/245 237/1/233 236/1/232 248/1/244
f 248/1/244 236/1/232 235/31/231 247/33/243
f 247/33/243 235/31/231 234/1/230 246/26/242
f 246/26/242 234/1/230 233/31/229 245/1/241
f 245/1/241 233/31/229 232/1/228 244/1/240
f 160/1/156 169/1/165 238/1/234 214/28/210
f 214/28/210 238/1/234 239/27/235 215/31/211
f 215/31/211 239/27/235 240/1/236 216/30/212
f 216/30/212 240/1/236 241/26/237 217/1/213
f 217/1/213 241/26/237 242/26/238 218/1/214
f 218/1/214 242/26/238 243/1/239 219/28/215
f 161/1/157 155/1/151 226/1/222 237/1/233
f 237/1/233 226/1/222 227/28/223 236/1/232
f 236/1/232 227/28/223 228/1/224 235/31/231
f 235/31/231 228/1/224 229/1/225 234/1/230
f 234/1/230 229/1/225 230/27/226 233/31/229
f 233/31/229 230/27/226 231/1/227 232/1/228
f 168/1/164 167/1/163 213/1/209 225/26/221
f 225/26/221 213/1/209 212/27/208 224/1/220
f 224/1/220 212/27/208 211/1/207 223/1/219
f 223/1/219 211/1/207 210/1/206 222/33/218
f 222/33/218 210/1/206 209/27/205 221/1/217
f 221/1/217 209/27/205 208/33/204 220/1/216
f 159/1/155 160/1/156 214/28/210 197/33/193
f 197/33/193 214/28/210 215/31/211 198/1/194
f 198/1/194 215/31/211 216/30/212 199/33/195
f 199/33/195 216/30/212 217/1/213 200/30/196
f 200/30/196 217/1/213 218/1/214 201/27/197
f 167/1/163 166/1/162 196/26/192 213/1/209
f 213/1/209 196/26/192 195/27/191 212/27/208
f 212/27/208 195/27/191 194/1/190 211/1/207
f 211/1/207 194/1/190 193/26/189 210/1/206
f 210/1/206 193/26/189 192/26/188 209/27/205
f 209/27/205 192/26/188 191/26/187 208/33/204
f 158/1/154 159/1/155 197/33/193 207/27/203
f 207/27/203 197/33/193 198/1/194 206/1/202
f 206/1/202 198/1/194 199/33/195 205/29/201
f 205/29/201 199/33/195 200/30/196 204/1/200
f 204/1/200 200/30/196 201/27/197 203/31/199
f 166/1/162 165/1/161 185/1/181 196/26/192
f 196/26/192 185/1/181 186/27/182 195/27/191
f 195/27/191 186/27/182 187/33/183 194/1/190
f 194/1/190 187/33/183 188/29/184 193/26/189
f 193/26/189 188/29/184 189/33/185 192/26/188
f 192/26/188 189/33/185 190/1/186 191/26/187
f 180/1/176 179/1/175 283/1/279 284/1/280
f 172/1/168 173/1/169 277/1/273 276/1/272
f 181/1/177 180/1/176 284/1/280 285/1/281
f 173/1/169 174/1/170 278/1/274 277/1/273
f 182/1/178 181/1/177 285/1/281 286/1/282
f 174/1/170 175/1/171 279/1/275 278/1/274
f 183/1/179 182/1/178 286/1/282 287/1/283
f 170/1/166 171/1/167 275/1/271 274/1/270
f 176/1/172 170/1/166 274/1/270 280/1/276
f 175/1/171 184/1/180 288/1/284 279/1/275
f 177/1/173 176/1/172 280/1/276 281/1/277
f 184/1/180 183/1/179 287/1/283 288/1/284
f 178/1/174 177/1/173 281/1/277 282/1/278
f 171/1/167 172/1/168 276/1/272 275/1/271
f 179/1/175 178/1/174 282/1/278 283/1/279
f 281/1/277 280/1/276 295/1/291 296/1/292
f 288/1/284 287/1/283 302/1/298 303/1/299
f 282/1/278 281/1/277 296/1/292 297/1/293
f 275/1/271 276/1/272 291/1/287 290/1/286
f 283/1/279 282/1/278 297/1/293 298/1/294
f 274/1/270 275/1/271 290/1/286 289/1/285
f 284/1/280 283/1/279 298/1/294 299/1/295
f 276/1/272 277/1/273 292/1/288 291/1/287
f 285/1/281 284/1/280 299/1/295 300/1/296
f 277/1/273 278/1/274 293/1/289 292/1/288
f 286/1/282 285/1/281 300/1/296 301/1/297
f 278/1/274 279/1/275 294/1/290 293/1/289
f 287/1/283 286/1/282 301/1/297 302/1/298
f 280/1/276 274/1/270 289/1/285 295/1/291
f 279/1/275 288/1/284 303/1/299 294/1/290
f 294/1/290 303/1/299 318/1/314 310/1/306
f 273/1/269 202/1/198 326/1/322 324/1/320
f 296/1/292 295/1/291 311/1/307 312/1/308
f 303/1/299 302/1/298 317/1/313 318/1/314
f 297/1/293 296/1/292 312/1/308 313/1/309
f 290/1/286 291/1/287 307/1/303 306/1/302
f 298/1/294 297/1/293 313/1/309 333/1/329
f 289/1/285 290/1/286 306/1/302 305/1/301
f 190/1/186 262/1/258 332/1/328 319/26/315
f 299/1/295 298/1/294 333/1/329 314/1/310
f 291/1/287 292/1/288 308/1/304 307/1/303
f 300/1/296 299/1/295 314/1/310 315/1/311
f 292/1/288 293/1/289 309/1/305 308/1/304
f 301/1/297 300/1/296 315/1/311 316/1/312
f 293/1/289 294/1/290 310/1/306 309/1/305
f 302/1/298 301/1/297 316/1/312 317/1/313
f 295/1/291 289/1/285 305/1/301 311/1/307
f 261/1/257 273/1/269 324/1/320 323/1/319
f 262/1/258 250/1/246 331/27/327 332/1/328
f 231/1/227 261/1/257 323/1/319 321/27/317
f 250/1/246 244/1/240 330/26/326 331/27/327
f 243/1/239 220/1/216 328/27/324 322/1/318
f 244/1/240 232/1/228 329/27/325 330/26/326
f 219/28/215 243/1/239 322/1/318 320/33/316
f 232/1/228 231/1/227 321/27/317 329/27/325
f 220/1/216 208/33/204 327/33/323 328/27/324
f 208/33/204 191/26/187 325/28/321 327/33/323
f 191/26/187 190/1/186 319/26/315 325/28/321
f 312/1/308 311/1/307 340/1/336 341/1/337
f 311/1/307 305/1/301 334/1/330 340/1/336
f 309/1/305 310/1/306 339/1/335 338/1/334
f 308/1/304 309/1/305 338/1/334 337/1/333
f 307/1/303 308/1/304 337/1/333 336/1/332
f 305/1/301 306/1/302 335/1/331 334/1/330
f 318/1/314 317/1/313 347/1/343 348/1/344
f 306/1/302 307/1/303 336/1/332 335/1/331
f 310/1/306 318/1/314 348/1/344 339/1/335
f 317/1/313 316/1/312 346/1/342 347/1/343
f 316/1/312 315/1/311 345/1/341 346/1/342
f 315/1/311 314/1/310 344/1/340 345/1/341
f 314/1/310 333/1/329 343/1/339 344/1/340
f 333/1/329 313/1/309 342/1/338 343/1/339
f 313/1/309 312/1/308 341/1/337 342/1/338
f 376/26/372 407/1/403 363/1/359 356/1/352
f 416/26/412 383/1/379 359/1/355 360/1/356
f 407/1/403 384/26/380 361/1/357 363/1/359
f 400/26/396 375/1/371 353/1/349 352/1/348
f 375/1/371 388/26/384 354/1/350 353/1/349
f 408/26/404 400/26/396 352/1/348 351/1/347
f 420/26/416 412/26/408 350/1/346 349/1/345
f 383/1/379 371/1/367 358/1/354 359/1/355
f 412/26/408 408/26/404 351/1/347 350/1/346
f 371/1/367 367/1/363 357/1/353 358/1/354
f 388/26/384 392/26/388 355/1/351 354/1/350
f 367/1/363 399/1/395 362/1/358 357/1/353
f 399/1/395 420/26/416 349/1/345 362/1/358
f 392/26/388 376/26/372 356/1/352 355/1/351
f 384/26/380 416/26/412 360/1/356 361/1/357
f 335/1/331 336/1/332 419/1/415 387/1/383
f 387/1/383 419/1/415 418/1/414 386/1/382
f 386/1/382 418/1/414 417/26/413 385/26/381
f 385/26/381 417/26/413 416/26/412 384/26/380
f 341/1/337 340/1/336 379/1/375 395/1/391
f 395/1/391 379/1/375 378/1/374 394/1/390
f 394/1/390 378/1/374 377/26/373 393/26/389
f 393/26/389 377/26/373 376/26/372 392/26/388
f 348/1/344 347/1/343 423/1/419 396/26/392
f 396/26/392 423/1/419 422/1/418 397/26/393
f 397/26/393 422/1/418 421/26/417 398/1/394
f 398/1/394 421/26/417 420/26/416 399/1/395
f 339/1/335 348/1/344 396/26/392 364/26/360
f 364/26/360 396/26/392 397/26/393 365/26/361
f 365/26/361 397/26/393 398/1/394 366/1/362
f 366/1/362 398/1/394 399/1/395 367/1/363
f 342/1/338 341/1/337 395/1/391 391/1/387
f 391/1/387 395/1/391 394/1/390 390/1/386
f 390/1/386 394/1/390 393/26/389 389/26/385
f 389/26/385 393/26/389 392/26/388 388/26/384
f 338/1/334 339/1/335 364/26/360 368/26/364
f 368/26/364 364/26/360 365/26/361 369/26/365
f 369/26/365 365/26/361 366/1/362 370/1/366
f 370/1/366 366/1/362 367/1/363 371/1/367
f 346/1/342 345/1/341 411/1/407 415/1/411
f 415/1/411 411/1/407 410/1/406 414/1/410
f 414/1/410 410/1/406 409/26/405 413/26/409
f 413/26/409 409/26/405 408/26/404 412/26/408
f 337/1/333 338/1/334 368/26/364 380/26/376
f 380/26/376 368/26/364 369/26/365 381/26/377
f 381/26/377 369/26/365 370/1/366 382/1/378
f 382/1/378 370/1/366 371/1/367 383/1/379
f 347/1/343 346/1/342 415/1/411 423/1/419
f 423/1/419 415/1/411 414/1/410 422/1/418
f 422/1/418 414/1/410 413/26/409 421/26/417
f 421/26/417 413/26/409 412/26/408 420/26/416
f 345/1/341 344/1/340 403/1/399 411/1/407
f 411/1/407 403/1/399 402/1/398 410/1/406
f 410/1/406 402/1/398 401/26/397 409/26/405
f 409/26/405 401/26/397 400/26/396 408/26/404
f 343/1/339 342/1/338 391/1/387 372/26/368
f 372/26/368 391/1/387 390/1/386 373/26/369
f 373/26/369 390/1/386 389/26/385 374/1/370
f 374/1/370 389/26/385 388/26/384 375/1/371
f 344/1/340 343/1/339 372/26/368 403/1/399
f 403/1/399 372/26/368 373/26/369 402/1/398
f 402/1/398 373/26/369 374/1/370 401/26/397
f 401/26/397 374/1/370 375/1/371 400/26/396
f 334/1/330 335/1/331 387/1/383 404/26/400
f 404/26/400 387/1/383 386/1/382 405/26/401
f 405/26/401 386/1/382 385/26/381 406/1/402
f 406/1/402 385/26/381 384/26/380 407/1/403
f 336/1/332 337/1/333 380/26/376 419/1/415
f 419/1/415 380/26/376 381/26/377 418/1/414
f 418/1/414 381/26/377 382/1/378 417/26/413
f 417/26/413 382/1/378 383/1/379 416/26/412
f 340/1/336 334/1/330 404/26/400 379/1/375
f 379/1/375 404/26/400 405/26/401 378/1/374
f 378/1/374 405/26/401 406/1/402 377/26/373
f 377/26/373 406/1/402 407/1/403 376/26/372
f 443/1/439 442/1/438 427/1/423 426/1/422
f 451/31/447 450/27/446 432/1/428 433/1/429
f 459/1/455 458/27/454 430/1/426 429/1/425
f 467/1/463 466/1/462 438/1/434 431/1/427
f 475/1/471 474/27/470 434/1/430 435/1/431
f 466/1/462 482/1/478 436/1/432 438/1/434
f 474/27/470 451/31/447 433/1/429 434/1/430
f 458/27/454 467/1/463 431/1/427 430/1/426
f 482/1/478 475/1/471 435/1/431 436/1/432
f 483/29/479 459/1/455 429/1/425 428/1/424
f 487/29/483 443/1/439 426/1/422 425/1/421
f 450/27/446 494/1/490 437/1/433 432/1/428
f 495/1/491 487/29/483 425/1/421 424/1/420
f 494/1/490 495/1/491 424/1/420 437/1/433
f 442/1/438 483/29/479 428/1/424 427/1/423
f 352/1/348 353/1/349 486/1/482 439/33/435
f 439/33/435 486/1/482 485/1/481 440/28/436
f 440/28/436 485/1/481 484/28/480 441/1/437
f 441/1/437 484/28/480 483/29/479 442/1/438
f 362/1/358 349/1/345 498/1/494 491/1/487
f 491/1/487 498/1/494 497/27/493 492/26/488
f 492/26/488 497/27/493 496/1/492 493/1/489
f 493/1/489 496/1/492 495/1/491 494/1/490
f 349/1/345 350/1/346 490/1/486 498/1/494
f 498/1/494 490/1/486 489/26/485 497/27/493
f 497/27/493 489/26/485 488/1/484 496/1/492
f 496/1/492 488/1/484 487/29/483 495/1/491
f 357/1/353 362/1/358 491/1/487 447/31/443
f 447/31/443 491/1/487 492/26/488 448/1/444
f 448/1/444 492/26/488 493/1/489 449/28/445
f 449/28/445 493/1/489 494/1/490 450/27/446
f 350/1/346 351/1/347 446/1/442 490/1/486
f 490/1/486 446/1/442 445/1/441 489/26/485
f 489/26/485 445/1/441 444/26/440 488/1/484
f 488/1/484 444/26/440 443/1/439 487/29/483
f 353/1/349 354/1/350 462/1/458 486/1/482
f 486/1/482 462/1/458 461/1/457 485/1/481
f 485/1/481 461/1/457 460/26/456 484/28/480
f 484/28/480 460/26/456 459/1/455 483/29/479
f 361/1/357 360/1/356 478/1/474 479/28/475
f 479/28/475 478/1/474 477/1/473 480/1/476
f 480/1/476 477/1/473 476/28/472 481/1/477
f 481/1/477 476/28/472 475/1/471 482/1/478
f 355/1/351 356/1/352 470/27/466 455/1/451
f 455/1/451 470/27/466 469/1/465 456/1/452
f 456/1/452 469/1/465 468/33/464 457/1/453
f 457/1/453 468/33/464 467/1/463 458/27/454
f 359/1/355 358/1/354 454/31/450 471/1/467
f 471/1/467 454/31/450 453/1/449 472/26/468
f 472/26/468 453/1/449 452/1/448 473/33/469
f 473/33/469 452/1/448 451/31/447 474/27/470
f 363/1/359 361/1/357 479/28/475 463/30/459
f 463/30/459 479/28/475 480/1/476 464/29/460
f 464/29/460 480/1/476 481/1/477 465/1/461
f 465/1/461 481/1/477 482/1/478 466/1/462
f 360/1/356 359/1/355 471/1/467 478/1/474
f 478/1/474 471/1/467 472/26/468 477/1/473
f 477/1/473 472/26/468 473/33/469 476/28/472
f 476/28/472 473/33/469 474/27/470 475/1/471
f 356/1/352 363/1/359 463/30/459 470/27/466
f 470/27/466 463/30/459 464/29/460 469/1/465
f 469/1/465 464/29/460 465/1/461 468/33/464
f 468/33/464 465/1/461 466/1/462 467/1/463
f 354/1/350 355/1/351 455/1/451 462/1/458
f 462/1/458 455/1/451 456/1/452 461/1/457
f 461/1/457 456/1/452 457/1/453 460/26/456
f 460/26/456 457/1/453 458/27/454 459/1/455
f 358/1/354 357/1/353 447/31/443 454/31/450
f 454/31/450 447/31/443 448/1/444 453/1/449
f 453/1/449 448/1/444 449/28/445 452/1/448
f 452/1/448 449/28/445 450/27/446 451/31/447
f 351/1/347 352/1/348 439/33/435 446/1/442
f 446/1/442 439/33/435 440/28/436 445/1/441
f 445/1/441 440/28/436 441/1/437 444/26/440
f 444/26/440 441/1/437 442/1/438 443/1/439
f 218/1/214 219/28/215 320/33/316 304/31/300 326/1/322 203/34/199
f 326/1/322 202/1/198 203/34/199
f 218/1/214 203/34/199 201/27/197
f 521/1/517 499/1/495 1/1/1 39/1/38
f 499/1/495 500/1/496 3/1/3 1/1/1
f 500/1/496 501/1/497 5/1/5 3/1/3
f 501/1/497 8/1/8 7/1/7 5/1/5
f 12/1/11 502/1/498 13/1/12 11/1/10
f 499/1/495 503/1/499 504/1/500 500/1/496
f 503/1/499 505/1/501 506/1/502 504/1/500
f 505/1/501 507/1/503 508/1/504 506/1/502
f 507/1/503 509/1/505 510/1/506 508/1/504
f 509/1/505 511/1/507 512/1/508 510/1/506
f 511/1/507 513/1/509 514/1/510 512/1/508
f 513/1/509 515/1/511 516/1/512 514/1/510
f 515/1/511 517/1/513 518/1/514 516/1/512
f 502/1/498 519/1/515 15/1/14 13/1/12
f 519/1/515 520/1/516 33/1/32 15/1/14
f 530/2/526 54/2/53 33/1/32 520/1/516
f 518/1/514 517/1/513 520/1/516 519/1/515
f 521/1/517 535/3/531 503/1/499 499/1/495
f 535/3/531 540/4/536 505/1/501 503/1/499
f 540/4/536 545/5/541 507/1/503 505/1/501
f 545/5/541 550/6/546 509/1/505 507/1/503
f 550/6/546 555/6/551 511/1/507 509/1/505
f 555/6/551 560/6/556 513/1/509 511/1/507
f 560/6/556 565/6/561 515/1/511 513/1/509
f 565/6/561 570/6/566 517/1/513 515/1/511
f 530/2/526 520/1/516 517/1/513 570/6/566
f 526/7/522 527/10/523 567/9/563 566/8/562
f 527/10/523 528/12/524 568/11/564 567/9/563
f 528/12/524 529/14/525 569/13/565 568/11/564
f 529/14/525 530/2/526 570/6/566 569/13/565
f 561/8/557 566/8/562 567/9/563 562/9/558
f 562/9/558 567/9/563 568/11/564 563/11/559
f 563/11/559 568/11/564 569/13/565 564/13/560
f 564/13/560 569/13/565 570/6/566 565/6/561
f 556/8/552 561/8/557 562/9/558 557/9/553
f 557/9/553 562/9/558 563/11/559 558/11/554
f 558/11/554 563/11/559 564/13/560 559/13/555
f 559/13/555 564/13/560 565/6/561 560/6/556
f 551/8/547 556/8/552 557/9/553 552/9/548
f 552/9/548 557/9/553 558/11/554 553/11/549
f 553/11/549 558/11/554 559/13/555 554/13/550
f 554/13/550 559/13/555 560/6/556 555/6/551
f 546/8/542 551/8/547 552/9/548 547/9/543
f 547/9/543 552/9/548 553/11/549 548/11/544
f 548/11/544 553/11/549 554/13/550 549/13/545
f 549/13/545 554/13/550 555/6/551 550/6/546
f 541/15/537 546/8/542 547/9/543 542/16/538
f 542/16/538 547/9/543 548/11/544 543/17/539
f 543/17/539 548/11/544 549/13/545 544/18/540
f 544/18/540 549/13/545 550/6/546 545/5/541
f 536/19/532 541/15/537 542/16/538 537/20/533
f 537/20/533 542/16/538 543/17/539 538/21/534
f 538/21/534 543/17/539 544/18/540 539/22/535
f 539/22/535 544/18/540 545/5/541 540/4/536
f 531/23/527 536/19/532 537/20/533 532/24/528
f 532/24/528 537/20/533 538/21/534 533/25/529
f 533/25/529 538/21/534 539/22/535 534/4/530
f 534/4/530 539/22/535 540/4/536 535/3/531
f 525/1/521 531/23/527 532/24/528 524/1/520
f 524/1/520 532/24/528 533/25/529 523/26/519
f 523/26/519 533/25/529 534/4/530 522/26/518
f 522/26/518 534/4/530 535/3/531 521/1/517
f 526/7/522 50/7/49 51/10/50 527/10/523
f 527/10/523 51/10/50 52/12/51 528/12/524
f 528/12/524 52/12/51 53/14/52 529/14/525
f 529/14/525 53/14/52 54/2/53 530/2/526
f 525/1/521 524/1/520 36/26/35 35/1/34
f 524/1/520 523/26/519 37/26/36 36/26/35
f 523/26/519 522/26/518 38/1/37 37/26/36
f 522/26/518 521/1/517 39/1/38 38/1/37
f 512/1/508 577/1/573 576/1/572 510/1/506
f 12/1/11 99/1/98 572/1/568 502/1/498
f 508/1/504 575/1/571 574/1/570 506/1/502
f 518/1/514 580/1/576 579/1/575 516/1/512
f 504/1/500 573/1/569 571/1/567 500/1/496
f 514/1/510 578/1/574 577/1/573 512/1/508
f 500/1/496 571/1/567 96/1/95 501/1/497
f 510/1/506 576/1/572 575/1/571 508/1/504
f 519/1/515 581/1/577 580/1/576 518/1/514
f 506/1/502 574/1/570 573/1/569 504/1/500
f 516/1/512 579/1/575 578/1/574 514/1/510
f 502/1/498 572/1/568 581/1/577 519/1/515
f 501/1/497 96/1/95 97/1/96 8/1/8
f 127/1/125 583/1/579 112/1/111 126/1/124
f 596/27/592 589/1/585 588/1/584 595/27/591
f 598/29/594 590/1/586 589/1/585 596/27/592
f 600/29/596 591/1/587 590/1/586 598/29/594
f 138/1/134 114/1/113 584/1/580 603/30/599
f 604/1/600 592/1/588 591/1/587 600/29/596
f 608/31/604 585/1/581 582/1/578 607/27/603
f 603/30/599 584/1/580 593/1/589 611/1/607
f 612/1/608 586/1/582 585/1/581 608/31/604
f 611/1/607 593/1/589 592/1/588 604/1/600
f 614/1/610 587/1/583 586/1/582 612/1/608
f 607/27/603 582/1/578 583/1/579 127/1/125
f 595/27/591 588/1/584 587/1/583 614/1/610
f 576/1/572 594/28/590 615/1/611 575/1/571
f 594/28/590 595/27/591 614/1/610 615/1/611
f 571/1/567 606/31/602 128/1/126 96/1/95
f 606/31/602 607/27/603 127/1/125 128/1/126
f 575/1/571 615/1/611 613/29/609 574/1/570
f 615/1/611 614/1/610 612/1/608 613/29/609
f 581/1/577 610/32/606 605/29/601 580/1/576
f 610/32/606 611/1/607 604/1/600 605/29/601
f 574/1/570 613/29/609 609/32/605 573/1/569
f 613/29/609 612/1/608 608/31/604 609/32/605
f 572/1/568 602/30/598 610/32/606 581/1/577
f 602/30/598 603/30/599 611/1/607 610/32/606
f 573/1/569 609/32/605 606/31/602 571/1/567
f 609/32/605 608/31/604 607/27/603 606/31/602
f 580/1/576 605/29/601 601/29/597 579/1/575
f 605/29/601 604/1/600 600/29/596 601/29/597
f 99/1/98 137/1/133 602/30/598 572/1/568
f 137/1/133 138/1/134 603/30/599 602/30/598
f 579/1/575 601/29/597 599/27/595 578/1/574
f 601/29/597 600/29/596 598/29/594 599/27/595
f 578/1/574 599/27/595 597/33/593 577/1/573
f 599/27/595 598/29/594 596/27/592 597/33/593
f 577/1/573 597/33/593 594/28/590 576/1/572
f 597/33/593 596/27/592 595/27/591 594/28/590
f 588/1/584 625/1/621 624/1/620 587/1/583
f 583/1/579 617/1/613 618/1/614 112/1/111
f 786/28/782 642/1/638 641/1/637 780/26/776
f 589/1/585 626/1/622 625/1/621 588/1/584
f 112/1/111 618/1/614 619/1/615 113/1/112
f 590/1/586 627/1/623 626/1/622 589/1/585
f 113/1/112 619/1/615 620/1/616 114/1/113
f 591/1/587 628/1/624 627/1/623 590/1/586
f 114/1/113 620/1/616 621/1/617 584/1/580
f 592/1/588 629/1/625 628/1/624 591/1/587
f 585/1/581 622/1/618 616/1/612 582/1/578
f 584/1/580 621/1/617 630/1/626 593/1/589
f 586/1/582 623/1/619 622/1/618 585/1/581
f 593/1/589 630/1/626 629/1/625 592/1/588
f 587/1/583 624/1/620 623/1/619 586/1/582
f 582/1/578 616/1/612 617/1/613 583/1/579
f 787/1/783 634/1/630 635/1/631 765/31/761
f 788/33/784 643/1/639 642/1/638 786/28/782
f 765/31/761 635/1/631 636/1/632 781/33/777
f 789/27/785 644/1/640 643/1/639 788/33/784
f 790/27/786 637/1/633 631/1/627 782/27/778
f 781/33/777 636/1/632 645/1/641 783/1/779
f 791/26/787 638/1/634 637/1/633 790/27/786
f 783/1/779 645/1/641 644/1/640 789/27/785
f 792/27/788 639/1/635 638/1/634 791/26/787
f 782/27/778 631/1/627 632/1/628 784/1/780
f 793/1/789 640/1/636 639/1/635 792/27/788
f 784/1/780 632/1/628 633/1/629 785/1/781
f 780/26/776 641/1/637 640/1/636 793/1/789
f 785/1/781 633/1/629 634/1/630 787/1/783
f 618/1/614 729/1/725 668/27/664 619/1/615
f 729/1/725 730/1/726 667/1/663 668/27/664
f 730/1/726 731/1/727 666/29/662 667/1/663
f 731/1/727 732/26/728 665/1/661 666/29/662
f 732/26/728 733/1/729 664/31/660 665/1/661
f 733/1/729 734/1/730 663/1/659 664/31/660
f 626/1/622 646/1/642 728/27/724 625/1/621
f 646/1/642 647/27/643 727/28/723 728/27/724
f 647/27/643 648/33/644 726/1/722 727/28/723
f 648/33/644 649/29/645 725/1/721 726/1/722
f 649/29/645 650/33/646 724/1/720 725/1/721
f 650/33/646 651/1/647 723/1/719 724/1/720
f 617/1/613 717/1/713 729/1/725 618/1/614
f 717/1/713 718/27/714 730/1/726 729/1/725
f 718/27/714 719/1/715 731/1/727 730/1/726
f 719/1/715 720/31/716 732/26/728 731/1/727
f 720/31/716 721/31/717 733/1/729 732/26/728
f 721/31/717 722/1/718 734/1/730 733/1/729
f 625/1/621 728/27/724 716/1/712 624/1/620
f 728/27/724 727/28/723 715/26/711 716/1/712
f 727/28/723 726/1/722 714/1/710 715/26/711
f 726/1/722 725/1/721 713/26/709 714/1/710
f 725/1/721 724/1/720 712/1/708 713/26/709
f 724/1/720 723/1/719 711/1/707 712/1/708
f 616/1/612 687/1/683 717/1/713 617/1/613
f 687/1/683 688/28/684 718/27/714 717/1/713
f 688/28/684 689/1/685 719/1/715 718/27/714
f 689/1/685 690/1/686 720/31/716 719/1/715
f 690/1/686 691/27/687 721/31/717 720/31/716
f 691/27/687 692/1/688 722/1/718 721/31/717
f 624/1/620 716/1/712 710/27/706 623/1/619
f 716/1/712 715/26/711 709/1/705 710/27/706
f 715/26/711 714/1/710 708/33/704 709/1/705
f 714/1/710 713/26/709 707/26/703 708/33/704
f 713/26/709 712/1/708 706/1/702 707/26/703
f 712/1/708 711/1/707 705/1/701 706/1/702
f 630/1/626 699/1/695 686/26/682 629/1/625
f 699/1/695 700/27/696 685/1/681 686/26/682
f 700/27/696 701/1/697 684/1/680 685/1/681
f 701/1/697 702/26/698 683/33/679 684/1/680
f 702/26/698 703/26/699 682/1/678 683/33/679
f 703/26/699 704/1/700 681/1/677 682/1/678
f 623/1/619 710/27/706 698/1/694 622/1/618
f 710/27/706 709/1/705 697/1/693 698/1/694
f 709/1/705 708/33/704 696/31/692 697/1/693
f 708/33/704 707/26/703 695/1/691 696/31/692
f 707/26/703 706/1/702 694/31/690 695/1/691
f 706/1/702 705/1/701 693/1/689 694/31/690
f 621/1/617 675/28/671 699/1/695 630/1/626
f 675/28/671 676/31/672 700/27/696 699/1/695
f 676/31/672 677/30/673 701/1/697 700/27/696
f 677/30/673 678/1/674 702/26/698 701/1/697
f 678/1/674 679/1/675 703/26/699 702/26/698
f 679/1/675 680/28/676 704/1/700 703/26/699
f 622/1/618 698/1/694 687/1/683 616/1/612
f 698/1/694 697/1/693 688/28/684 687/1/683
f 697/1/693 696/31/692 689/1/685 688/28/684
f 696/31/692 695/1/691 690/1/686 689/1/685
f 695/1/691 694/31/690 691/27/687 690/1/686
f 694/31/690 693/1/689 692/1/688 691/27/687
f 629/1/625 686/26/682 674/1/670 628/1/624
f 686/26/682 685/1/681 673/27/669 674/1/670
f 685/1/681 684/1/680 672/1/668 673/27/669
f 684/1/680 683/33/679 671/1/667 672/1/668
f 683/33/679 682/1/678 670/27/666 671/1/667
f 682/1/678 681/1/677 669/33/665 670/27/666
f 620/1/616 658/33/654 675/28/671 621/1/617
f 658/33/654 659/1/655 676/31/672 675/28/671
f 659/1/655 660/33/656 677/30/673 676/31/672
f 660/33/656 661/30/657 678/1/674 677/30/673
f 661/30/657 662/27/658 679/1/675 678/1/674
f 628/1/624 674/1/670 657/26/653 627/1/623
f 674/1/670 673/27/669 656/27/652 657/26/653
f 673/27/669 672/1/668 655/1/651 656/27/652
f 672/1/668 671/1/667 654/26/650 655/1/651
f 671/1/667 670/27/666 653/26/649 654/26/650
f 670/27/666 669/33/665 652/26/648 653/26/649
f 619/1/615 668/27/664 658/33/654 620/1/616
f 668/27/664 667/1/663 659/1/655 658/33/654
f 667/1/663 666/29/662 660/33/656 659/1/655
f 666/29/662 665/1/661 661/30/657 660/33/656
f 665/1/661 664/31/660 662/27/658 661/30/657
f 627/1/623 657/26/653 646/1/642 626/1/622
f 657/26/653 656/27/652 647/27/643 646/1/642
f 656/27/652 655/1/651 648/33/644 647/27/643
f 655/1/651 654/26/650 649/29/645 648/33/644
f 654/26/650 653/26/649 650/33/646 649/29/645
f 653/26/649 652/26/648 651/1/647 650/33/646
f 641/1/637 745/1/741 744/1/740 640/1/636
f 633/1/629 737/1/733 738/1/734 634/1/630
f 642/1/638 746/1/742 745/1/741 641/1/637
f 634/1/630 738/1/734 739/1/735 635/1/631
f 643/1/639 747/1/743 746/1/742 642/1/638
f 635/1/631 739/1/735 740/1/736 636/1/632
f 644/1/640 748/1/744 747/1/743 643/1/639
f 631/1/627 735/1/731 736/1/732 632/1/628
f 637/1/633 741/1/737 735/1/731 631/1/627
f 636/1/632 740/1/736 749/1/745 645/1/641
f 638/1/634 742/1/738 741/1/737 637/1/633
f 645/1/641 749/1/745 748/1/744 644/1/640
f 639/1/635 743/1/739 742/1/738 638/1/634
f 632/1/628 736/1/732 737/1/733 633/1/629
f 640/1/636 744/1/740 743/1/739 639/1/635
f 742/1/738 757/1/753 756/1/752 741/1/737
f 749/1/745 764/1/760 763/1/759 748/1/744
f 743/1/739 758/1/754 757/1/753 742/1/738
f 736/1/732 751/1/747 752/1/748 737/1/733
f 744/1/740 759/1/755 758/1/754 743/1/739
f 735/1/731 750/1/746 751/1/747 736/1/732
f 745/1/741 760/1/756 759/1/755 744/1/740
f 737/1/733 752/1/748 753/1/749 738/1/734
f 746/1/742 761/1/757 760/1/756 745/1/741
f 738/1/734 753/1/749 754/1/750 739/1/735
f 747/1/743 762/1/758 761/1/757 746/1/742
f 739/1/735 754/1/750 755/1/751 740/1/736
f 748/1/744 763/1/759 762/1/758 747/1/743
f 741/1/737 756/1/752 750/1/746 735/1/731
f 740/1/736 755/1/751 764/1/760 749/1/745
f 755/1/751 771/1/767 779/1/775 764/1/760
f 734/1/730 785/1/781 787/1/783 663/1/659
f 757/1/753 773/1/769 772/1/768 756/1/752
f 764/1/760 779/1/775 778/1/774 763/1/759
f 758/1/754 774/1/770 773/1/769 757/1/753
f 751/1/747 767/1/763 768/1/764 752/1/748
f 759/1/755 794/1/790 774/1/770 758/1/754
f 750/1/746 766/1/762 767/1/763 751/1/747
f 651/1/647 780/26/776 793/1/789 723/1/719
f 760/1/756 775/1/771 794/1/790 759/1/755
f 752/1/748 768/1/764 769/1/765 753/1/749
f 761/1/757 776/1/772 775/1/771 760/1/756
f 753/1/749 769/1/765 770/1/766 754/1/750
f 762/1/758 777/1/773 776/1/772 761/1/757
f 754/1/750 770/1/766 771/1/767 755/1/751
f 763/1/759 778/1/774 777/1/773 762/1/758
f 756/1/752 772/1/768 766/1/762 750/1/746
f 722/1/718 784/1/780 785/1/781 734/1/730
f 723/1/719 793/1/789 792/27/788 711/1/707
f 692/1/688 782/27/778 784/1/780 722/1/718
f 711/1/707 792/27/788 791/26/787 705/1/701
f 704/1/700 783/1/779 789/27/785 681/1/677
f 705/1/701 791/26/787 790/27/786 693/1/689
f 680/28/676 781/33/777 783/1/779 704/1/700
f 693/1/689 790/27/786 782/27/778 692/1/688
f 681/1/677 789/27/785 788/33/784 669/33/665
f 669/33/665 788/33/784 786/28/782 652/26/648
f 652/26/648 786/28/782 780/26/776 651/1/647
f 773/1/769 802/1/798 801/1/797 772/1/768
f 772/1/768 801/1/797 795/1/791 766/1/762
f 770/1/766 799/1/795 800/1/796 771/1/767
f 769/1/765 798/1/794 799/1/795 770/1/766
f 768/1/764 797/1/793 798/1/794 769/1/765
f 766/1/762 795/1/791 796/1/792 767/1/763
f 779/1/775 809/1/805 808/1/804 778/1/774
f 767/1/763 796/1/792 797/1/793 768/1/764
f 771/1/767 800/1/796 809/1/805 779/1/775
f 778/1/774 808/1/804 807/1/803 777/1/773
f 777/1/773 807/1/803 806/1/802 776/1/772
f 776/1/772 806/1/802 805/1/801 775/1/771
f 775/1/771 805/1/801 804/1/800 794/1/790
f 794/1/790 804/1/800 803/1/799 774/1/770
f 774/1/770 803/1/799 802/1/798 773/1/769
f 837/26/833 817/1/813 824/1/820 868/1/864
f 877/26/873 821/1/817 820/1/816 844/1/840
f 868/1/864 824/1/820 822/1/818 845/26/841
f 861/26/857 813/1/809 814/1/810 836/1/832
f 836/1/832 814/1/810 815/1/811 849/26/845
f 869/26/865 812/1/808 813/1/809 861/26/857
f 881/26/877 810/1/806 811/1/807 873/26/869
f 844/1/840 820/1/816 819/1/815 832/1/828
f 873/26/869 811/1/807 812/1/808 869/26/865
f 832/1/828 819/1/815 818/1/814 828/1/824
f 849/26/845 815/1/811 816/1/812 853/26/849
f 828/1/824 818/1/814 823/1/819 860/1/856
f 860/1/856 823/1/819 810/1/806 881/26/877
f 853/26/849 816/1/812 817/1/813 837/26/833
f 845/26/841 822/1/818 821/1/817 877/26/873
f 796/1/792 848/1/844 880/1/876 797/1/793
f 848/1/844 847/1/843 879/1/875 880/1/876
f 847/1/843 846/26/842 878/26/874 879/1/875
f 846/26/842 845/26/841 877/26/873 878/26/874
f 802/1/798 856/1/852 840/1/836 801/1/797
f 856/1/852 855/1/851 839/1/835 840/1/836
f 855/1/851 854/26/850 838/26/834 839/1/835
f 854/26/850 853/26/849 837/26/833 838/26/834
f 809/1/805 857/26/853 884/1/880 808/1/804
f 857/26/853 858/26/854 883/1/879 884/1/880
f 858/26/854 859/1/855 882/26/878 883/1/879
f 859/1/855 860/1/856 881/26/877 882/26/878
f 800/1/796 825/26/821 857/26/853 809/1/805
f 825/26/821 826/26/822 858/26/854 857/26/853
f 826/26/822 827/1/823 859/1/855 858/26/854
f 827/1/823 828/1/824 860/1/856 859/1/855
f 803/1/799 852/1/848 856/1/852 802/1/798
f 852/1/848 851/1/847 855/1/851 856/1/852
f 851/1/847 850/26/846 854/26/850 855/1/851
f 850/26/846 849/26/845 853/26/849 854/26/850
f 799/1/795 829/26/825 825/26/821 800/1/796
f 829/26/825 830/26/826 826/26/822 825/26/821
f 830/26/826 831/1/827 827/1/823 826/26/822
f 831/1/827 832/1/828 828/1/824 827/1/823
f 807/1/803 876/1/872 872/1/868 806/1/802
f 876/1/872 875/1/871 871/1/867 872/1/868
f 875/1/871 874/26/870 870/26/866 871/1/867
f 874/26/870 873/26/869 869/26/865 870/26/866
f 798/1/794 841/26/837 829/26/825 799/1/795
f 841/26/837 842/26/838 830/26/826 829/26/825
f 842/26/838 843/1/839 831/1/827 830/26/826
f 843/1/839 844/1/840 832/1/828 831/1/827
f 808/1/804 884/1/880 876/1/872 807/1/803
f 884/1/880 883/1/879 875/1/871 876/1/872
f 883/1/879 882/26/878 874/26/870 875/1/871
f 882/26/878 881/26/877 873/26/869 874/26/870
f 806/1/802 872/1/868 864/1/860 805/1/801
f 872/1/868 871/1/867 863/1/859 864/1/860
f 871/1/867 870/26/866 862/26/858 863/1/859
f 870/26/866 869/26/865 861/26/857 862/26/858
f 804/1/800 833/26/829 852/1/848 803/1/799
f 833/26/829 834/26/830 851/1/847 852/1/848
f 834/26/830 835/1/831 850/26/846 851/1/847
f 835/1/831 836/1/832 849/26/845 850/26/846
f 805/1/801 864/1/860 833/26/829 804/1/800
f 864/1/860 863/1/859 834/26/830 833/26/829
f 863/1/859 862/26/858 835/1/831 834/26/830
f 862/26/858 861/26/857 836/1/832 835/1/831
f 795/1/791 865/26/861 848/1/844 796/1/792
f 865/26/861 866/26/862 847/1/843 848/1/844
f 866/26/862 867/1/863 846/26/842 847/1/843
f 867/1/863 868/1/864 845/26/841 846/26/842
f 797/1/793 880/1/876 841/26/837 798/1/794
f 880/1/876 879/1/875 842/26/838 841/26/837
f 879/1/875 878/26/874 843/1/839 842/26/838
f 878/26/874 877/26/873 844/1/840 843/1/839
f 801/1/797 840/1/836 865/26/861 795/1/791
f 840/1/836 839/1/835 866/26/862 865/26/861
f 839/1/835 838/26/834 867/1/863 866/26/862
f 838/26/834 837/26/833 868/1/864 867/1/863
f 904/1/900 887/1/883 888/1/884 903/1/899
f 912/31/908 894/1/890 893/1/889 911/27/907
f 920/1/916 890/1/886 891/1/887 919/27/915
f 928/1/924 892/1/888 899/1/895 927/1/923
f 936/1/932 896/1/892 895/1/891 935/27/931
f 927/1/923 899/1/895 897/1/893 943/1/939
f 935/27/931 895/1/891 894/1/890 912/31/908
f 919/27/915 891/1/887 892/1/888 928/1/924
f 943/1/939 897/1/893 896/1/892 936/1/932
f 944/29/940 889/1/885 890/1/886 920/1/916
f 948/29/944 886/1/882 887/1/883 904/1/900
f 911/27/907 893/1/889 898/1/894 955/1/951
f 956/1/952 885/1/881 886/1/882 948/29/944
f 955/1/951 898/1/894 885/1/881 956/1/952
f 903/1/899 888/1/884 889/1/885 944/29/940
f 813/1/809 900/33/896 947/1/943 814/1/810
f 900/33/896 901/28/897 946/1/942 947/1/943
f 901/28/897 902/1/898 945/28/941 946/1/942
f 902/1/898 903/1/899 944/29/940 945/28/941
f 823/1/819 952/1/948 959/1/955 810/1/806
f 952/1/948 953/26/949 958/27/954 959/1/955
f 953/26/949 954/1/950 957/1/953 958/27/954
f 954/1/950 955/1/951 956/1/952 957/1/953
f 810/1/806 959/1/955 951/1/947 811/1/807
f 959/1/955 958/27/954 950/26/946 951/1/947
f 958/27/954 957/1/953 949/1/945 950/26/946
f 957/1/953 956/1/952 948/29/944 949/1/945
f 818/1/814 908/31/904 952/1/948 823/1/819
f 908/31/904 909/1/905 953/26/949 952/1/948
f 909/1/905 910/28/906 954/1/950 953/26/949
f 910/28/906 911/27/907 955/1/951 954/1/950
f 811/1/807 951/1/947 907/1/903 812/1/808
f 951/1/947 950/26/946 906/1/902 907/1/903
f 950/26/946 949/1/945 905/26/901 906/1/902
f 949/1/945 948/29/944 904/1/900 905/26/901
f 814/1/810 947/1/943 923/1/919 815/1/811
f 947/1/943 946/1/942 922/1/918 923/1/919
f 946/1/942 945/28/941 921/26/917 922/1/918
f 945/28/941 944/29/940 920/1/916 921/26/917
f 822/1/818 940/28/936 939/1/935 821/1/817
f 940/28/936 941/1/937 938/1/934 939/1/935
f 941/1/937 942/1/938 937/28/933 938/1/934
f 942/1/938 943/1/939 936/1/932 937/28/933
f 816/1/812 916/1/912 931/27/927 817/1/813
f 916/1/912 917/1/913 930/1/926 931/27/927
f 917/1/913 918/1/914 929/33/925 930/1/926
f 918/1/914 919/27/915 928/1/924 929/33/925
f 820/1/816 932/1/928 915/31/911 819/1/815
f 932/1/928 933/26/929 914/1/910 915/31/911
f 933/26/929 934/33/930 913/1/909 914/1/910
f 934/33/930 935/27/931 912/31/908 913/1/909
f 824/1/820 924/30/920 940/28/936 822/1/818
f 924/30/920 925/29/921 941/1/937 940/28/936
f 925/29/921 926/1/922 942/1/938 941/1/937
f 926/1/922 927/1/923 943/1/939 942/1/938
f 821/1/817 939/1/935 932/1/928 820/1/816
f 939/1/935 938/1/934 933/26/929 932/1/928
f 938/1/934 937/28/933 934/33/930 933/26/929
f 937/28/933 936/1/932 935/27/931 934/33/930
f 817/1/813 931/27/927 924/30/920 824/1/820
f 931/27/927 930/1/926 925/29/921 924/30/920
f 930/1/926 929/33/925 926/1/922 925/29/921
f 929/33/925 928/1/924 927/1/923 926/1/922
f 815/1/811 923/1/919 916/1/912 816/1/812
f 923/1/919 922/1/918 917/1/913 916/1/912
f 922/1/918 921/26/917 918/1/914 917/1/913
f 921/26/917 920/1/916 919/27/915 918/1/914
f 819/1/815 915/31/911 908/31/904 818/1/814
f 915/31/911 914/1/910 909/1/905 908/31/904
f 914/1/910 913/1/909 910/28/906 909/1/905
f 913/1/909 912/31/908 911/27/907 910/28/906
f 812/1/808 907/1/903 900/33/896 813/1/809
f 907/1/903 906/1/902 901/28/897 900/33/896
f 906/1/902 905/26/901 902/1/898 901/28/897
f 905/26/901 904/1/900 903/1/899 902/1/898
f 679/1/675 664/34/660 787/1/783 765/31/761 781/33/777 680/28/676
f 787/1/783 664/34/660 663/1/659
f 679/1/675 662/27/658 664/34/660
